<?xml version="1.0" encoding="UTF-8"?>
<svg id="Capa_1" data-name="Capa 1" xmlns="http://www.w3.org/2000/svg" viewBox="0 0 1125 1149">
  <defs>
    <style>
      .cls-1 {
        fill: #c9d2e2;
      }

      .cls-2 {
        fill: #001e4d;
      }

      .cls-3 {
        fill: #fde3e6;
      }

      .cls-4 {
        fill: #e3eaf7;
      }

      .cls-5 {
        fill: #ffb5c3;
      }

      .cls-6 {
        fill: #193562;
      }

      .cls-7 {
        fill: #eff4ff;
      }

      .cls-8 {
        fill: #afbdd3;
      }

      .cls-9 {
        fill: #ffe3c0;
      }

      .cls-10 {
        fill: #fed1d4;
      }

      .cls-11 {
        fill: #ffe9de;
      }

      .cls-12 {
        fill: #93d0cc;
      }

      .cls-13 {
        fill: #c9eae9;
      }
    </style>
  </defs>
  <path class="cls-4" d="m1007.02,1096.22c0-15.45.54-30.92-.13-46.34-1.07-24.63-.23-97.75-.81-111.35-1.39-32.29.25-94.55.21-96.67-.21-10.52.79-13.48.92-20.27.04-1.88.48-3.75.72-5.63.2-1.6,1.07-2.73,2.39-3.58,6.83-4.42,9.3,1.06,12.78,2.16,21.96,6.96,22.43-10.4,34.19-13.29,10.49-2.57,8.1,12.48,19.38,19.76,1.76,1.13,3.38,1.6,5.66.72,3.33-1.28,6.95-.48,10.43.03,5.5.82,9.72,3.58,13.36,7.66,5.3,5.94,16.21,17.44,16.5,25.92.34,10.15,1.54,20.91,1.85,39.31.08,4.72,1.79,4.82,3.94,4.65,3.77-.3,168.1-2.71,178.33-1.03,2.36.39,4.78.32,7.22-.38,3.54-1.01,6.17,1.07,6.44,4.73.84,11.35.71,22.73.66,34.1-1.16,6.72-.3,13.52-.82,20.27-1.71,22.17-2.85,12.71-69.92,15.1-7.29.26-166.99,1.11-177.58,1.37-19.62.47-34.01-4.59-35.37,6.23-.25,2.01-.71,3.88-.32,5.99.43,2.37.32,4.86.28,7.29-.19,11.51,1.02,22.99.79,34.5-.12,6.11-.02,23-.02,23.17.18,5.51,1.38,1.63,17.92,1.63,37.67,0,35.85.88,51.58.79,26.08-.15,18.76,2.38,20.15,19.48,1.16,14.2.12,28.44.88,42.63.97,17.95.45,22.11.61,25.96.15,3.65-1.03,6.93-2.52,10.14-.9,1.95-2.36,3.24-4.49,3.79-4.29,1.11-89.78,1.41-107.92-1.74-4.85-.84-7.26-4.3-7.22-8.74.16-16.13.06-32.25.06-48.38h-.17Zm94.41,26.82s.06,0,.09,0c0-18.11-.06-18.16.19-19.47.86-4.43.34-8.91.39-13.36.02-1.52-.41-1.8-1.99-1.94-2.86-.24-5.66.55-8.47.55-4.95,0-44.58,1.9-50.65.34-.64-.16-1.35-.1-2.02-.07-2.05.08-1.47-.24-1.67,30.44,0,1.08.14,2.2-.07,3.24-1.04,5.23-.41,10.53-.7,15.79-.4,7.51,1.3,4.01,59.61,3.99,5.07,0,5.31.02,5.3-3.26-.01-5.41,0-10.83,0-16.24Z"/>
  <path class="cls-4" d="m1100.31,788.65c-5.23-1.45-12.36-10.79-14.9-15.56-3.65-6.83-6.24-14.09-8.31-21.54-1.09-3.93-1.1-8.02-1.55-12.04-.29-2.58.34-5.14,1.45-7.49,1.66-3.49,5.2-3.67,7.3-.4,3.08,4.81,2.45,10.15,11.36,27.3,5.17,9.95,6.37,10.13,12.05,18.75.91,1.38.58,13.19-7.4,10.97Z"/>
  <path class="cls-7" d="m975.82,188.79c-.33,1.99-.05,4.08-.36,6.08-.65,4.21-.34,8.28.77,12.41,1.74,6.49,2.12,43.61,2.77,51.41,1.71,20.39.17,66.18-1.15,79.5-.78,7.92-2.58,72.77-.11,90.05.49,3.45.45,6.99.31,10.52-.57,13.86.21,19.39.17,21.11-.3,17.12-.05,18.01-1.31,20.56-.3.6-.4,1.3-.7,1.9-1.22,2.42-1.46,4.95-.51,7.45,2.31,6.11,1.62,28.24,1.31,34.74-.19,4.04-1.03,8.09-.51,12.13,1.13,8.64.77,17.3.62,25.96-.25,14.27-3.56,15.66-2.01,29.85.81,7.46.03,14.03.61,24.35,1.76,31.26,1.04,23.78.2,38.82-.03.54-.18,1.09-.1,1.61,1.07,7.41.47,14.88.58,22.31.71,48.79-.7,44.32-.8,50.35-.19,11.51,1.02,22.99.79,34.5-.14,7.18.41,14.33.73,21.49.47,10.75-.78,1.73-.71,56.04,0,1.49.12,2.99.03,4.47-.27,4.27-4.16,6.37-7.42,3.73-4.52-3.67-9.95.52-17.62-.37-22.16-2.58-29.96,2.12-72.54-1.6-.8-.07-1.68-.09-2.37-.44-2.84-1.45-3.1-3.52-.68-5.29,5.7-4.18,40-13.52,65.42-69.84,27.39-60.69,18.11-101,20.95-109.83.88-2.74-1.09-50.74,1.51-68.16.82-5.5.13-6.89-.45-19.03-7.68-160.83-4.11-87.55-4.03-262.22.1-216.67,1.39-158.5,1.65-192.58.02-2.27.59-4.49.16-6.84-.41-2.2,1.87-5.07,4.34-4.92.53.03,1.17.08,1.6-.15,3.58-1.93,5.44.9,7.6,2.75.85.73,1.02,1.87.98,3-.26,8.14,1.58,15.96,1.59,21.83.02,15.62.44,42.01-1.29,52.34Z"/>
  <path class="cls-7" d="m1105.9,403.12c1.24-.16,1.18,1.35.13,1.53-.39.07-1.1-1.41-.13-1.53Z"/>
  <path class="cls-1" d="m1077.19,1.45c11.38,3.15,19,12.26,22.38,22.26,1.8,5.31,4.38,10.13,7.99,14.47,5.2,6.27,5.5,14.17,3.99,17.46-2.55,5.53-9.88,5.68-15.14-3-7.84-12.94-5.01-25.98-12.77-31.92-5.71-4.37-6.55,1.8-16.27,2.43-2.92.19-6.71,2.71-12.36.91-4.68-1.49-9.53-1.92-14.38-2.35-1.93-.17-3.77.3-5.57.82-3.47.99-4.55,6.22-3.92,9.75,1.14,6.38,3.08,16.9,2.91,23.71-.45,17.34-28.45,15.02-28.69-17.13-.02-2.28-1.08-3.8-.58-6.85,1.75-10.52-4.38-23.2,6.28-26.1,13.39-3.65,28.5-5.72,38.38-6.09,5.21-.19,14.81-1.96,27.74,1.62Z"/>
  <path class="cls-1" d="m1007.3,1146.96c-.25-1.59-.52-208.06-1.62-212.84-.43-1.9.55-3.59,2.05-2.21,2.5,2.3,4.32,7.61,5.12,10.91,14.6,60.11-13.66,132.04,70.49,131.43,1.87-.01,39.29-.22,41.04-.17,4.06.12,3.95,1.38,3.98,7.12.36,66.6,2.89,60.77-2.08,70.91-1.46,2.98-5.24,3.48-8.57,3.48-99.22-.08-108.98.72-110.42-8.62Zm89.43-4.42c2.74,0,4.48.22,4.68-1.83.1-1.08-.07-35.31.27-36.93.92-4.43.36-8.9.44-13.36.03-1.76-.39-2.02-2.2-2.16-.17-.01-51.3,2.86-58.72.93-.77-.2-1.62-.14-2.42-.09-2.62.18-.27,4.04-2.12,44.36-.41,8.99-1.03,9.63,6.53,9.78,14.08.28,3.01-.65,53.55-.71Z"/>
  <path class="cls-13" d="m1151.95,727.9c0,39.89.18,39.16-.41,41.83-1.18,5.4.77,3.85.55,19.84-.1,7.45-7.53,7.74-14.9,6.49-.53-.09-1.03-.33-1.54-.5-1.05-.35-2.1-.79-2.31-2.02-.44-2.58,4.82-1.53,7.75-7.63,2.62-5.45-.18-8.34-3.44-14.17-1.57-2.8-2.97.28-5.94-3.57-.54-.7-7.04-8.9-7.81-9.31-3.6-1.89-5.32-5.36-7.11-8.66-5.11-9.41-9.71-19.06-12.88-29.33-1.25-4.04-3.35-7.69-5.04-11.53-.85-1.92-2.7-2.75-4.52-3.11-6.14-1.22-8.15-5.81-13.02-1.61-5.04,4.35-15.47,3.21-20.78-.17-5.53-3.52-4.87-6.4-11.3-10.37-3.95-2.44-8.19-3.49-12.65-1.11-4.73,2.53-8.77,5.94-11.96,10.2-2.33,3.1-7.92,10.23-11.41,11.95-3.21,1.57-5.2-1.96-5.34-5.6-1.91-48.29-.77-46.15.41-46.59,7.32-2.69,6.04-8.77,8.7-6.2,3.88,3.75,10.65,5.16,16.28.61,4.83-3.91,5.42-7.42,6.37-10.98.58-2.15,1.92.28,7.29,1.28,8.18,1.53,15.47-5.58,15.44-13.24-.02-4.3,2.64-.52,8.84-4.81,1.94-1.34,2.12.27,3.14,3.26,4.53,13.28,8.03,14.81,8.88,19.01,1.45,7.19,11.46,22.36,12.57,24.91,3.31,7.59,14.27,7.66,20.65,3.97,2.14-1.24,2.33-1.22,3.9.23,2.1,1.96,4.15,3.88,7.3,3.92,3.81.04,7.59.02,10.98-2.08,4.04-2.51,4.2-3.6,5.87-2.06,6.34,5.87,7.78,4.91,7.77,7.74-.04,13.14-.03,26.28-.03,39.42h-.27Z"/>
  <path class="cls-13" d="m1006.2,570.25c0-54.88-.16-56.15,3.22-57.42.75-.28,1.55-.55,2.34-.6,4.45-.29,8.87-.94,13.35-.72,5.38.26,12.03-.36,15.4.51.77.2,1.61.15,2.42.14,1.84-.03,2.08-.24,2.46-1.97,1.38-6.36-.06-11.1,1.57-16.93,1.62-5.78,6.81,2.68,16.15,2.87,6.41.13,9.52-4.43,11.26-5.6,3.03-2.04,5.64.62,6.08,2.94.62,3.31,2.48,5.99,4.37,8.62,5.7,7.92,12.58,4.68,14.34,4.69,2.48,0,4,1.52,4.12,4.03.08,1.69-.99,5.18,1.82,9.34.08.11.13.24.19.36,1.58,3.12,1.01,5.27-2.24,6.35-2.98,1-2.77,2.11-8.35,7.37-3.45,3.26-4.88,6.8-8.53,12.31-5.6,8.46-12.92,29.78-14.63,38.15-2.52,12.31-.51,13.85-.8,16.86-.1.98.59,2.4-.77,2.81-1.02.31-1.47-1-2.14-1.61-3.13-2.85-4.97-2.8-10-5.14-5.44-2.53-8.92,1.72-13.38,2.88-1.69.44-4.05,4.35-4.74,5.88-.66,1.47-1.54,1.77-2.9,1.21-2.57-1.05-5.31-5.33-14.44-1.79-2.28.89-4.25,2.37-6.27,3.73-2.25,1.51-.95,2.98-2.25,7.11-1.01,3.21-5.98,6.18-7.39,1.13-.66-2.37.35-8.4-.25-38.56-.06-2.98,0-5.96,0-8.94h0Z"/>
  <path class="cls-13" d="m1102.24,381.01c3.95,1.5,5.55,4.24,2.02,7.04-4.34,3.44-4.06,8.94-7.54,11.8-4.32,3.56-4.73-4.43-10.96-1.67-5.32,2.36-11.04,7.58-11.88,13.03-.77,5.06-3.58,5.99-6.05,4.67-1.65-.88-2.01-2.76-5.4-1.03-8.77,4.47-10.42,13.25-12.12,16.14-1.23,2.08-3.6,2.62-5.58,1.29-2.04-1.37-3.97-4.56-10.06-4.51-9.54.07-12.71,2.8-16.54,7.01-1.6,1.76-3.9,6.12-8.05,5.02-5.08-1.35-4.68-6.32-4.66-12.57.06-18.81-.22-25.72,4.3-31.19,10.95-13.24,25.22-20.07,42.02-22.14,1.61-.2,3.21-.52,4.83-.6,16.4-.79,30.47,1.92,45.68,7.7Z"/>
  <path class="cls-13" d="m1099.97,1101.01c2,.28,3.26,1.52,3.24,3.53-.06,6.99,1.62,12.66.29,19.39-.27,1.35-.09,8.8-.38,13.78-.45,7.63-2.07,5.29-43.22,5.73-2.83.03-5.6-.67-8.46-.29-2.57.34-3.72-3.03-3.72-5.82,0-.45,0-29.8.18-31.25.39-3.06,1.18-3.76,4.24-4.4,2.94-.62,5.89-.78,8.87-.77,13.35.04,37.57-.09,38.96.11Z"/>
  <path class="cls-13" d="m1028.92,635.82c-.65.21-1.41.14-1.63-.53-.29-.87.55-1,1.15-1.14,1.46-.33,1.72,1.26.48,1.67Z"/>
  <path class="cls-12" d="m1075.71,1102.74c-6.76,0-13.53.01-20.29,0-7.39-.02-6.75-.6-6.73,6.34.06,31.73,1.57,32.77-3.9,33.39-9,1.01-9.3-.72-9.3-5.84,0-39.3-1.13-49.5,3.54-48.52,4.48.94,7.78-2.65,14.38-.28,2.5.9,4.96,1.09,7.56.44,1.16-.29,2.42-.19,3.64-.2,36.08-.08,28.72.68,35.67.71,4.81.02,2.79,3.9,3.46,7.12.16.78.27,1.64.11,2.41-.82,3.85-1.54,4.49-4.98,4.45-7.71-.1-15.43-.03-23.14-.03v.02Z"/>
  <path class="cls-5" d="m863.5,845.67c-1.97,5.69-9.11,5.69-11.06-.09-1.49-4.44.06-99.09.23-138.1.67-154.02-2.58-560.43,1.75-592.47.91-6.73,8.06-8.5,8.88,2.52,4.39,59.05-1.19,528.16.29,599.39.17,8.42,1.25,124.89-.09,128.76Z"/>
  <path class="cls-5" d="m1052.45,1038.53c-3.81.04-7.54-.62-11.32-.77-6.01-.23-3.65-7.04-4.07-59.7-.05-6.02,6.02-5.78,11.69-5.84,8.15-.09-14.63.43,53.21.18,2.81-.01,5.68.67,8.45-.45,2.71-1.09,7.38,7.16,16.03,16.59,18.99,20.71,20.05,16.44,23.54,21.62,1.25,1.85,2.05,3.8,1.96,6.07-.19,4.86.46,9.75-.56,14.58-.14.65-.11,1.35-.07,2.03.06,1.06-.39,2.28.37,3.15.87.99,2.02-.07,3.05.07.4.05.82-.07,1.22,0,3.5.6,7,.07,10.49-.05,9.21-.31,18.37.94,27.58.75,7.86-.16,17.64,1.32,26.35.91,7.97-.38,3.47,8.69,5.11,12.48.66,1.52-.55,3.73-4.9,3.79-20.4.29-1.04.6-29.6.86-36.45.34-40.75-.15-41.02-3.09-.33-3.62-1.2-7.23-.13-10.87.11-.38.09-.8.09-1.21,0-1.27-.41-1.72-1.62-1.78-.17,0-13.48-.35-18.68.08-14.61,1.19-55.95.36-77.15.61Z"/>
  <path class="cls-5" d="m1124.47,318.97c0,2.98-.2,5.97.04,8.93.38,4.71-1.9,7.95-5.2,10.84-10.68,9.36-28.83,18.74-39.49,22-16.84,5.14-34.44,4.73-46.03,1.41-17.23-4.94-18.52-4.33-25.97-10.68-4.05-3.45-3.86-7.63-1.41-23.67.33-2.15,1.48-2.74,3.48-2,2.97,1.1,5.81,4.29,22.61,7.53,4.67.9,9.41.85,14.11,1.48,3.77.5,7.67.11,11.21-1.1,13.71-4.67,19.61,1.18,47.42-17.23,13.47-8.92,13.11-13.11,16.84-15.09.72-.38,1.81.15,1.86.97.73,11.66.53,11.07.53,16.59h.01Z"/>
  <path class="cls-5" d="m976.19,195.1c-.03-1.94.52-3.78.94-5.61.41-1.76,1.92-2.53,3.75-2.11,3.98.89,8,1.29,12.08,1.17,10.17-.3-.44.92,19.39-1.2,7.77-.83,12.68,1.83,27.09-.17,3.02-.42,8.25.43,7.68,3.73-.53,3.05-.58,6.19-1.78,9.12-1.29,3.14-3.42,2.52-9.04,2.53-6.36,0-6.56,1.28-8.86.61-1.74-.51-.83-.22-23.88-1.44-2.96-.16-6.5-1.53-9.95.26-1.59.83-9.68.57-11.29.5-2.6-.11-4.8-1.15-5.71-3.78-.39-1.11-.3-2.4-.43-3.6Z"/>
  <path class="cls-5" d="m1001.13,741.74c-14.03.21-9.95,1.09-20.67.66-5.13-.2-3.6-5.42-3.54-10.4.03-2.65,2.4-5.44,4.84-4.68,8.14,2.53,22.65.89,30.34,1.18,8.13.3,24.28-1.77,29.17-.34,1.09.32,2.12.03,3.2-.06,2.76-.25,4.4,1.52,3.92,4.25-1.83,10.59-3.34,10.14-10.73,10.15-32.32.02-26.71-.9-36.53-.75Z"/>
  <path class="cls-5" d="m1028.79,483.88c-3.93,0-7.9.38-11.77-.08-8.38-.98-16.77-.27-25.15-.56-6.99-.24-16.56,3.9-15.76-5.13.23-2.61-1.93-7.85,4.4-8.04,3.79-.11,7.58-.07,11.37-.13,8.25-.14,16.48-1.29,24.73-.65,8.11.63,16.22.4,24.33.77,8.47.39,9.57,12.64,1.27,13.75-.76.1.3.08-13.4.08v-.02Z"/>
  <path class="cls-5" d="m1140.99,233.42c-3.49,4.15-6.93,6.39-11.97,4.4-9.2-3.64-11.49-16.28-1.29-22.11,8.45-4.83,21.83,7.55,13.26,17.71Z"/>
  <path class="cls-5" d="m1120.86,781.27c-.49-5.74,5.54-11.7,11.75-11.38,9.65.5,14.82,10.84,8.28,18.42-1.82,2.1-4.34,3.19-6.76,4.39-2.9,1.44-13.25-.86-13.26-11.42Z"/>
  <path class="cls-5" d="m1143.17,503.94c0,6.69-5.8,12.31-12.21,11.81-6.14-.47-11.94-9.17-9.54-15.67,1.96-5.3,6.85-8.19,12.53-7.3,5.44.85,9.21,5.42,9.21,11.16Z"/>
  <path class="cls-3" d="m1240.44,304.19c-76.34,0-73.08.19-76.38-.48-5.49-1.12-4.51,1.46-9.91,1.28-3.78-.12-7.58.34-11.34-.5-1.43-.32-1.96.24-2.2,1.65-2.45,14.61-1.34,34.83-1.36,35.2-.11,1.75-1.06,2.75-2.88,2.71-3.1-.08-6.23.25-9.28-.69-3.78-1.15.75.64-6,24.24-1.3,4.55-3.11,8.95-4.68,13.42-.76,2.16-2.54,3.83-2.93,6.19-.13.8-2.07,1.34-3.49-1.07-2.68-4.51-16.74-9.65-21.8-11.07-5.48-1.54-11.08-2.53-16.62-3.77-1.53-.34-2.94-.22-4.33.46-2.94,1.45-7.41.65-13.61,1.74-5.6.98-11.22,2.14-16.44,4.43-15.57,6.83-18.26,10.61-26.5,17.71-4.32,3.72-5.3-2.15-5.28-7.87.1-25.38.12-22.04,1.09-32.04.24-2.46,1.25-5.13,3.15-3.54,1.78,1.48-.61.51,14.38,6.36,5.82,2.27,11.77,4.08,18.02,4.65,9.66.87,24.1,4.75,55.19-10.73,7.17-3.57,13.82-8.01,20.11-12.96,1.7-1.33,3.14-2.98,4.75-4.43.66-.6,1.7-.27,1.95.61.43,1.47.09,1.68.75,3.07.24-.61.29-.32.29-1.89-.19-98.7-1.1-92.8,2.69-94.27,2.84-1.1,5.77-1.4,8.78-1.18,3.13.23,3.3,4.21,3.35,7.36.16,10.27-.44,10.99,1.12,10.35,4.33-1.78,4.13-1.3,43.69-1.51,3.46-.02,17.38-1.44,24.68-.21,1.93.33,106.49.29,107.67.08,1.29-.23,2.15.41,2.44,1.62.88,3.73,1.05,3.99-.04,10.83-.48,2.98-1.49,3.89-4.57,4.11-.17.01-163.55.74-174.6-1.56-.54,1.09-.35-.33-.36,17.4,0,1.22.38.83,1.05.36,3.25-2.29,5.25-1.74,167.56-1.56,2.32,0,4.59.19,6.85.68,1.56.33,2.46,1.32,2.48,2.79.03,3.24-.03,6.5-.29,9.73-.13,1.64-1.08,2.28-2.76,2.42-.92.07,7.22.04-74.38.04v-.17Z"/>
  <path class="cls-3" d="m876.53,845.11c-.79,3.13-3.5,5.55-6.21,5.44-3.24-.14-6.02-2.86-6.38-6.31-1.23-11.9,2.24,93.28-.68-587.33-.62-144.78,1.05-142.75,5.17-143.46,5.25-.9,6.1,6.48,6.39,92.35,0,.2,1.75,639.13,1.7,639.31Z"/>
  <path class="cls-3" d="m1240.53,859.58c-75.89,0-73.03.2-76.38-.47-5.32-1.06-5.37,1.28-8.69,1.23-4.05-.06-8.13.47-12.15-.4-2.45-.53-2.83.71-2.73,3.16.45,10.29-.99,20.55-.66,30.84.13,4.15-.93,4.4-3.14,4.16-2.34-.26-4.53.81-6.86.54-1.94-.22-5.64.98-6.29-2.72-.33-1.85-.36-80.4-.14-94.28.03-1.9,1.02-3.02,2.77-3.53,2.01-.59,7.61-.49,9.71-.46,3.72.05,4.65,4.02,4.61,7.77-.09,8.82-.16,8.77,1.6,8.52,8.97-1.27,15.57-.79,42.21-.9,4.19-.02,17.89-1.47,25.08-.2,1.73.31,106.27.28,107.68.05,1.25-.2,2.1.47,2.38,1.71.48,2.1,1.02,4.2.51,6.42-.36,1.58-.38,3.22-.67,4.82-.7,3.79-3.06,3.65-7.01,3.66-33.69,0-156.1.38-170.24-1.11-.87-.09-1.29.37-1.31,1.13-.09,4.74-.15,9.48-.2,14.22,0,.77.35,1.26,1.24,1.16,12.07-1.38,12.04-.96,167.4-.79,2.05,0,4.04.27,6.04.66,1.56.3,2.53,1.23,2.56,2.71.05,3.24,0,6.5-.25,9.73-.14,1.8-1.11,2.41-3.09,2.53-.75.04,3,.03-73.97.03,0-.06,0-.11,0-.17Z"/>
  <path class="cls-3" d="m1142.62,550.62c-3.36-.39-2.69-5.04-2.69,16.62,0,1.04.38,1.12,1.09.45,1.89-1.76,9.19-.34,20.11-1.1,18-1.26,36.01-.23,54.01-.59,32.09,1.37,64.19.3,96.29.65,6.78.07,7.1.74,6.26,12.66-.12,1.77-1.14,2.64-2.89,2.87-5.67.74-152.78-1.12-154.8-.58-5.75,1.53-11.56.77-17.36.64-1.78-.04-1.94.02-2.06,1.61-.32,4.18-1.15,8.36-.56,12.54.66,4.59.35,9.19.59,13.78.16,3.14-.88,6.16-.58,9.29.1,1.05-.77,1.81-1.8,1.87-3.78.23-7.58.43-11.35-.2-1.49-.25-2.36-1.29-2.5-2.82-.15-1.59-.13,1.87-.26-91.05,0-5.57.32-6.84,2.89-6.9,8.13-.2,9.02.34,10.53.27,2.06-.1,2.21,2.86,2.26,4.93.25,10.72-.36,11.75,1.43,10.94,4.49-2.02,39.66-1.44,165.28-1.39,9.55,0,5.7,1.18,10.07.22,1.71-.37,2.54.16,3,1.83.7,2.55,1.09,3.13-.32,11.63-.52,3.13-3.59,2.77-6.79,2.77-175.46.02-159.89.21-169.85-.94Z"/>
  <path class="cls-3" d="m1151,1033.78c-.08-1.41.05-10.54-.61-14.58-1.03-6.35,2.34-7.34-1.34-9.26-10.23-5.32-22.07-15.02-31.69-28.59-1.62-2.28-2.6-5.04-3.77-7.63-.48-1.06.87-2.47,1.8-1.87,1.74,1.11,3.25.51,4.97.13,3.1-.68,3.21-.21,62.98-.25,2.74,0,4.4.91,5.83,3.39,13.77,23.97,20.42,24.87,32.93,34.55,2.05,1.59,3.12,3.72,3.17,6.31.13,6.37-.07,12.72-.88,19.04-.45,3.47-3.4,2.63-7.46,2.63-64.7-.05-65.66.94-65.94-3.88Z"/>
  <path class="cls-3" d="m1005.34,740.84c34.72,0,41.97-.25,42.64,7.01.16,1.73.64,3.39.22,5.21-1.41,6.07,2.53,5.75-1.11,15.54-.82,2.2-2.87,3.26-5.13,3.28-2.14.02-52.16,1.99-61.2.1-5.08-1.06-4.51-4.35-4.52-26.68,0-4.63,2.54-4.63,7.17-4.63,7.31,0,14.62,0,21.93,0,0,.06,0,.11,0,.17Z"/>
  <path class="cls-3" d="m1001.92,514.33c-22.3,1.09-19.59-.12-22.67.38-4.16.67-3.15-7.23-2.92-24.75.02-1.87.47-3.75.82-5.61.22-1.2,1.07-1.89,2.27-1.98,12.28-.94,19.55,1.85,28.33.12,4.49-.89,26.71.43,29.17.51,9.82.32,10.93-1.11,11.07,12.17.14,13.05.57,17.99-5.93,18.06-29.22.31,2.13-.96-40.14,1.11Z"/>
  <path class="cls-3" d="m978.68,230.29c-1.98-.2-3.21-2.35-3.42-3.57-.77-4.51-1.78-9-1.04-13.64,1-6.34-.8-6.76,4.02-11.37,1.5-1.43,1.54.71,15.23-.66,4.43-.44,8.93-.37,13.39-.26,2.87.07,5.64-.68,8.48-.71,3.35-.03,11.83-.1,13.78-.47,3.43-.66,3.68.07,11.29.3,1.36.04,2.71.04,4.01.51,1.7.62,2.81,2,2.38,3.74-1.35,5.5,1.13,8.77.01,14.1-.53,2.55-.57,5.05.1,7.62.64,2.46-.74,4.3-3.37,4.4-3.92.14-7.77.88-11.72.78-16.37-.4-39.09.65-53.14-.77Z"/>
  <path class="cls-3" d="m1075.16,1036.84c10.7,0,21.43-.5,32.1.14,11.24.67,22.46.24,33.69.48,9.56.21,10.19-3.24,10.28,12.29.02,2.41-1.01,3.57-3.49,3.47-5.7-.22-11.33.78-17.03.75-14.09-.08-28.2-.42-42.26.28-13.41.66-26.8.17-40.19.52-2.6.07-5.12-.37-7.66-.75-2.14-.32-2.41-.79-2.9-3.13-.68-3.28-1.63-5.04-1.22-9.59.44-4.79,2.77-4.62,8.18-4.62,10.16,0,20.32,0,30.48,0,0,.06,0,.12,0,.17Z"/>
  <path class="cls-10" d="m1014.52,772.65c-16.62,0-16.13.24-16.36-.57-.22-.76.36-.9,3.94-3.17,33.74-21.34,25.38-27.71,33.11-27.47,2.86.09,5.67.34,8.44,1.05,2.32.59,3.8,2.04,4.17,4.44.33,2.12.85,4.18.36,6.41-1.29,5.92,2.48,5.44-1.03,15.16-.92,2.55-3.18,3.43-5.87,3.42-8.46-.03-8.24.66-26.75.66v.07Z"/>
  <path class="cls-10" d="m1047.86,505.07c-.05,5.21-.81,8.09-5.97,8.14-5.55.06-11.11.26-16.66.08-6.24-.19-12.41.91-18.64.76-1.39-.03-2.92.74-4.14-.56,1.92-4.5,14.32-5.52,30.19-26.6,3.59-4.78,3.26-3.7,7.69-3.83,8.7-.24,7.73,2.73,7.53,22Z"/>
  <path class="cls-10" d="m1020.27,231.1c-18.12,0-17.49.11-17.74-.32-.23-.4.04-.77.36-1,2.95-2.1,19.94-11.13,29.34-26.78,1.45-2.42,3.27-3.39,6-3.1,3.2.34,9.67-.81,8.46,4.9-.49,2.32-.36,4.56.05,6.83,1.15,6.32-1.26,7.93,0,13.68,1.41,6.45-4.18,5.7-26.47,5.7,0,.03,0,.06,0,.09Z"/>
  <path class="cls-11" d="m1042.39,229.36c2.32,0,4.77.24,4.37-2.03-1.09-6.19-.5-12.43-.73-18.65-.04-1.14-1.24-13.44-.25-17.8.33-1.44,0-1.81-1.62-2.18-7.06-1.65-17.81-1.66-25.06-1.55-2.33.03-4.58-.44-6.85-.74-4.33-.59-3.65-3.98-3.6-10.64.09-12.32-.93-24.61-.7-36.94.23-12.19.15-24.39.02-36.58-.51-45.6.71-35.78-.74-42.59-.25-1.19-.45-2.47.81-3.3,2.2-1.46,4.1,2.87,5.92,5.11,4.7,5.75,12.68,6.45,18.96,1.96.46-.33.73-.76.86-1.32.89-3.59,1.31-7.02-.33-10.69-2.43-5.41-4.72-10.97-4.46-18.79.29-8.53,7.98-13.14,13.51-11.52,11.41,3.33,22.18,2.96,29.62.67,5.19-1.59,9.48-7.94,14.63-1.73,6.27,7.57,2.77,23.56,11.83,33.59,3.43,3.8,4.55,7.86,7.04,5.92,2.35-1.84,4.53-3.88,6.33-6.26,3.22-4.24-2.26-12.62-5.46-16.85-1.16-1.53-2.01-3.22-2.71-4.99-1.11-2.84-.43-4.64,2.33-5.98,5.62-2.72,16.19-5.19,27.82-4.4,7.04.48,14.36,3.99,23.14,4.03,5.98.02,11.28-1.67,14.39-2.29,8.42-1.67,17.12.65,23.8,4.48,6.99,4.01,8.88-.34,25.49,5.82,8.04,2.98,13.86,8.44,34.56,23.38,5.79,4.18,10.87,6.69,17.42,7,8.6.41,29.12-6.46,40.64,8.97,8.74,11.7,4.16,25.31-4.97,30-3.04,1.56-4.37,1.38-5.3,3.84-1.31,3.5-3.48,4.68-7.29,4.5-9.49-.46-10.07-7.06-18.39-6.57-4.47.26-8.62-.7-12.55-2.62-4.73-2.3-9.7-1.94-10.94-2.76-4.21-2.79-19.9-.49-23.73,1.84-10.8,6.55-32.07,4.36-46.3-10.44-2.45-2.55-2.52-2.51-5.3-.49-6.36,4.59-12.86,10.36-24.97,10.32-3.77-.01-9.29-2.5-16.69,2.78-9.81,6.99-22.79,6.79-28.37,2.96-.89-.61-1.85-1.13-2.79-1.66-.65-.36-1.22.41-1.4,1.03-.74,2.5-1.99,4.73-3.39,6.9-3,4.64,5.39.45,18.14,21.73,2.92,4.88,5.35,10.05,6.41,15.73.87,4.66,1.51,9.37,1.16,14.12-.51,6.98-5.05,14.66-9.14,18.61-.84.81-.88,1.51-.09,2.42,5.73,6.68,12.84,21.64,13.74,26.95.29,1.73-.33,3.13-2.05,3.43-3,.52-4.16,2.8-5.49,4.94-6.35,10.16,2.4,14.24,2.82,18.55.27,2.78-.65,6.65-.55,8.47.54,9.31-.93,10.37-1.68,39.31-.19,7.3-1.94,10.53-.82,12.82,1.21,2.47-11.71,14.89-19.39,20.71-4.24,3.21-28.04,11.39-36.02,13.59-12.28,3.39-17.39.79-25.38,2.16-1.83.31-16.56-2.62-18.39-2.99-5.34-1.09-10.45-2.77-15.05-5.82-4.62-3.07-1.45-4.96-2.32-8.64-.7-2.95-.51-5.93-.51-8.9-.06-77.31-.46-78.22,5.19-79.02,2.54-.36,5.05-.96,7.65-.92,2.5.04,22.99.01,23.17.01Z"/>
  <g>
    <path class="cls-8" d="m920.8,163.17c.32.32.32.84,0,1.15-1.45,1.46-5.33,5.36-8.29,8.29-3.33,3.29-7.35,4.71-12,4.26-11.92-1.15-17.17-16.38-8.81-24.79,2.1-2.12,6.28-6.29,8.13-8.12.5-.5,1.3-.49,1.8,0,6.39,6.4,12.78,12.8,19.18,19.21Z"/>
    <path class="cls-8" d="m932.87,152.27c-2.85,2.88-5.73,5.73-8.59,8.6h0c-.18.18-.48.18-.66,0-6.7-6.71-13.35-13.36-20.03-20.05-.18-.18-.18-.47,0-.65.66-.65,1.29-1.27,1.92-1.9,2.17-2.16,4.35-4.31,6.5-6.5,2.62-2.66,5.76-4.2,9.49-4.53.06,0,.12-.02.17-.04.04-.01.09-.02.13-.02h1.69s.05,0,.07,0c.75.12,1.51.2,2.26.36,5.88,1.24,10.53,6.24,11.3,12.17.63,4.87-.79,9.06-4.24,12.55Z"/>
  </g>
  <g>
    <path class="cls-8" d="m932.18,187.66c7.26-7.28,14.53-14.57,21.81-21.87.09-.09.23-.08.31.02,4.86,6.21,4.47,15.61-1.93,21.37-6.29,5.66-15.07,4.94-20.18.78-.1-.08-.1-.22-.01-.31Z"/>
    <path class="cls-8" d="m951.68,163.46c-7.26,7.28-14.53,14.57-21.81,21.87-.09.09-.23.08-.31-.02-4.86-6.21-4.47-15.61,1.93-21.37,6.29-5.66,15.07-4.94,20.18-.78.1.08.1.22.01.31Z"/>
  </g>
  <g>
    <path class="cls-8" d="m920.8,798.51c.32.32.32.84,0,1.16-1.45,1.46-5.33,5.36-8.29,8.29-3.33,3.29-7.35,4.71-12,4.26-11.92-1.15-17.17-16.38-8.81-24.79,2.1-2.12,6.28-6.29,8.13-8.12.5-.5,1.3-.49,1.8,0,6.39,6.4,12.78,12.8,19.18,19.21Z"/>
    <path class="cls-8" d="m932.87,787.61c-2.85,2.88-5.73,5.73-8.59,8.6h0c-.18.18-.48.18-.66,0-6.7-6.71-13.35-13.36-20.03-20.05-.18-.18-.18-.47,0-.65.66-.65,1.29-1.27,1.92-1.9,2.17-2.16,4.35-4.31,6.5-6.5,2.62-2.66,5.76-4.2,9.49-4.53.06,0,.12-.02.17-.04.04-.01.09-.02.13-.02h1.69s.05,0,.07,0c.75.12,1.51.2,2.26.36,5.88,1.24,10.53,6.24,11.3,12.17.63,4.87-.79,9.06-4.24,12.55Z"/>
  </g>
  <g>
    <path class="cls-8" d="m932.18,823c7.26-7.28,14.53-14.57,21.81-21.87.09-.09.23-.08.31.02,4.86,6.21,4.47,15.61-1.93,21.37-6.29,5.66-15.07,4.94-20.18.78-.1-.08-.1-.22-.01-.31Z"/>
    <path class="cls-8" d="m951.68,798.8c-7.26,7.28-14.53,14.57-21.81,21.87-.09.09-.23.08-.31-.02-4.86-6.21-4.47-15.61,1.93-21.37,6.29-5.66,15.07-4.94,20.18-.78.1.08.1.22.01.31Z"/>
  </g>
  <path class="cls-11" d="m1043.05,335.57c-2.37.39-16.45-2.46-18.77-2.93-5.33-1.08-10.44-2.77-15.04-5.81-4.64-3.07-1.48-4.94-2.34-8.62-.69-2.95-.51-5.92-.51-8.89-.04-71.12-.65-79.04,3.98-76.4,3.18,1.81,5.25,4.61,6.97,7.73,5.45,9.84.57,20.54,7.06,46.66,1.59,6.4,4.42,12.27,8.57,17.34,16.23,19.87,36.91,4.51,53.96,21,.91.88-.37,1.72-1.55,2.16-6.98,2.58-14.04,4.92-21.3,6.65-6.52,1.55-16.18.31-21.02,1.11Z"/>
  <path class="cls-11" d="m1118.72,108.38c-3.99.44-8-.91-11.7-3.46-4.42-3.05-1.1-4.56-1.61-14.07-1.2-22.01-2.09-15.7-3.53-26.87-.61-4.72,8.84-3.69,16.48,11.7,9.48,19.08,13.45,7.24,32.44,7.31,12.17.05,11.19,4.9,22.08,6,2.31.23,5.9-1.16,6.17-.06.41,1.65-16.5,13.38-28.03,10.94-5.23-1.11-9.96.07-14.24,3.09-5.27,3.71-11.09,5.52-18.06,5.42Z"/>
  <path class="cls-11" d="m1026.64,103.87c-1.02-4.31-.89-8.21-.86-8.45.16-1.46.12-3.08,1.85-3.72,1.04-.38,1.97.65,2.65,2.98,1.76,5.99,1.38,7.35,3.9,10.54,1.63,2.07,10.88,15.6,21.07,18.26,8.89,2.32,9.04,5.11,18.31,2.73,7.84-2.01,9.48-3.81,11.62-2.67,1.88,1,2.21,3.41.56,4.71-.73.58-1.61,1-2.46,1.4-25.29,11.7-50.18,1.55-56.64-25.78Z"/>
  <path class="cls-9" d="m1152.3.87c94.12,0,60.06,1.32,162.94.66,3.45-.02,6.43.61,6.94,4.03.79,5.33.54-3.19.54,63.77-1.03,6.15-.08,12.45-1.32,18.59-.11.53-.13,1.08-.12,1.62.19,7.45-1,11-1.73,27.52-.25,5.73-2.15,6.41-5.66,6.66-9.74.7-137.09,3.11-157.49.3-2.08-.29-2.65.03-3.17,2.13-.29,1.17-.45,2.41-.42,3.61.23,10.27-1.21,7.57-.7,49.53.42,34.55,1.27,9.66-.18,45.41-.11,2.67-.69,9.15-1.76,12.83-1.11,3.81-6.01,3.03-5.68-2.46.2-3.28-.67-6.45-.87-9.69-.26-4.46-3.85-10.57-8.9-11.42-2.03-.34-3.57-1.27-5.12-4.18-9.16-17.18-8.31-15.57-11.28-21.59-2.1-4.25-.48-8.81,1.66-10.39,7.08-5.2,5.84-15.61,5.8-23.89-.02-4.36-2.91-2.21-3.89-8.13-1.42-8.59-5.54-15.75-11.63-21.85-2.58-2.58-5.06-5.24-8.38-6.99-3.12-1.65-2.19-2.59.9-9.97,1.01-2.42,1.81-4.04,4.62-3.25,12.88,3.63,14.73,5.65,19.64,2.18,7.58-5.36,20.61-11.09,28.78-7.19,3.82,1.82,11.48-1.56,15.14-3.18,4.02-1.79,3.82-5.59,10.08-9.25,1.62-.95,3.05-.66,3.74.98,1.5,3.58,4.56,5.6,7.39,7.87,3.73,3,8.02,5.03,12.28,7.09,13.39,6.47,20.89-1.26,37.85-4.67,7.62-1.53,13.64.77,28.44,5.09,4.28,1.25,8.49-1.16,14.95,3.8,2.93,2.25,6.52,3.26,10.11,4.04,2.68.58,4.84-.28,6.24-2.67,3.06-5.19,9.9-8.71,10.37-8.77,4.83-.62,4.25-5.97,4.89-8.54.67-2.67-.29-3.27-.98-5.87-2.99-11.18-10.95-17.29-21.34-20.88-2.18-.75-4.48-1.03-6.8-1.05-7.6-.08-7.58,4.47-17.72,2.9-5.51-.85-10.34-3.23-14.92-6.14-3.77-2.39-16.17-10.48-19.23-13.58-6.28-6.38-28.64-17.54-35.18-15.46-1.37.44-2.98-.21-4.27-.98-3.16-1.88-6.79-2.66-10.04-4.34-1.04-.54-2.34-.59-3.53-.85-4.56-.98-9.17-.71-13.76-.37-4.6.34-9.29,5.67-18.85,2.21-9.66-3.49-19.64-3.53-29.68-3.04-1.23.06-11.64,2.47-17.43,5.24-2.57,1.23-4.58-1.2-5.54-3.89-4.2-11.8-9.08-15.37-10.77-18.98-1.39-2.97,3.32-3.62,6.55-3.9,13.01-1.1,24.92-.84,58.48-.84,0,.06,0,.11,0,.17Z"/>
  <path class="cls-9" d="m1319.45,644.79c0,11.24.55,5.91-.85,27.98-.07,1.06-.36,2.15-.76,3.13-1.16,2.82-2.29,3.57-5.33,3.13-1.17-.17,1.07-.22-27.95.85-17.89.66-25.95-.25-37.69-1.26-3.46-.3-8.19,1.29-16.54,1.32-7.45.03-14.93.39-22.34-.2-7.79-.61-24.07-.41-25.95-.88-1.27-.32-2.38-.2-3.52.4-2.38,1.25-4.93-1.61-3.94-4.12,1.97-4.99,5.36-9.62,2.56-17.91-1.52-4.51-5.23-7.08-9.67-8.57-.82-.28-1.59.03-2.39.11-7.86.83-1.28-14.28-15.79-14.42-2.61-.03-5.1.64-7.63,1.04-2.2.34-2.7,3.95-5.92,1.22-1.95-1.65-2.96-3.33-6.56-5.41-3.16-1.83-2.36,1.5-7,1.77-.53.03-1.05.25-1.59.33-4.28.63-7.13,3.03-8.69,7.03-3.34,8.56-9.41-1.78-16.93,6.96-1.8,2.09-1.04,2.95-2.08,6.04-.86,2.55-2.01,2.89-4.19,1.2-12.77-9.89-18.15-33.11-18.12-49.25.06-32.95,12.45-59.8,24.09-71.07,2.23-2.16,4.39-4.41,6.62-6.57.77-.75,1.75-1.28,2.53-2.02,3.55-3.4,7.04,4.52,17.35,1.56,1.69-.49,3.31.68,3.12,2.24-.57,4.78.92,9.39.85,14.12-.1,7.85.42,15.74-.15,23.56-.77,10.63-.56,50.99-.53,51.16.32,1.88,1.38,2.76,3.34,2.87.67.04,1.37.1,2.03-.02,4.75-.85,1.95-.86,89.37-.76,154.13.18-9.19-.05,95.06.81,4.31.04,5.29,4.74,5.32,9.02.04,4.88.01,9.76.01,14.63-.05,0-.11,0-.16,0Z"/>
  <path class="cls-9" d="m1147.12,343.03c49.29,0-23.36-.98,141.29-.8,8.73,0,11.8-1.71,27.12.09,2.16.25,3.81,2.12,4.03,4.48.88,9.47,1.78,34.51,1.7,41.35-.07,6.39-1.26,13.51-7.34,13.72-5.1.18.92-.74-18.23-.85-17.48-.1-34.98-.45-52.43.27-13.55.56-27.07.17-40.61.53-19.35.51-15.6-2.95-26.27-1.38-4.6.67-9.19.46-13.78.62-2.72.1-5.36.76-8.07.82-1.18.03-1.56.9-1.58,1.97-.23,12.51.97,21.09-7.02,21.48-16.81.82-13.3,8.69-19.26-.38-9.32-14.18-16.38-3.47-11.06-18.06,2.11-5.79,1.04-11.29-1.73-15.13-5.89-8.2,8.76-11.19,10.38-38.57.16-2.68,1.04-5.32.34-8.06-.5-1.95,2.57-1.91,4.6-1.92,5.96-.02,11.93,0,17.89,0,0-.06,0-.12,0-.17Z"/>
  <g>
    <path class="cls-6" d="m1065.98,305.8c-2.21-.29-4.3-.75-5.69-2.71-.8-1.14-.83-2.26-.08-3.39,1.84-2.76,7.16-4.32,10.19-3,1.15.5,2.09,1.24,2.77,2.28.66,1,.69,2.03.03,3.04-1.71,2.62-4.3,3.55-7.24,3.78Z"/>
    <path class="cls-6" d="m1100.54,175.05c-.63.03-1.61-.38-2.46-1.12-1.09-.96-1.38-2.31-.81-3.68,1-2.42,4.28-4.45,6.88-4.21,1.61.15,2.74,1.07,3.44,2.51.63,1.29.06,2.35-.71,3.36-1.46,1.94-3.33,3.13-6.34,3.14Z"/>
    <path class="cls-6" d="m1093.45,54.19c1.03,3.99-4.77,7.42-7.81,5.09-4.02-3.08,6.19-11.39,7.81-5.09Z"/>
    <path class="cls-6" d="m1056.53,60.46c.79,4.04,7.5,4.65,9.24,1.24,2.31-4.51-10.49-7.62-9.24-1.24Z"/>
  </g>
  <g>
    <path class="cls-6" d="m1025.76,585.24c-.13,2.65-2.86,5.45-5.31,5.22-3.24-.31-5.11-2.11-5.18-5.63-.05-2.78,2.5-5,5.38-4.96,2.56.03,5.23,2.84,5.11,5.37Z"/>
    <path class="cls-6" d="m1027.38,533.57c-.04-2.95,2.27-4.92,5.57-5.11,2.66-.15,4.88,2.22,5.05,4.74.16,2.34-2.69,5.2-5.2,5.27-2.73.08-5.39-2.33-5.42-4.91Z"/>
    <path class="cls-6" d="m1019.01,547.72c2.52.01,5.05,2.4,5.1,4.82.05,2.54-2.62,5.32-5.12,5.32-2.6,0-5.19-2.55-5.25-5.17-.07-2.68,2.37-4.98,5.28-4.97Z"/>
    <path class="cls-6" d="m1073.23,539.46c0,2.94-1.89,4.78-4.86,4.7-2.7-.07-4.95-2.29-4.98-4.91-.04-2.98,2.14-5.17,5.07-5.09,3.06.08,4.77,1.98,4.78,5.31Z"/>
    <path class="cls-6" d="m1051.84,679.17c-.03,2.58-2.11,4.81-4.48,4.81-2.76,0-5.31-2.46-5.25-5.07.05-2.42,2.31-4.84,4.54-4.85,2.72-.02,5.23,2.45,5.2,5.11Z"/>
    <path class="cls-6" d="m1085.27,689.43c.09,2.44-2.16,4.94-4.43,4.92-2.3-.02-4.52-2.35-4.59-4.83-.07-2.4,1.93-4.68,4.11-4.68,2.23,0,4.83,2.42,4.91,4.59Z"/>
    <path class="cls-6" d="m1012.71,688.13c-.04-2.51,1.97-4.31,4.86-4.36,2.42-.04,4.07,1.53,4.21,3.99.15,2.58-2.22,5.05-4.81,5-2.18-.04-4.22-2.26-4.26-4.64Z"/>
    <path class="cls-6" d="m1025.09,672.69c-2.16-.02-3.88-1.68-3.91-3.77-.03-2.09,2.03-4.23,4.08-4.23,2.4,0,4.59,1.96,4.64,4.15.04,2.13-2.14,3.88-4.81,3.85Z"/>
    <path class="cls-6" d="m1062.62,576.5c.18,1.8-2.27,4.03-3.86,4-2.3-.04-4.51-2.17-4.48-4.36.03-2.16,1.97-3.82,4.39-3.76,2.46.06,4.05,1.72,3.95,4.12Z"/>
    <path class="cls-6" d="m1050.81,657.05c.1,1.91-1.78,3.65-3.97,3.66-1.8,0-3.45-1.6-3.68-3.58-.2-1.69,1.54-3.77,3.28-3.92,2.03-.17,4.26,1.79,4.37,3.85Z"/>
    <path class="cls-6" d="m1036.81,566.21c.09,1.9-1.91,3.75-4.03,3.74-1.82,0-3.54-1.7-3.71-3.65-.16-1.85,1.5-3.56,3.55-3.65,2.13-.1,4.1,1.57,4.19,3.56Z"/>
    <path class="cls-6" d="m1068.31,685.26c-.04,1.99-1.79,3.72-3.61,3.57-1.75-.14-3.71-2.13-3.68-3.74.03-1.67,2-3.47,3.84-3.51,1.93-.05,3.49,1.61,3.45,3.68Z"/>
    <path class="cls-6" d="m1062.52,557.78c.05,1.88-1.7,3.51-3.72,3.5-2.02-.02-3.74-1.69-3.68-3.57.05-1.67,2.13-3.74,3.74-3.72,1.62.02,3.62,2.08,3.67,3.79Z"/>
    <path class="cls-6" d="m1068.58,665.7c-.03,1.62-1.49,3.27-2.92,3.3-1.96.04-4.11-1.91-4.05-3.66.07-1.74,1.71-3.31,3.41-3.26,1.91.06,3.59,1.77,3.56,3.62Z"/>
  </g>
  <g>
    <path class="cls-6" d="m904.24,219.91c0-3.4.13-5.28.39-5.65.36-.42,1.49-.71,3.37-.86,1.93-.16,2.95-.29,3.06-.39.1-.1.2-.17.27-.2.08-.03.18-.01.31.04.13.05.26.12.39.2.13.08.3.17.51.27.21.11.42.21.63.31,2.25,1.1,3.63,2.56,4.16,4.39.26.94.39,3.92.39,8.94v7.53l1.88.39c2.77.58,7.16,2.64,13.17,6.2,6.43,3.76,10.67,6.51,12.7,8.23l1.73,1.49-.86,1.1c-.68.84-1.37,1.39-2.08,1.65-.7.26-1.9.39-3.57.39-1.83,0-3.5-.21-5.02-.63-2.09-.63-4.47-1.54-7.14-2.74-2.98-1.36-5.33-2.61-7.06-3.77-1.94-1.31-3.06-1.96-3.37-1.96-.58,0-.86,4.7-.86,14.12,0,3.76-.05,6.43-.16,8-.11,1.94-1.15,3.74-3.14,5.41-.99.84-1.88,1.25-2.67,1.25-.84,0-1.59-.5-2.27-1.49-.73-1.04-1.28-2.59-1.65-4.63-.68-3.76-1.41-11.84-2.2-24.23-.63-10.3-.94-18.09-.94-23.37Zm25.25.16c-.47-1.25-.29-1.88.55-1.88.94-.26,1.8-.39,2.59-.39,1.93,0,3.61.54,5.02,1.61,1.41,1.07,2.14,2.52,2.19,4.35.16.52.24,1.15.24,1.88,0,1.25-.25,2.38-.74,3.37-.5.99-1.16,1.49-2,1.49-.58,0-1.25-.31-2.04-.94-2.2-1.93-4.13-5.1-5.8-9.49Zm9.57-5.41c0-.68.57-1.05,1.73-1.1h.16c2.09,0,4.01.63,5.76,1.88,1.75,1.25,2.63,2.88,2.63,4.86,0,1.25-.42,2.35-1.25,3.29-.84.94-1.86,1.41-3.06,1.41-.63,0-1.13-.05-1.49-.16l-3.92-7.84-.47-1.88c0-.05-.01-.13-.04-.24-.03-.1-.04-.18-.04-.24Z"/>
    <path class="cls-6" d="m893.89,316.08c0-.78.68-1.85,2.04-3.22,1.46-1.36,3.45-2.35,5.96-2.98,2.61-.63,7.95-1.41,16-2.35,9.78-1.31,14.74-1.99,14.9-2.04.26-.1,2.48-.21,6.67-.31h2.04c1.57,0,2.72.05,3.45.16.84.21,1.61.56,2.31,1.06.71.5,1.06,1.06,1.06,1.69,0,.16-.04.41-.12.75s-.1.59-.08.74c.03.16.14.24.35.24l-4.86,10.98-22.98,31.84c-.26.31-.63.36-1.1.16-.42-.16-.63-.65-.63-1.49,0-.05.01-.2.04-.43.03-.24.04-.4.04-.51.31-3.66,1.23-7.32,2.74-10.98,1.83-4.44,3.71-8.55,5.65-12.31,2.3-4.44,3.87-7.76,4.7-9.96l.47-1.25-3.53.31c-6.64.63-12.5,1.25-17.57,1.88-2.98.42-5.38.71-7.22.86h-.78c-3.92,0-6.43-.47-7.53-1.41-.78-.68-1.31-1.02-1.57-1.02-.31,0-.47-.13-.47-.39Zm8.86-20.31c.26-1.83,1.07-3.28,2.43-4.35,1.36-1.07,3.15-1.8,5.37-2.2,2.22-.39,4.43-.64,6.63-.74,2.2-.1,4.71-.21,7.53-.31,2.82-.1,5.07-.29,6.74-.55.21-.21.71-.31,1.49-.31,1.78,0,3.67.38,5.69,1.14,2.01.76,3.02,1.71,3.02,2.86,0,.37-.13.76-.39,1.18-2.25,1.94-5.67,3.49-10.27,4.67-4.6,1.18-9.28,1.77-14.04,1.77-6.38,0-11.11-1.05-14.19-3.14Z"/>
    <path class="cls-6" d="m904.71,373.09c1.46-.37,2.93-.55,4.39-.55,2.98,0,5.5.81,7.57,2.43,2.07,1.62,3.38,3.9,3.96,6.82.42,2.67.63,4.23.63,4.71,0,2.93-1.46,4.39-4.39,4.39-.99,0-1.96-.26-2.9-.79-.94-.52-1.75-1.1-2.43-1.72-.68-.63-1.36-1.57-2.04-2.82s-1.22-2.27-1.61-3.06c-.39-.78-.85-1.96-1.37-3.53-.52-1.57-.86-2.6-1.02-3.1-.16-.5-.42-1.42-.78-2.78Zm14.86,43.64c-.13-.13-.21-.24-.24-.31-.03-.08-.01-.14.04-.2,2.72-2.04,5.16-4.16,7.33-6.35,2.17-2.2,3.96-4.23,5.37-6.12,1.41-1.88,2.82-4.16,4.23-6.82,1.41-2.67,2.55-4.98,3.41-6.94.86-1.96,2.04-4.69,3.53-8.19,1.49-3.5,2.81-6.48,3.96-8.94.78-.31,2.17-.47,4.16-.47,4.86,0,7.45.6,7.76,1.8-.26,4.65-2.31,10.27-6.16,16.86-3.84,6.59-7.75,12.03-11.72,16.31-3.82,4.13-6.2,6.56-7.14,7.29-1.62,1.25-3.92,1.99-6.9,2.2-.68.05-3.08.16-7.21.31-.16-.16-.3-.3-.43-.43Zm3.8-43.88c1.36-.16,2.77-.24,4.23-.24,6.59,0,9.88,1.99,9.88,5.96,0,.26-.05.76-.16,1.49v.63c0,1.83-.41,3.66-1.22,5.49-.81,1.83-1.84,2.74-3.1,2.74-2.72,0-4.68-.76-5.88-2.27l-3.76-13.8Z"/>
    <path class="cls-6" d="m888.87,477.15c0-.31.05-.78.16-1.41.42-2.14,1.4-5.32,2.94-9.53,1.54-4.21,3.5-8.36,5.88-12.47,2.38-4.1,4.48-6.16,6.31-6.16h.31c2.77,1.62,7.06,2.43,12.86,2.43,1.46,0,3.72-.07,6.78-.2,3.06-.13,5.35-.2,6.86-.2,7.63,0,12.91,1.41,15.84,4.23l1.65,1.41-2.59,5.57c-1.67,3.66-4.31,8.16-7.92,13.49-3.61,5.33-6.81,10.48-9.61,15.45-2.8,4.97-4.69,9.91-5.69,14.82-.16.89-.9,1.91-2.24,3.06-1.33,1.15-2.65,1.73-3.96,1.73-.84,0-1.52-.24-2.04-.71-.73-.63-1.1-1.54-1.1-2.74v-2.2l14.43-39.84c.16-.84.42-1.66.78-2.47.37-.81.55-1.29.55-1.45,0-.42-.86-.73-2.59-.94l-14.82-1.73c-.99,1.25-2.03,2.93-3.1,5.02-1.07,2.09-2.05,4.05-2.94,5.88-.89,1.83-1.92,3.65-3.1,5.45-1.18,1.8-2.63,3.31-4.35,4.51-1.73,1.2-3.68,1.94-5.88,2.2h-.55c-.84,0-1.53-.27-2.08-.82s-.82-1.35-.82-2.39Zm57.33-31.76c-.58-1.2-.39-1.8.55-1.8.68-.21,1.49-.31,2.43-.31,1.83,0,3.41.51,4.75,1.53,1.33,1.02,2.02,2.39,2.08,4.12.16.58.24,1.18.24,1.8,0,1.2-.24,2.26-.71,3.18-.47.91-1.13,1.37-1.96,1.37-.68,0-1.33-.29-1.96-.86-1.05-.94-2.07-2.27-3.06-4-.99-1.73-1.78-3.4-2.35-5.02Zm9.02-5.1c0-.68.57-1.05,1.72-1.1h.16c1.36,0,2.8.38,4.31,1.14,1.52.76,2.53,1.66,3.06,2.71.37.78.55,1.62.55,2.51,0,1.2-.42,2.26-1.25,3.18-.84.92-1.83,1.37-2.98,1.37-.26,0-.71-.05-1.33-.16l-3.61-7.45-.55-1.8c0-.05-.01-.12-.04-.2-.03-.08-.04-.14-.04-.2Z"/>
    <path class="cls-6" d="m895.15,535.11c-.42-.73-.42-1.23,0-1.49,1.15-.84,4.78-1.7,10.9-2.59l28.62-4.86c.05-.05.18-.08.39-.08.37,0,1.2.26,2.51.78,2.3.94,3.82,2.43,4.55,4.47.26.63.26,1.36,0,2.2l-15.21,26.58.39.24c.21.1.52.27.94.51.42.24.86.48,1.33.75,1.93.94,5.62,4.18,11.06,9.72,5.44,5.54,8.29,8.94,8.55,10.19.1.42.16,1.02.16,1.8,0,2.41-1.02,3.61-3.06,3.61-1.73,0-3.66-.68-5.8-2.04-4.55-2.98-9.41-6.98-14.59-12-2.77-2.77-4.47-4.16-5.1-4.16-.52,0-1.19.37-2,1.1-.81.73-1.7,1.71-2.67,2.94-.97,1.23-1.86,2.38-2.67,3.45-.81,1.07-1.66,2.26-2.55,3.57-.89,1.31-1.44,2.09-1.65,2.35-2.35,3.14-4.03,4.97-5.02,5.49-.94.47-1.57.7-1.88.7s-.68-.18-1.1-.55c-1.1-.94-1.65-2.3-1.65-4.08,0-1.52.52-3.66,1.57-6.43,1.73-4.44,5.58-11.47,11.57-21.1,5.99-9.62,9.34-15.11,10.08-16.47.31-.58.47-.99.47-1.25,0-.05-.03-.08-.08-.08s-.16.01-.31.04c-.16.03-.31.07-.47.12-6.43,1.78-12.52,2.67-18.27,2.67-.26,0-.63-.01-1.1-.04-.47-.03-.84-.04-1.1-.04-4.13-.21-6.19-1.59-6.19-4.16-.11-.68-.31-1.31-.63-1.88Z"/>
    <path class="cls-6" d="m904.79,614.08c0-3.87.03-6.64.08-8.31,3.03-.89,5.15-1.33,6.35-1.33s1.91.26,2.27.78c2.04,1.31,3.31,2.54,3.8,3.69.5,1.15.74,3.4.74,6.74v10.35l1.73.39c2.09.21,6.61,2.31,13.57,6.31,6.95,4,11.08,6.7,12.39,8.12l1.8,1.49-.86,1.1c-.68.78-1.4,1.32-2.16,1.61-.76.29-1.95.43-3.57.43-1.99-.05-4.14-.44-6.47-1.18-2.33-.73-4.23-1.48-5.72-2.24-1.49-.76-3.41-1.8-5.76-3.14-2.35-1.33-3.87-2.18-4.55-2.55-.05-.05-.11-.08-.16-.08-.31,0-.48,1.88-.51,5.65-.03,3.76-.09,7.73-.2,11.88-.11,4.16-.39,6.58-.86,7.25-1.67,2.72-3.35,4.08-5.02,4.08-.94,0-1.73-.47-2.35-1.41-1.52-3.92-2.65-10.64-3.41-20.15-.76-9.51-1.14-19.34-1.14-29.49Z"/>
    <path class="cls-6" d="m893.58,688.58c0-.94.63-1.65,1.88-2.12,4.6-1.67,10.36-3.15,17.29-4.43,6.93-1.28,13.53-1.92,19.8-1.92,8.1,0,14.3,1.15,18.59,3.45.63.94.94,2.07.94,3.37,0,2.25-.78,3.82-2.35,4.71l-13.25,17.33c-.37.63-1.2,1.28-2.51,1.96-1.31.68-2.47,1.45-3.49,2.31-1.02.86-1.53,1.9-1.53,3.1,0,13.49-6.07,23.34-18.19,29.56-.47.26-1.02.08-1.65-.55l-.94-.94,4.39-8.55c1.72-3.29,2.59-8.23,2.59-14.82,0-6.17-.65-11.06-1.96-14.66-.21-.58-.31-1.12-.31-1.65,0-1.31.61-2.3,1.84-2.98,1.23-.68,2.71-1.02,4.43-1.02,3.55,0,5.96.92,7.21,2.74.42.73.86,1.1,1.33,1.1.57,0,1.1-.69,1.57-2.08s.94-2.9,1.41-4.55c.47-1.65.94-2.68,1.41-3.1.84-1.67,1.25-2.8,1.25-3.37,0-.42-.29-.63-.86-.63-.26,0-1.4.18-3.41.55-2.01.37-3.99.6-5.92.71-3.76.21-7.65.56-11.65,1.06-4,.5-6.68.74-8.04.74-2.51,0-5.49-.57-8.94-1.73,0-.31-.16-.89-.47-1.73-.31-.84-.47-1.46-.47-1.88Z"/>
  </g>
  <path class="cls-13" d="m1151.95,746.99c0,17.88.12,20.26-.5,23.54-.88,4.62.85,3.74.64,19.03-.11,7.85-9.55,8.33-16.84,5.84-.92-.31-1.75-.82-1.93-1.89-.41-2.47,4.95-1.68,7.78-7.63,2.6-5.48-.19-8.33-3.46-14.17-1.54-2.75-2.99.26-5.94-3.57-.54-.7-7.03-8.89-7.82-9.31-3.59-1.9-5.31-5.36-7.11-8.66-5.11-9.41-9.71-19.06-12.88-29.33-1.25-4.04-3.38-7.68-5.04-11.53-.78-1.8-2.51-2.67-4.16-2.96-6.02-1.06-8.82-5.86-12.75-2.2-4.55,4.24-13.42,3.95-19.27,1.39-7.4-3.24-6.11-6.94-13.47-11.5-3.96-2.45-8.21-3.45-12.66-1.07-6.06,3.24-11.56,8.95-14.64,13.79-2.01,3.15-5.07,5.24-7.71,7.74-2.29,2.17-5.9,1.24-6.35-5.46-.93-13.79-.77-27.6-.89-41.41-.03-2.95.6-4.78,3.57-5.86,2.65-.96,2.94-1.23,5,.59,6.21,5.5,8.03,12.89,16.47,11.01,8.99-2,12.22-3.38,19.61-2.17,7,1.15,12.5,4.92,17.23,10.65,2.95,3.58,6.74,3.74,11.52,3.67,24.98-.36,30.68,26.48,59.18,37.16,2.47.92,5,1.08,7.59,1.08,4.99.01,4.99.04,4.99,4.93,0,6.1,0,12.19,0,18.29h-.17Z"/>
  <path class="cls-13" d="m1006.2,570.24c0-54.6-.62-57.32,4.75-57.92,9.78-1.1,11.04-1.62,11.74,2.57,3.43,20.52-4.08,34.69,7,50.1,11.41,15.87,29.33-1.41,41.02,15.55.92,1.33,1.29,2.67.79,4.19-1.11,3.39-.43,7.01-1.33,10.44-.19.73.17,1.59.24,2.39.53,5.61.62,6.35-.09,6.72-1.81.95-1.33-2.55-8.08-4.82-1.15-.39-2.4-.65-3.38-1.31-5.27-3.54-11.11,1.35-14.8,2.53-.69.22-1.29.98-1.75,1.61-2.97,4.07-3.06,6.75-6.25,4.92-1.27-.72-2.25-1.81-3.8-2.23-6.59-1.76-10.82,1.37-13.46,2.75-2.65,1.39-4.56,3.06-4.45,6.54.14,4.66-5.35,8.33-7.46,4.57-1.04-1.86-.52.97-.52-48.61h-.17Z"/>
  <path class="cls-13" d="m1010.27,395.42c1.95-2.05,3.67-4.32,5.89-6.11.59-.48,1.44-.13,1.51.6.08.81.08,1.62.11,2.43.6,16.91,24.34,2.71,34.93,21.05,2.08,3.6,2.64,7.3.49,11.17-2.05,3.69-3.26,11.8-9.26,7.11-1.52-1.19-3.69-3.7-8.24-3.85-16.07-.53-16.96,8.39-21.54,11.19-3.9,2.38-8.62.08-8.6-6.18.04-19.77-1.14-31.24,4.71-37.4Z"/>
  <path class="cls-2" d="m875.07,829.88c.06-58.08.11-116.25.17-174.46,0-58.21,0-116.47,0-174.73-.09-116.52-.19-233.03-.28-349.19-.03-16.41.22-16.41.29,0,.44,116.16.51,232.67.55,349.19-.02,58.26-.03,116.52-.05,174.73-.07,58.21-.11,116.38-.39,174.47-.04,4.88-.08,8.55-.14,10.99-.02,1.22-.05,2.14-.09,2.75-.02.3-.04.53-.05.69-.01.15-.02.22-.03.22,0,0-.01-.08-.02-.24,0-.15,0-.38,0-.69,0-.61,0-1.52,0-2.74,0-2.44.02-6.1.03-10.99Z"/>
  <path class="cls-2" d="m849.86,833.13c.06-58.08.11-116.25.17-174.46,0-58.21,0-116.47,0-174.73-.09-116.52-.18-233.03-.28-349.19-.03-16.41.22-16.41.29,0,.44,116.16.5,232.67.55,349.19-.02,58.26-.03,116.52-.05,174.73-.07,58.21-.11,116.38-.39,174.47-.04,4.88-.08,8.55-.14,10.99-.02,1.22-.05,2.14-.09,2.75-.02.3-.04.53-.05.69-.01.15-.02.22-.03.22,0,0-.01-.08-.02-.24,0-.15,0-.38,0-.69,0-.61,0-1.52,0-2.74,0-2.44.02-6.1.03-10.99Z"/>
  <path class="cls-2" d="m976.14,830.74c-.18-115.77-.26-231.9-.33-348.02-.06-116.13-.11-232.25-.06-348.01.01-16.35.26-16.35.29,0,.18,115.76.27,231.89.33,348.01.06,116.13.11,232.25.06,348.02-.02,19.47-.26,19.47-.3,0Z"/>
  <path class="cls-2" d="m864.34,825.95c-.04-115.12-.09-230.59-.14-346.06.05-115.47.09-230.94.14-346.06.02-16.26.27-16.26.29,0,.05,115.11.09,230.58.14,346.06-.05,115.47-.09,230.95-.14,346.06-.03,19.36-.27,19.36-.3,0Z"/>
  <path class="cls-2" d="m1005.83,1141.89c-.05-60.03,0-120.25.06-180.47.07-60.22.16-120.44.33-180.47.03-8.48.28-8.48.29,0,.05,60.03,0,120.25-.06,180.47-.07,60.22-.16,120.44-.33,180.47-.04,10.09-.28,10.09-.3,0Z"/>
  <path class="cls-2" d="m1048.1,972.05c43.89-.11,87.91-.13,131.93-.14,44.02,0,88.04.03,131.92.14,6.2.02,6.2.27,0,.3-43.88.11-87.9.13-131.92.14-44.02,0-88.04-.02-131.93-.14-7.38-.03-7.38-.27,0-.3Z"/>
  <path class="cls-2" d="m1077.38,1051.08c-.11-6.38-.13-12.78-.14-19.18,0-6.4.03-12.8.14-19.18.02-.9.27-.9.29,0,.11,6.38.13,12.78.14,19.18,0,6.4-.02,12.8-.14,19.18-.03,1.07-.27,1.07-.3,0Z"/>
  <path class="cls-2" d="m1074.17,1007.72c-6.39-3.66-12.36-8.14-17.63-13.34-5.28-5.19-9.85-11.09-13.67-17.38-.54-.89-.33-1.02.25-.16,4.01,6.15,8.57,11.97,13.83,17.13,5.23,5.17,11.12,9.65,17.38,13.49,1.04.66.92.87-.15.26Z"/>
  <path class="cls-2" d="m1147.35,1007.85c-6.6-3.35-12.6-7.92-17.8-13.22-5.21-5.31-9.66-11.31-13.5-17.63-.54-.89-.33-1.02.25-.16,4.02,6.18,8.48,12.12,13.66,17.38,5.16,5.27,11.07,9.83,17.53,13.36.28.14.45.32.55.31.15.01.24.04.24.08,0,.03-.06.07-.23.11-.07.04-.26-.01-.34-.06-.11-.05-.23-.11-.37-.18Z"/>
  <path class="cls-2" d="m1053.73,1053.36c43.36-.11,86.86-.13,130.36-.14,43.5,0,87,.03,130.36.14,6.12.02,6.12.27,0,.29-43.36.11-86.86.13-130.36.14-43.5,0-87-.02-130.36-.14-7.29-.03-7.29-.27,0-.3Z"/>
  <path class="cls-2" d="m1056.26,1037.1c37.64-.11,75.39-.13,113.14-.14,37.75,0,75.5.03,113.13.14,5.32.02,5.32.27,0,.29-37.63.11-75.38.13-113.13.14-37.75,0-75.5-.02-113.14-.14-6.33-.03-6.33-.27,0-.3Z"/>
  <path class="cls-2" d="m1006.23,461.71c-.11-37.24-.13-74.6-.14-111.96,0-37.36.03-74.72.14-111.96.02-5.26.27-5.26.29,0,.11,37.24.13,74.6.14,111.96,0,37.36-.02,74.72-.14,111.96-.03,6.26-.27,6.26-.3,0Z"/>
  <path class="cls-2" d="m1006.23,719.99c-.11-33.21-.13-66.52-.14-99.83,0-33.31.03-66.62.14-99.82.02-4.69.27-4.69.29,0,.11,33.21.13,66.51.14,99.82,0,33.31-.02,66.62-.14,99.83-.03,5.58-.27,5.58-.3,0Z"/>
  <path class="cls-2" d="m1006.22,181.01c-.11-25.66-.22-51.39-.33-77.12-.02-25.73-.04-51.47-.06-77.12.01-3.62.26-3.62.3,0,.11,25.65.22,51.39.33,77.12.02,25.73.04,51.47.06,77.12-.02,4.31-.26,4.32-.3,0Z"/>
  <path class="cls-2" d="m1016.71,711.51c2.56-2.1,4.66-4.7,6.77-7.26,2.11-2.57,4.25-5.13,6.52-7.57,1.14-1.22,2.26-2.44,3.5-3.6,1.28-1.13,2.83-1.91,4.45-2.4,1.62-.48,3.34-.68,5.04-.49,1.69.17,3.38.8,4.68,1.94,1.32,1.17,2.08,2.66,3.2,3.88l.8.95.85.9c.55.62,1.17,1.17,1.77,1.73,2.44,2.22,5.2,4.14,8.26,5.37,3.04,1.24,6.39,1.81,9.64,1.33.8-.16,1.6-.34,2.39-.56.76-.31,1.56-.53,2.28-.92.73-.4,1.44-.76,2.18-1.18.72-.44,1.5-.79,2.28-1.13,1.58-.61,3.29-.96,5.01-.88,1.71.08,3.39.6,4.88,1.43,2.98,1.7,5.21,4.39,6.92,7.27,1.72,2.89,3.05,5.96,4.37,9.03,1.3,3.07,2.55,6.16,3.87,9.21,2.61,6.12,5.53,12.11,9.03,17.76,3.49,5.65,7.57,10.94,12.28,15.62,2.66,2.64,2.49,2.83-.21.21-4.76-4.66-8.9-9.94-12.44-15.6-3.54-5.66-6.5-11.66-9.13-17.79-1.33-3.06-2.6-6.14-3.9-9.21-1.32-3.05-2.66-6.11-4.35-8.95-1.68-2.82-3.87-5.44-6.72-7.06-1.42-.8-3.01-1.28-4.63-1.36-1.62-.08-3.25.25-4.77.84-.75.33-1.5.66-2.2,1.09-.7.4-1.48.8-2.22,1.2-.74.4-1.57.63-2.35.95-.81.23-1.65.42-2.48.58-3.37.49-6.82-.1-9.93-1.37-3.13-1.27-5.93-3.23-8.41-5.49-.62-.57-1.24-1.14-1.8-1.76l-.86-.92-.81-.97c-1.12-1.24-1.94-2.78-3.13-3.83-1.21-1.07-2.79-1.67-4.4-1.84-1.62-.18-3.27,0-4.84.46-1.57.46-3.06,1.21-4.29,2.28-1.2,1.11-2.34,2.35-3.48,3.55-2.28,2.42-4.43,4.95-6.55,7.51-2.13,2.54-4.26,5.15-6.87,7.25-.88.7-1.57,1.19-2.05,1.47-.48.29-.73.42-.75.4-.05-.08.89-.69,2.61-2.1Z"/>
  <path class="cls-2" d="m1081.88,650.19c-9.78-19.7-13.91-42.43-10.73-64.36,1.57-10.94,4.93-21.64,9.97-31.47,5.03-9.83,11.74-18.8,19.82-26.29,2.29-2.1,2.45-1.91.2.22-7.97,7.55-14.59,16.51-19.56,26.31-4.98,9.8-8.3,20.44-9.86,31.32-3.17,21.81.88,44.4,10.43,64.15,1.59,3.33,1.37,3.45-.27.13Z"/>
  <path class="cls-2" d="m857.19,849.26c19.53-.11,39.13-.13,58.72-.14,19.59,0,39.19.03,58.72.14,2.76.02,2.76.27,0,.3-19.53.11-39.13.13-58.72.14-19.59,0-39.19-.02-58.72-.14-3.28-.03-3.28-.27,0-.3Z"/>
  <path class="cls-2" d="m1314.86,1010c-38.93.03-77.98.28-117.03.42-39.05.14-78.11.17-117.03-.38-5.5-.08-5.49-.33,0-.29,38.93.32,77.98.25,117.03.1,39.05-.14,78.1-.35,117.04-.15,6.55.04,6.55.28,0,.3Z"/>
  <path class="cls-2" d="m855.52,109.35c19.14.25,38.34.24,57.55.29,9.6,0,19.2,0,28.8,0,9.59-.03,19.18,0,28.75-.22,2.67-.15,2.74.09.01.29-9.57.33-19.16.37-28.76.44-9.59.02-19.2.04-28.8.05-19.2-.06-38.41-.09-57.55-.56-3.22-.11-3.21-.36,0-.3Z"/>
  <path class="cls-2" d="m1058.52,187.96c2.18-1.03,4.54-1.62,6.92-1.99.6-.09,1.2-.08,1.8-.13.6-.02,1.21-.11,1.81-.06,1.2.08,2.42.06,3.6.27,4.79.59,9.4,2.05,14.08,2.99,4.67.97,9.5,1.37,14.19.5,4.67-.88,9.17-2.75,13.01-5.56,3.85-2.79,6.98-6.56,8.97-10.88,2.02-4.32,2.83-9.13,2.73-13.88-.03-2.38-.33-4.76-.8-7.09-.45-2.34-1.11-4.64-1.91-6.89-1.58-4.51-3.72-8.81-6.22-12.87-1.41-2.3-1.21-2.44.25-.16,2.56,4.05,4.75,8.36,6.38,12.88.82,2.26,1.5,4.58,1.97,6.94.49,2.36.8,4.76.85,7.18.12,4.82-.69,9.72-2.74,14.13-2.02,4.41-5.22,8.26-9.14,11.11-3.92,2.86-8.49,4.75-13.25,5.64-4.78.89-9.69.45-14.39-.54-4.71-.97-9.3-2.44-14.03-3.07-1.18-.21-2.37-.21-3.56-.3-.59-.06-1.19.03-1.78.04-.59.04-1.19.03-1.78.11-2.35.34-4.68.9-6.85,1.89-2.91,1.33-3.05,1.12-.12-.27Z"/>
  <path class="cls-2" d="m1080.01,3.75c4.83,1.12,9.22,3.88,12.35,7.73,3.15,3.85,4.99,8.57,6.33,13.28.7,2.34,1.57,4.64,2.71,6.78.57,1.08,1.24,2.08,1.98,3.04.76.95,1.59,1.84,2.44,2.73,1.71,1.77,3.28,3.75,4.45,5.93.58,1.09,1.14,2.2,1.6,3.35.25.56.49,1.13.68,1.75.16.62.26,1.25.28,1.89.05,2.55-1.03,5.06-2.83,6.83-.9.88-1.99,1.62-3.22,1.98-1.22.38-2.56.41-3.79.05-1.23-.37-2.32-1.08-3.25-1.93-.92-.87-1.66-1.88-2.33-2.93-1.29-2.14-2.16-4.48-2.86-6.84-1.4-4.74-2.08-9.62-3.17-14.39-.54-2.38-1.17-4.75-2.06-7.02-.89-2.26-2.08-4.43-3.8-6.15-2.05-1.8-1.93-2.03.21-.21,1.78,1.74,3.02,3.94,3.94,6.22.93,2.29,1.58,4.67,2.14,7.06,1.12,4.78,1.83,9.66,3.24,14.34.71,2.33,1.57,4.63,2.83,6.7.65,1.02,1.37,2,2.24,2.82.88.81,1.9,1.46,3.03,1.8,1.13.33,2.35.3,3.47-.05,1.13-.34,2.14-1.02,2.99-1.85,1.7-1.66,2.71-4.04,2.66-6.41,0-1.2-.38-2.31-.91-3.43-.46-1.13-1.01-2.22-1.58-3.3-1.15-2.15-2.67-4.06-4.36-5.82-.84-.89-1.69-1.8-2.46-2.77-.76-.99-1.45-2.03-2.02-3.13-1.16-2.19-2.03-4.52-2.73-6.89-1.32-4.71-3.11-9.34-6.17-13.16-3.03-3.79-7.36-6.56-12.05-7.7-.8-.09-1.43-.07-1.84-.14-.42-.06-.61-.15-.6-.18,0-.04.21-.02.62-.01.41.02,1.02-.04,1.86.04Z"/>
  <path class="cls-2" d="m1011.35,57.73c2,4.23,6.06,7.16,10.49,8.37,2.21.59,4.62.65,6.71-.25,2.11-.87,3.77-2.63,4.81-4.65,1.06-2.02,1.47-4.38,1.16-6.63-.14-1.12-.58-2.2-.95-3.31-.38-1.1-.79-2.19-1.2-3.28-.83-2.18-1.73-4.34-2.52-6.55-.78-2.2-1.51-4.49-1.59-6.89-.15-2.41.77-4.81,2.19-6.7,1.44-1.89,3.21-3.52,5.26-4.73,2.04-1.24,4.41-1.87,6.78-2,2.37-.1,4.72.21,7.02.64,4.59.86,9.15,1.99,13.8,1.89,4.64-.05,9.21-1.37,13.28-3.6,2.27-1.31,2.41-1.1.14.26-4.07,2.3-8.7,3.69-13.41,3.77-4.72.14-9.33-.97-13.9-1.81-2.29-.42-4.6-.72-6.9-.61-2.29.14-4.56.74-6.52,1.94-1.97,1.17-3.7,2.77-5.08,4.59-1.37,1.82-2.22,4.05-2.08,6.35.08,2.29.78,4.53,1.56,6.71.79,2.19,1.68,4.35,2.51,6.54.41,1.1.83,2.19,1.2,3.3.36,1.1.82,2.21.97,3.41.33,2.37-.12,4.83-1.23,6.95-1.1,2.1-2.85,3.94-5.08,4.85-2.23.94-4.75.85-7.01.23-1.15-.3-2.25-.74-3.3-1.28-1.05-.53-2.05-1.16-2.97-1.9-.92-.73-1.78-1.55-2.51-2.48-.72-.94-1.31-1.96-1.86-2.99-1.46-2.77-1.25-2.89.26-.14Z"/>
  <path class="cls-2" d="m1018.5,357.22c.28.02.58.17.8.27l.73.33,1.46.66c.98.42,1.99.79,2.98,1.19l3.04,1.03,3.09.87c4.15,1.06,8.41,1.73,12.68,2.06,8.56.66,17.21,0,25.63-1.65,8.43-1.65,16.67-4.28,24.51-7.78,7.84-3.5,15.3-7.88,22.02-13.21,1.89-1.51,2.06-1.32.19.23-6.67,5.44-14.14,9.89-21.99,13.45-7.86,3.55-16.14,6.21-24.62,7.87-8.47,1.66-17.17,2.31-25.78,1.61-4.3-.35-8.58-1.05-12.75-2.15l-3.11-.91-3.05-1.07c-1-.41-2-.79-2.99-1.23l-1.46-.69c-.49-.2-.97-.53-1.44-.6-.68-.06-1.3-.12-1.6-.41-.29-.26-.33-.47-.31-.47.04-.03.14.14.42.32.29.2.79.21,1.54.26Z"/>
  <path class="cls-2" d="m1089.55,949.83c-1.73-4.14-3.65-8.21-5.91-12.08-2.29-3.85-4.91-7.52-8.03-10.75-1.52-1.65-3.21-3.13-4.91-4.59-1.74-1.42-3.54-2.75-5.38-4.05-3.68-2.6-7.28-5.37-10.51-8.55-3.23-3.17-6.07-6.78-8.16-10.81-2.17-4-3.37-8.42-4.46-12.78-2.17-8.75-3.45-17.77-3.11-26.77.12-2.54.37-2.52.29,0-.22,8.98,1.12,17.94,3.32,26.64,1.1,4.36,2.3,8.71,4.45,12.65,2.06,3.97,4.87,7.53,8.07,10.67,3.2,3.15,6.77,5.9,10.43,8.5,1.84,1.3,3.66,2.65,5.41,4.08,1.71,1.48,3.4,2.98,4.93,4.65,3.13,3.27,5.76,6.99,8.03,10.88,2.23,3.92,4.13,8.02,5.81,12.19,1.12,2.81.89,2.9-.28.11Z"/>
  <path class="cls-2" d="m1021.04,812.92c1,.5,1.92,1.18,2.85,1.74.46.31.99.48,1.48.72.5.23,1.04.33,1.56.5,2.14.52,4.39.2,6.44-.58,2.06-.77,3.95-1.96,5.73-3.27,1.78-1.32,3.47-2.77,5.16-4.22,1.68-1.46,3.36-2.94,5.13-4.31,1.78-1.36,3.67-2.64,5.84-3.4,1.09-.31,2.25-.57,3.41-.4,1.15.15,2.28.55,3.21,1.23.5.3.92.69,1.34,1.08.44.37.81.82,1.16,1.27.68.92,1.21,1.93,1.68,2.95.95,2.04,1.64,4.16,2.79,6.05,1.1,1.92,2.4,3.72,4,5.23,1.59,1.51,3.52,2.66,5.61,3.29,2.09.65,4.33.75,6.51.48.54-.09,1.09-.14,1.63-.26l1.62-.35,1.66-.33c.56-.09,1.13-.09,1.69-.14,2.27-.07,4.58.56,6.44,1.87,1.88,1.27,3.41,2.93,4.93,4.55,1.52,1.62,3.05,3.24,4.83,4.55,2.06,1.39,1.96,1.62-.17.24-3.68-2.6-6.17-6.52-9.82-8.98-1.81-1.25-4.01-1.83-6.19-1.75-2.19.01-4.3.88-6.56,1.11-2.23.28-4.55.2-6.73-.48-2.18-.66-4.19-1.85-5.83-3.41-1.65-1.56-2.99-3.41-4.11-5.36-1.18-1.94-1.89-4.09-2.82-6.09-.46-1-.98-1.98-1.62-2.85-.33-.43-.67-.85-1.09-1.2-.4-.37-.8-.74-1.26-1.02-.87-.64-1.91-.99-2.96-1.14-1.06-.16-2.14.08-3.18.37-2.06.71-3.92,1.96-5.68,3.3-1.76,1.35-3.43,2.82-5.13,4.27-1.69,1.45-3.4,2.9-5.21,4.22-1.81,1.31-3.74,2.51-5.86,3.29-2.11.78-4.46,1.09-6.67.53-.54-.18-1.1-.3-1.61-.54-.5-.26-1.04-.44-1.51-.76-.97-.6-1.84-1.26-2.82-1.77-2.64-1.41-2.52-1.63.14-.26Z"/>
  <path class="cls-2" d="m1014.43,391.55c2.53-3.13,5.61-5.79,8.97-8.01,3.36-2.22,6.97-4.05,10.71-5.54,7.49-2.97,15.44-4.68,23.45-5.47,8.01-.78,16.13-.56,24.07.72,7.92,1.31,15.77,3.7,22.6,7.97,1.91,1.23,1.76,1.43-.16.25-6.84-4.14-14.65-6.45-22.53-7.72-7.9-1.24-15.97-1.44-23.94-.66-7.96.78-15.86,2.47-23.31,5.38-7.39,2.93-14.5,7.11-19.64,13.26-1.68,2.08-1.89,1.95-.23-.19Z"/>
  <path class="cls-2" d="m1018.51,330.06c3.84.82,7.64,1.81,11.47,2.59,1.92.39,3.84.75,5.79.97l2.91.38c.97.1,1.95.16,2.93.25,7.81.6,15.7.4,23.46-.69,7.77-1.07,15.43-2.93,22.77-5.69,7.34-2.72,14.3-6.51,20.42-11.38,1.74-1.36,1.91-1.17.19.23-6.07,4.99-13.05,8.86-20.42,11.64-7.36,2.81-15.07,4.69-22.87,5.77-7.81,1.09-15.74,1.28-23.58.64-.98-.09-1.96-.16-2.94-.26l-2.93-.4c-1.95-.23-3.89-.61-5.81-1.02-3.85-.82-7.63-1.85-11.45-2.73-2.57-.57-2.52-.82.06-.29Z"/>
  <path class="cls-2" d="m1123.73,338.5c-.11-14.85-.13-29.74-.14-44.63,0-14.89.03-29.78.14-44.63.02-2.1.27-2.1.3,0,.11,14.84.13,29.74.14,44.63,0,14.89-.02,29.78-.14,44.63-.03,2.5-.27,2.5-.3,0Z"/>
  <path class="cls-2" d="m1123.73,615.79c-.11-14.85-.13-29.74-.14-44.63,0-14.89.03-29.78.14-44.63.02-2.1.27-2.1.3,0,.11,14.84.13,29.74.14,44.63,0,14.89-.02,29.78-.14,44.63-.03,2.5-.27,2.5-.3,0Z"/>
  <path class="cls-2" d="m1123.73,893.89c-.11-14.85-.13-29.74-.14-44.63,0-14.89.03-29.78.14-44.63.02-2.1.27-2.1.3,0,.11,14.84.13,29.74.14,44.63,0,14.89-.02,29.78-.14,44.63-.03,2.5-.27,2.5-.3,0Z"/>
  <path class="cls-2" d="m1106.77,26.41c6.53-3.05,13.6-5.25,20.89-5.54,3.64-.13,7.28.2,10.85.91,3.57.69,7.05,1.73,10.55,2.59,3.49.87,7.07,1.5,10.65,1.29,1.79-.09,3.56-.39,5.28-.89,1.73-.49,3.49-1.02,5.28-1.32,3.58-.67,7.26-.77,10.86-.36,3.61.43,7.14,1.37,10.5,2.7,1.89.78,1.79,1.01-.11.28-3.36-1.27-6.87-2.16-10.45-2.54-3.57-.37-7.2-.24-10.72.44-1.78.3-3.48.83-5.23,1.33-1.75.52-3.57.83-5.39.93-3.66.22-7.3-.42-10.82-1.29-3.52-.87-6.99-1.91-10.52-2.6-3.53-.71-7.13-1.05-10.72-.94-7.2.26-14.23,2.36-20.78,5.3-2.21.99-2.32.77-.12-.27Z"/>
  <path class="cls-2" d="m1045.85,585.68c-1.94-15.13-.21-30.86,5.43-45.14,2.81-7.13,6.56-13.92,11.31-19.94,4.74-5.99,10.51-11.35,17.47-14.62,1.99-.86,2.07-.63.13.27-6.84,3.34-12.52,8.7-17.19,14.68-4.68,6-8.39,12.75-11.18,19.84-5.61,14.19-7.38,29.79-5.67,44.9.28,2.54.03,2.58-.3.04Z"/>
  <path class="cls-2" d="m1110.69,104.97c2.8.97,5.61,2.07,8.56,2.26,2.95.21,5.83-.75,8.58-1.81,5.48-2.23,10.84-5.17,16.85-6.07.75-.11,1.49-.23,2.25-.26l1.13-.08c.38,0,.75,0,1.13,0,1.52,0,2.97.13,4.47.07,2.96-.06,5.92-.43,8.79-1.19,5.75-1.48,11.07-4.37,15.67-8.11,1.3-1.05,1.47-.87.19.23-4.55,3.85-9.91,6.84-15.73,8.38-2.9.79-5.9,1.17-8.91,1.25-1.49.07-3.02-.07-4.49-.06-.37,0-.74-.02-1.11,0l-1.1.08c-.74.03-1.47.14-2.2.26-5.89.88-11.21,3.77-16.75,5.99-2.78,1.05-5.74,2.02-8.8,1.76-3.04-.24-5.85-1.4-8.63-2.42-1.88-.68-1.8-.92.1-.28Z"/>
  <path class="cls-2" d="m1083.14,124.26c-5.34,1.94-11.14,2.69-16.83,2.17-5.69-.51-11.26-2.31-16.22-5.16-4.97-2.85-9.3-6.73-12.81-11.22l-1.32-1.69c-.45-.56-.78-1.19-1.18-1.78l-1.15-1.81-.57-.9c-.17-.31-.33-.63-.49-.95l-1.93-3.81-1.58-3.96c-.59-1.49-.35-1.57.28-.11l1.64,3.91,1.98,3.75c.17.31.32.63.5.93l.58.89,1.15,1.78c.4.58.74,1.21,1.18,1.76l1.32,1.66c3.51,4.42,7.79,8.24,12.69,11.05,4.89,2.82,10.37,4.6,15.98,5.14,5.61.56,11.34-.12,16.68-1.93,1.81-.58,1.91-.35.1.28Z"/>
  <path class="cls-2" d="m983.64,230.44c9.9-.11,19.82-.13,29.75-.14,9.93,0,19.85.03,29.75.14,1.4.02,1.4.27,0,.29-9.9.11-19.82.13-29.75.14-9.93,0-19.86-.02-29.75-.14-1.66-.03-1.66-.27,0-.3Z"/>
  <path class="cls-2" d="m983.64,512.61c9.9-.11,19.82-.13,29.75-.14,9.93,0,19.85.03,29.75.14,1.4.02,1.4.27,0,.3-9.9.11-19.82.13-29.75.14-9.93,0-19.86-.02-29.75-.14-1.66-.03-1.66-.27,0-.3Z"/>
  <path class="cls-2" d="m982.81,728.1c9.77-.11,19.56-.13,29.36-.14,9.8,0,19.59.03,29.36.14,1.38.02,1.38.27,0,.3-9.77.11-19.56.13-29.36.14-9.8,0-19.59-.02-29.36-.14-1.64-.03-1.64-.27,0-.3Z"/>
  <path class="cls-2" d="m983.59,201.17c9.51-.11,19.04-.13,28.58-.14,9.54,0,19.07.03,28.58.14,1.34.02,1.34.27,0,.29-9.51.11-19.04.13-28.58.14-9.54,0-19.07-.02-28.58-.14-1.6-.03-1.6-.27,0-.3Z"/>
  <path class="cls-2" d="m983.59,483.34c9.51-.11,19.04-.13,28.58-.14,9.54,0,19.07.03,28.58.14,1.34.02,1.34.27,0,.29-9.51.11-19.04.13-28.58.14-9.54,0-19.07-.02-28.58-.14-1.6-.03-1.6-.27,0-.3Z"/>
  <path class="cls-2" d="m987.63,771.21c9.24.03,18.51-.26,27.79-.44,9.27-.18,18.57-.24,27.81.38,1.3.09,1.29.34-.02.29-9.23-.4-18.51-.29-27.78-.11-9.27.18-18.55.42-27.81.17-1.56-.05-1.55-.29,0-.3Z"/>
  <path class="cls-2" d="m1126.36,513.42c-2.17-1.4-4.08-3.37-5.04-5.84-.98-2.46-.92-5.25-.08-7.74.84-2.47,2.35-4.81,4.56-6.3,2.19-1.51,4.94-2.12,7.56-1.83,2.63.28,5.16,1.41,7.1,3.22,1.95,1.79,3.23,4.29,3.56,6.91.72,5.26-2.62,10.78-7.64,12.42-1.44.37-1.46.11-.09-.28,4.83-1.69,7.95-7.08,7.22-12.07-.33-2.5-1.56-4.87-3.42-6.57-1.85-1.71-4.27-2.79-6.78-3.06-2.5-.28-5.11.3-7.19,1.72-2.1,1.41-3.55,3.63-4.39,6.01-.82,2.38-.91,5.05,0,7.42.89,2.38,2.69,4.32,4.8,5.75,1.44.93,1.33,1.15-.17.25Z"/>
  <path class="cls-2" d="m1042.9,1142.77c9.11-.46,18.26-.59,27.41-.55,9.15.04,18.29.25,27.41.57,1.29.05,1.28.3,0,.29-9.12-.1-18.26-.26-27.4-.3-9.14-.04-18.28.04-27.4.28-1.53.03-1.54-.22-.01-.3Z"/>
  <path class="cls-2" d="m1042.09,1088.33c9.12-.11,18.26-.13,27.4-.14,9.14,0,18.29.03,27.4.14,1.29.02,1.29.27,0,.3-9.12.11-18.26.13-27.4.14-9.14,0-18.29-.02-27.4-.14-1.53-.03-1.53-.27,0-.3Z"/>
  <path class="cls-2" d="m986.79,470.3c9.12-.3,18.27-.47,27.42-.57,4.57-.05,9.15-.07,13.72-.04,4.57.06,9.14.03,13.71.46.65.08.97.28.93.33-.04.06-.33.02-.96-.04-4.53-.31-9.11-.22-13.67-.24-4.57.03-9.14.07-13.72.1-9.15.1-18.29.2-27.42.3-1.53,0-1.54-.24,0-.3Z"/>
  <path class="cls-2" d="m986.79,188.14c9.12-.3,18.27-.47,27.42-.57,4.57-.05,9.15-.07,13.72-.04,4.57.06,9.14.03,13.71.46.65.08.97.28.93.33-.04.06-.33.02-.96-.04-4.53-.31-9.11-.22-13.67-.24-4.57.03-9.14.07-13.72.1-9.15.1-18.29.2-27.42.3-1.53,0-1.54-.24,0-.3Z"/>
  <path class="cls-2" d="m987.57,741.88c8.85-.5,17.74-.56,26.63-.54,8.88.06,17.76.12,26.62.19,1.25.01,1.25.26,0,.29-8.86.2-17.74.12-26.63.09-8.88-.03-17.76,0-26.61.27-1.49.04-1.5-.21-.01-.3Z"/>
  <path class="cls-2" d="m1099.07,115.75c4.16-7.34,5.97-15.81,6.3-24.21.33-8.44-.77-16.88-2.57-25.11-.24-1.17,0-1.23.29-.07,2.03,8.2,3.18,16.7,2.85,25.2-.33,8.46-2.22,17.05-6.61,24.34-.72,1.23-.93,1.09-.26-.15Z"/>
  <path class="cls-2" d="m1102.59,1141.13c-.11-8.07-.13-16.17-.14-24.27,0-8.1.03-16.2.14-24.27.02-1.14.27-1.14.3,0,.11,8.07.13,16.17.14,24.27,0,8.1-.02,16.2-.14,24.27-.03,1.36-.27,1.36-.3,0Z"/>
  <path class="cls-2" d="m1035.91,1140.35c-.11-7.81-.13-15.65-.14-23.49,0-7.84.03-15.68.14-23.49.02-1.1.27-1.1.3,0,.11,7.81.13,15.65.14,23.49,0,7.84-.02,15.68-.14,23.49-.03,1.31-.27,1.31-.3,0Z"/>
  <path class="cls-2" d="m1123.78,716.13c-3.28-3.24-7.09-6-10.03-9.68-2.91-3.62-5.75-7.32-8.4-11.15-5.3-7.65-9.92-15.85-12.98-24.63-.43-1.24-.2-1.32.28-.1,3.26,8.67,7.89,16.78,13.17,24.4,2.64,3.82,5.46,7.51,8.33,11.15,2.85,3.64,6.61,6.44,9.84,9.79,1.07,1.15.88,1.31-.21.21Z"/>
  <path class="cls-2" d="m1106.48,901.19c-7.12-4.84-13.86-10.61-18.62-17.94-1.2-1.82-2.25-3.72-3.29-5.62-1.03-1.91-2.01-3.85-2.88-5.84-1.74-3.97-3.01-8.19-3.39-12.51-.1-1.22.15-1.23.29-.03.49,4.27,1.8,8.41,3.57,12.34.88,1.97,1.86,3.89,2.9,5.78,1.04,1.89,2.1,3.78,3.28,5.57,4.7,7.25,11.34,13,18.32,18.01,1.17.85,1.03,1.06-.17.25Z"/>
  <path class="cls-2" d="m1017.63,121.6c2.15.34,4.04,1.46,5.89,2.48l2.78,1.56c.91.55,1.81,1.12,2.71,1.69,3.56,2.34,6.91,5.01,10.03,7.92,6.25,5.82,11.53,12.6,16.15,19.7.65,1.01.44,1.14-.25.16-4.8-6.97-10.08-13.68-16.3-19.45-3.1-2.89-6.41-5.55-9.93-7.91l-2.68-1.71-2.75-1.6c-1.84-1.05-3.66-2.18-5.73-2.56-.69-.13-1.04-.19-1.04-.26,0-.06.37-.13,1.09-.03Z"/>
  <path class="cls-2" d="m1046.48,228.18c-.11-6.25-.13-12.52-.14-18.79,0-6.27.03-12.54.14-18.79.02-.88.27-.88.29,0,.11,6.25.13,12.52.14,18.79,0,6.27-.02,12.54-.14,18.79-.03,1.05-.27,1.05-.3,0Z"/>
  <path class="cls-2" d="m1113.25,384.31c3.63-5.53,6.47-11.59,8.33-17.95,1.88-6.36,2.77-12.98,2.96-19.6.04-.93.29-.94.3,0,.03,6.64-.82,13.34-2.7,19.75-1.88,6.41-4.8,12.52-8.63,17.96-.64.92-.84.77-.25-.17Z"/>
  <path class="cls-2" d="m1046.48,768.93c-.11-6.25-.13-12.52-.14-18.79,0-6.27.03-12.54.14-18.79.02-.88.27-.88.29,0,.11,6.25.13,12.52.14,18.79,0,6.27-.02,12.54-.14,18.79-.03,1.05-.27,1.05-.3,0Z"/>
  <path class="cls-2" d="m1046.48,510.35c-.11-6.25-.13-12.52-.14-18.79,0-6.27.03-12.54.14-18.79.02-.88.27-.88.29,0,.11,6.25.13,12.52.14,18.79,0,6.27-.02,12.54-.14,18.79-.03,1.05-.27,1.05-.3,0Z"/>
  <path class="cls-2" d="m1061.62,450.25c.88-1.25,1.67-2.58,2.64-3.81.48-.61,1.01-1.2,1.61-1.72.59-.54,1.28-.91,1.92-1.36.32-.23.67-.41,1.02-.58l1.06-.52c.72-.32,1.48-.53,2.22-.79,1.53-.36,3.09-.62,4.67-.54.39.02.79.02,1.18.05l1.17.19c.79.08,1.52.41,2.28.61,1.44.61,2.89,1.33,4,2.47,2.41,2.1,3.47,5.42,3.29,8.5-.03.88-.28.85-.29,0,.05-3.02-1.02-6.13-3.35-8.11-1.08-1.07-2.46-1.74-3.85-2.32-.73-.19-1.43-.5-2.19-.57l-1.12-.18c-.38-.03-.76-.03-1.14-.05-1.52-.08-3.03.18-4.5.51-.72.25-1.45.45-2.15.75l-1.03.49c-.35.16-.69.33-1,.55-.63.42-1.31.78-1.87,1.28-.57.49-1.1,1.04-1.58,1.63-.97,1.17-1.8,2.48-2.74,3.71-.65.82-.84.66-.24-.18Z"/>
  <path class="cls-2" d="m1067.45,155.4c1.57-6.01,4.95-11.48,9.25-15.96,4.3-4.51,9.44-8.12,14.83-11.11.76-.42.89-.2.15.26-5.26,3.18-10.32,6.79-14.57,11.25-4.25,4.43-7.61,9.76-9.38,15.64-.32.98-.56.92-.29-.08Z"/>
  <path class="cls-2" d="m1048.11,1133.39c-.11-4.95-.13-9.91-.14-14.88,0-4.96.03-9.93.14-14.88.02-.7.27-.7.3,0,.11,4.95.13,9.91.14,14.88,0,4.96-.02,9.93-.14,14.88-.03.83-.27.83-.3,0Z"/>
  <path class="cls-2" d="m1134.93,236.81c1.25-.33,2.37-1.07,3.53-1.69,1.12-.66,2.16-1.48,2.96-2.5,1.65-2.03,2.22-4.73,2.06-7.32-.11-2.6-1.03-5.19-2.85-7.03-1.81-1.84-4.32-2.95-6.86-3.41-2.57-.46-5.21.25-7.41,1.63-1.13.68-2.07,1.55-2.91,2.54-.73,1.06-1.42,2.18-1.75,3.44-.81,2.47-.65,5.21.18,7.66.5,1.19,1.08,2.39,1.98,3.33l.32.37c.12.11.24.21.37.32l.74.64.83.51c.27.18.55.34.86.45,1.35.56,1.31.81-.12.27-.32-.1-.62-.26-.9-.44l-.87-.52-.78-.65c-.13-.11-.26-.21-.39-.33l-.33-.38c-.96-.96-1.58-2.19-2.11-3.42-.9-2.53-1.09-5.37-.27-7.96.34-1.32,1.05-2.51,1.81-3.62.87-1.04,1.89-1.98,3.05-2.68,1.15-.7,2.4-1.29,3.73-1.59,1.33-.32,2.72-.34,4.06-.13,2.66.49,5.24,1.63,7.17,3.58,1.93,1.96,2.88,4.71,2.97,7.39.16,2.67-.48,5.51-2.23,7.62-.85,1.06-1.94,1.9-3.11,2.55-1.18.61-2.31,1.33-3.64,1.66-.9.2-1.37.05-1.36,0,0-.08.45-.08,1.29-.29Z"/>
  <path class="cls-2" d="m1134.93,792.2c1.25-.33,2.37-1.07,3.53-1.69,1.12-.66,2.16-1.48,2.96-2.5,1.65-2.03,2.22-4.73,2.06-7.32-.11-2.6-1.03-5.19-2.85-7.03-1.81-1.84-4.32-2.95-6.86-3.41-2.57-.46-5.21.25-7.41,1.63-1.13.68-2.07,1.55-2.91,2.54-.73,1.06-1.42,2.18-1.75,3.44-.81,2.47-.65,5.21.18,7.66.5,1.19,1.08,2.39,1.98,3.33l.32.37c.12.11.24.21.37.32l.74.64.83.51c.27.18.55.34.86.45,1.35.56,1.31.81-.12.27-.32-.1-.62-.26-.9-.44l-.87-.52-.78-.65c-.13-.11-.26-.21-.39-.33l-.33-.38c-.96-.96-1.58-2.19-2.11-3.42-.9-2.53-1.09-5.37-.27-7.96.34-1.32,1.05-2.51,1.81-3.62.87-1.04,1.89-1.98,3.05-2.68,1.15-.7,2.4-1.29,3.73-1.59,1.33-.32,2.72-.34,4.06-.13,2.66.49,5.24,1.63,7.17,3.58,1.93,1.96,2.88,4.71,2.97,7.39.16,2.67-.48,5.51-2.23,7.62-.85,1.06-1.94,1.9-3.11,2.55-1.18.61-2.31,1.33-3.64,1.66-.9.2-1.37.05-1.36,0,0-.08.45-.08,1.29-.29Z"/>
  <path class="cls-2" d="m1019.21,434.04c1.26-2.43,3.16-4.58,5.52-6.06,2.35-1.49,5.15-2.23,7.93-2.19,5.59.09,10.91,3.12,14.13,7.55.47.62.26.76-.23.18-3.34-4.22-8.51-7.07-13.9-7.16-2.68-.05-5.37.65-7.65,2.05-2.29,1.39-4.19,3.42-5.53,5.77-.5.76-.72.65-.26-.15Z"/>
  <path class="cls-2" d="m1049.82,429.99c.21-2.51.86-5.02,2-7.3,1.13-2.28,2.8-4.33,4.93-5.79,2.12-1.46,4.67-2.27,7.23-2.34,2.56-.09,5.11.5,7.41,1.51.66.27.56.5-.11.27-2.32-.9-4.81-1.4-7.28-1.27-2.47.1-4.9.89-6.93,2.29-2.04,1.39-3.65,3.35-4.79,5.55-1.14,2.2-1.85,4.63-2.16,7.1-.14.83-.39.81-.3-.04Z"/>
  <path class="cls-2" d="m1060.22,1101.56c4.56-.11,9.13-.13,13.7-.13,4.57,0,9.14.03,13.7.14.64.02.64.27,0,.29-4.56.11-9.13.13-13.7.13-4.57,0-9.14-.03-13.7-.14-.77-.03-.77-.27,0-.3Z"/>
  <path class="cls-2" d="m1096.72,416.4c2.16-1.12,4.33-2.4,6.79-2.96,2.42-.6,4.98-.66,7.44-.16,4.93.99,9.26,4.33,11.58,8.71.34.61.12.72-.26.15-2.48-4.18-6.67-7.33-11.44-8.29-2.37-.48-4.84-.43-7.21.11-2.38.5-4.54,1.69-6.77,2.73-.75.35-.86.12-.13-.27Z"/>
  <path class="cls-2" d="m1095.53,446.27c.86-2.31,2.35-4.41,4.3-5.96,1.94-1.56,4.31-2.58,6.77-2.99,4.93-.84,10.19.82,13.73,4.25.52.46.34.64-.2.22-3.63-3.21-8.69-4.72-13.44-3.91-2.37.39-4.65,1.36-6.54,2.84-1.9,1.47-3.4,3.45-4.34,5.67-.35.73-.58.66-.28-.11Z"/>
  <path class="cls-2" d="m1073.28,410.53c-.05-1.21.31-2.38.72-3.48.42-1.09.83-2.21,1.46-3.24,1.23-2.06,3.02-3.75,5.07-4.96,2.06-1.22,4.43-1.9,6.83-1.94,1.2-.04,2.4.18,3.53.54.55.25,1.13.42,1.62.77l.75.48.67.6c.5.46.31.62-.2.22l-.66-.55-.74-.43c-.48-.32-1.04-.46-1.57-.69-1.1-.31-2.24-.5-3.39-.44-2.29.08-4.57.75-6.55,1.92-1.98,1.16-3.71,2.78-4.92,4.73-.61.97-1.04,2.05-1.49,3.13-.44,1.07-.81,2.18-.82,3.32.02.76-.23.82-.3,0Z"/>
  <path class="cls-2" d="m1086.6,477.2c.9-2.19,2.6-4.06,4.73-5.16,2.12-1.12,4.59-1.51,6.96-1.28,4.76.45,9.21,3.29,11.61,7.37.36.56.14.68-.25.16-2.54-3.87-6.84-6.53-11.41-6.96-2.28-.22-4.63.14-6.67,1.18-2.05,1.02-3.72,2.74-4.7,4.83-.36.68-.6.6-.27-.12Z"/>
  <path class="cls-2" d="m1014.09,613.8c.43-2.31,1.62-4.54,3.45-6.1,1.82-1.58,4.11-2.49,6.41-2.99,2.31-.46,4.73-.72,7.08-.13,1.16.3,2.28.84,3.19,1.61.92.77,1.63,1.76,2.15,2.82.29.61.06.7-.26.14-.55-1.01-1.27-1.92-2.16-2.63-.89-.71-1.94-1.18-3.04-1.45-2.22-.53-4.58-.27-6.84.19-2.25.48-4.45,1.35-6.2,2.82-1.76,1.46-2.96,3.53-3.49,5.78-.2.75-.44.72-.29-.07Z"/>
  <path class="cls-2" d="m1037.13,633.69c-.86-.8-1.39-1.92-1.61-3.06-.24-1.14-.21-2.32-.03-3.47.19-1.14.54-2.28,1.11-3.29.54-1.03,1.24-1.99,2.1-2.78.84-.81,1.82-1.48,2.89-1.95,1.06-.48,2.19-.81,3.35-.91,2.31-.25,4.69.29,6.64,1.5.56.34.41.54-.15.26-1.95-1.08-4.24-1.52-6.44-1.25-1.1.11-2.18.44-3.18.91-1.01.45-1.93,1.09-2.73,1.86-.82.75-1.48,1.65-2,2.63-.55.96-.89,2.03-1.09,3.12-.19,1.09-.24,2.22-.05,3.3.17,1.09.63,2.13,1.39,2.92.54.49.41.71-.21.22Z"/>
  <path class="cls-2" d="m1130.83,210.62c-1.97-4.1-3.97-8.19-6.06-12.23-2.09-4.05-4.27-8.05-6.46-12.02-.3-.57-.09-.69.25-.15,2.39,3.87,4.62,7.86,6.72,11.91,2.09,4.06,4.06,8.18,5.82,12.37.29.71.07.81-.27.12Z"/>
  <path class="cls-2" d="m1109.9,663.09l1.05-1.28c.39-.39.81-.76,1.21-1.14.38-.41.89-.67,1.34-1,.23-.15.45-.33.7-.46l.76-.36c2.03-.96,4.42-1.19,6.6-.59,2.19.59,4.12,1.9,5.62,3.55,1.5,1.66,2.59,3.66,3.2,5.78.19.6-.06.66-.28.09-.71-2.05-1.83-3.95-3.3-5.52-1.47-1.57-3.32-2.8-5.39-3.35-2.06-.57-4.29-.37-6.24.51l-.73.33c-.24.11-.45.28-.68.42-.44.31-.93.55-1.32.93-.4.36-.82.7-1.22,1.07l-1.09,1.21c-.5.54-.7.39-.23-.19Z"/>
  <path class="cls-2" d="m1015.67,648.85c.43-4.01,2.31-8.09,5.74-10.5,1.69-1.2,3.69-1.93,5.73-2.19,2.04-.27,4.12-.09,6.09.39.56.13.5.37-.06.29-3.9-.76-8.18-.35-11.43,1.98-3.27,2.29-5.13,6.15-5.77,10.08-.14.66-.39.63-.3-.04Z"/>
  <path class="cls-2" d="m1091.18,655.33c-.26-2.25.33-4.59,1.54-6.52,1.2-1.95,2.94-3.53,4.93-4.64,1.99-1.11,4.26-1.74,6.55-1.74,2.28,0,4.58.71,6.37,2.1.52.37.36.56-.17.24-1.8-1.26-4.01-1.87-6.19-1.82-2.19.04-4.36.66-6.28,1.72-1.91,1.07-3.59,2.58-4.77,4.42-1.18,1.84-1.81,4.03-1.67,6.23,0,.74-.24.78-.3.02Z"/>
  <path class="cls-2" d="m1112.54,640.72c.62-1.91,1.56-3.74,2.8-5.36,1.24-1.61,2.85-2.99,4.75-3.81,1.89-.83,4.03-1.06,6.05-.69,2.02.34,3.92,1.19,5.59,2.31.48.31.34.51-.16.25-1.71-1.01-3.57-1.77-5.52-2.06-1.94-.31-3.95-.08-5.74.71-1.79.77-3.34,2.07-4.57,3.6-1.23,1.54-2.21,3.29-2.93,5.14-.27.61-.5.54-.28-.1Z"/>
  <path class="cls-2" d="m1041.02,604.17c.74-1.69,1.72-3.3,2.98-4.69,1.25-1.39,2.83-2.53,4.64-3.14,1.81-.61,3.77-.62,5.6-.22,1.83.4,3.57,1.15,5.14,2.12.45.27.32.48-.14.26-1.61-.86-3.32-1.53-5.1-1.87-1.77-.34-3.62-.31-5.32.26-1.7.57-3.2,1.64-4.44,2.95-1.24,1.31-2.26,2.85-3.09,4.47-.3.54-.53.44-.27-.13Z"/>
  <path class="cls-2" d="m1091.66,79.86c.5-.69.71-1.53.63-2.36-.06-.83-.35-1.65-.71-2.42-.74-1.55-1.77-2.96-2.83-4.35-1.06-1.39-2.17-2.75-3.21-4.17-.52-.71-1.01-1.45-1.45-2.22-.42-.78-.83-1.59-.96-2.5-.05-.52.2-.51.29-.05.41,1.65,1.5,3.07,2.53,4.46l3.25,4.13c1.06,1.4,2.11,2.84,2.85,4.48.36.82.64,1.69.68,2.61.05.92-.24,1.86-.83,2.56-.4.47-.57.28-.24-.18Z"/>
  <path class="cls-2" d="m1115.17,477.02c3.18-.82,6.65-.34,9.63,1.07,2.98,1.41,5.54,3.8,6.92,6.78.2.42-.03.52-.26.13-1.54-2.8-4.02-5.04-6.9-6.4-2.88-1.36-6.17-1.87-9.32-1.3-.53.08-.6-.16-.06-.29Z"/>
  <path class="cls-2" d="m1124.67,436.69c.76-3.3,2.58-6.41,5.25-8.6,1.33-1.08,2.89-1.92,4.56-2.34,1.67-.43,3.44-.42,5.09-.01.47.11.4.35-.06.29-1.63-.29-3.32-.23-4.9.22-1.58.44-3.06,1.25-4.34,2.29-2.56,2.1-4.36,5.05-5.32,8.23-.18.53-.42.48-.29-.08Z"/>
  <path class="cls-2" d="m1055.91,357.87c.46-2.87,1.07-5.73,1.29-8.61.24-2.88.03-5.79-.85-8.55-.11-.39.12-.48.28-.1,1.11,2.73,1.38,5.77,1.14,8.69-.23,2.94-.89,5.8-1.57,8.63-.12.47-.36.43-.29-.06Z"/>
  <path class="cls-2" d="m1033.85,459.26l1.02-1.7c.34-.57.67-1.14,1.09-1.67.4-.53.76-1.1,1.25-1.57.46-.48.89-1.01,1.42-1.42,2.01-1.77,4.53-3.03,7.22-3.39,2.69-.41,5.48.26,7.79,1.62,2.33,1.37,4.17,3.45,5.43,5.78.37.65.15.77-.26.15-1.34-2.24-3.18-4.2-5.44-5.48-2.24-1.27-4.9-1.9-7.46-1.5-2.57.35-4.98,1.53-6.95,3.22-2.01,1.67-3.44,3.91-4.86,6.12-.49.74-.7.61-.25-.16Z"/>
  <path class="cls-2" d="m1062.32,1126.31c2.58-2.21,4.93-4.69,7.3-7.15,2.37-2.46,4.78-4.93,7.53-6.98.39-.29.54-.09.18.23-2.58,2.21-4.94,4.68-7.31,7.15-2.37,2.46-4.78,4.93-7.53,6.99-.46.34-.61.15-.19-.23Z"/>
  <path class="cls-2" d="m1077.43,353.86c.25-2.48.4-4.97.29-7.46-.1-2.48-.47-4.95-1.07-7.36-.08-.34.16-.42.28-.08.83,2.38,1.25,4.9,1.36,7.42.1,2.53-.09,5.06-.56,7.52-.08.41-.33.38-.3-.04Z"/>
  <path class="cls-2" d="m1077.75,94.52c2.22-1.23,4.48-2.48,6.99-3.19,2.48-.73,5.28-.69,7.63.39.34.14.24.37-.11.28-2.38-.85-4.97-.82-7.37-.12-2.42.68-4.68,1.87-7.01,2.91-.39.17-.5-.05-.13-.27Z"/>
  <path class="cls-2" d="m1096.9,345.76c-.11-2.39-.25-4.77-.61-7.13-.35-2.36-.93-4.67-1.73-6.92-.1-.32.13-.42.27-.11,1.02,2.19,1.66,4.55,2.02,6.94.36,2.39.46,4.82.34,7.21-.03.4-.27.4-.3,0Z"/>
  <path class="cls-2" d="m1115.97,333.6c-.42-2.25-.99-4.46-1.63-6.66-.63-2.2-1.34-4.39-1.91-6.62-.07-.32.16-.39.28-.09.78,2.16,1.53,4.33,2.18,6.55.64,2.22,1.17,4.48,1.38,6.78.03.39-.22.42-.3.04Z"/>
  <path class="cls-2" d="m1053.33,47.41c1.85-.77,3.85-1.2,5.86-1.32,2.01-.12,4.04.07,5.98.55.27.07.22.32-.06.29-1.96-.26-3.93-.39-5.89-.27-1.96.11-3.9.48-5.79,1.04-.32.08-.41-.15-.1-.28Z"/>
  <path class="cls-2" d="m1054.68,614.1c.34-2.24,1.24-4.48,2.81-6.21,1.56-1.74,3.72-2.86,5.95-3.32.32-.07.37.18.08.28-2.13.66-4.13,1.77-5.6,3.41-1.49,1.63-2.39,3.73-2.94,5.89-.11.36-.35.32-.29-.06Z"/>
  <path class="cls-2" d="m1098.64,395.36c.71-1.99,1.75-3.91,3.23-5.49,1.47-1.58,3.41-2.74,5.49-3.22.29-.07.36.17.08.28-1.97.69-3.75,1.81-5.16,3.33-1.42,1.51-2.46,3.34-3.37,5.22-.16.31-.39.22-.28-.12Z"/>
  <path class="cls-2" d="m1081.36,81.88c-.8-.15-1.59-.32-2.38-.54-.78-.24-1.6-.47-2.29-1.07-.36-.28-.59-.71-.74-1.12-.13-.42-.21-.84-.23-1.26-.06-.83-.02-1.64.03-2.45.02-.23.27-.23.29,0,.06.81.09,1.61.18,2.4.09.78.28,1.54.84,2,.54.48,1.32.74,2.07,1,.77.25,1.53.49,2.3.74.26.09.19.33-.08.29Z"/>
  <path class="cls-2" d="m1032.33,356.26c.44-2.72.89-5.45,1.03-8.2.15-2.74-.03-5.5-.62-8.18-.07-.38.17-.45.29-.07.82,2.66,1.05,5.5.9,8.29-.15,2.79-.64,5.54-1.31,8.23-.12.45-.36.4-.29-.06Z"/>
  <path class="cls-2" d="m1082.5,43.31c1.14-.75,2.41-1.29,3.72-1.67,1.31-.37,2.68-.58,4.04-.55.19.01.2.26.02.29-1.32.19-2.63.43-3.9.8-1.28.36-2.51.85-3.73,1.39-.21.08-.33-.13-.14-.26Z"/>
  <path class="cls-2" d="m1037.54,1049.95c-.11-8.9-.13-17.83-.14-26.75,0-8.93.03-17.85.14-26.75.02-1.26.27-1.26.29,0,.11,8.9.13,17.83.14,26.75,0,8.93-.02,17.85-.14,26.75-.03,1.5-.27,1.5-.3,0Z"/>
  <path class="cls-2" d="m1068.54,1134.66c3.63-3.79,7.34-7.53,11.06-11.25,3.73-3.72,7.46-7.43,11.25-11.06.54-.51.72-.33.21.21-3.63,3.79-7.34,7.53-11.06,11.25-3.73,3.72-7.46,7.43-11.25,11.06-.64.61-.82.43-.21-.21Z"/>
</svg>