<?xml version="1.0" encoding="utf-8"?>
<!-- Generator: Adobe Illustrator 27.1.1, SVG Export Plug-In . SVG Version: 6.00 Build 0)  -->
<svg version="1.1" id="Capa_1" xmlns="http://www.w3.org/2000/svg" xmlns:xlink="http://www.w3.org/1999/xlink" x="0px" y="0px"
	 viewBox="0 0 1125 1125" style="enable-background:new 0 0 1125 1125;" xml:space="preserve">
<style type="text/css">
	.st0{fill:#FFCEB4;}
	.st1{fill:#1A2E35;}
	.st2{fill:#8EC760;}
	.st3{opacity:0.72;}
	.st4{opacity:0.75;}
	.st5{opacity:0.72;fill:#1A2E35;}
	.st6{opacity:0.75;fill:#1A2E35;}
	.st7{opacity:0.53;}
	.st8{opacity:0.75;fill:#8EC760;}
	.st9{fill:#00787E;}
	.st10{opacity:0.72;fill:#FFCEB4;}
</style>
<g>
	<g>
		<path class="st0" d="M389.6,1011.9c0.2,1.5,0.7,3,1.2,4.5c-2.1-1.9-4.5-3.3-7.2-4.3c-4.1-1.5-8.8-1.9-13.4-2.2c-0.1,0-0.3,0-0.4,0
			c2.2,5.3,5.1,9.9,9.1,13c0.8,0.6,1.7,1.2,2.6,1.7c-0.9,0.3-1.9,0.7-2.8,1c-6.2,2.5-14.6,9-18.8,12.1c8.2,2.2,16.4,2.6,24.4,1.2
			c0.5-0.1,1-0.2,1.5-0.3c-0.7,1.1-1.3,2.4-1.7,3.6c-1.5,4.1-1.9,8.8-2.2,13.4c0,0.1,0,0.3,0,0.4c5.3-2.2,9.9-5.1,13-9.1
			c1.4-1.8,2.5-3.9,3.2-6.1c0.3,1.1,0.7,2.2,1.2,3.3c1.8,3.9,5,7.3,8.7,10.2c0-0.1,0-0.2,0-0.4c0.4-3.9,0.6-7.9,0-11.6
			s-2.2-7-4.5-10.1c-1.4-1.9-2.3-2.6-4.9-5.5l0,0l0,0l0,0c0.5-3.9,0.9-4.9,1-7.3c0.1-3.8-0.4-7.5-1.9-10.9c-1.6-3.5-4-6.7-6.4-9.7
			c-0.1-0.1-0.1-0.2-0.2-0.3C389.7,1003,389,1007.6,389.6,1011.9z"/>
	</g>
	<g>
		<g>
			<path class="st1" d="M412.9,1021.1c0.1,0.2-7.8,3.3-17.5,6.9s-17.7,6.3-17.8,6.1c-0.1-0.2,7.8-3.3,17.5-6.9
				C404.8,1023.6,412.8,1020.9,412.9,1021.1z"/>
		</g>
	</g>
	<g>
		<g>
			<path class="st1" d="M394.2,1028c0.2,0.1-0.2,1.8-0.9,3.9c-0.7,2.1-1.5,3.7-1.7,3.6s0.2-1.8,0.9-3.9
				C393.2,1029.5,394,1027.9,394.2,1028z"/>
		</g>
	</g>
	<g>
		<g>
			<path class="st1" d="M390.6,1029.7c-0.2,0.2-1.2-0.6-2.5-1.4c-1.3-0.9-2.4-1.5-2.3-1.8c0.1-0.2,1.4,0.1,2.8,1.1
				C389.9,1028.5,390.7,1029.5,390.6,1029.7z"/>
		</g>
	</g>
</g>
<g>
	<g>
		<path class="st0" d="M923,981.6c0.7,1.4,1.5,2.7,2.5,3.9c-2.6-1.1-5.3-1.9-8.1-2c-4.4-0.2-9,0.8-13.4,1.9c-0.1,0-0.3,0.1-0.4,0.1
			c3.7,4.4,7.8,8,12.6,9.7c1,0.4,2,0.6,3,0.8c-0.8,0.6-1.6,1.2-2.3,1.8c-5.1,4.2-11.3,12.9-14.3,17.1c8.4-0.3,16.4-2.4,23.6-6.1
			c0.4-0.2,0.9-0.5,1.3-0.7c-0.3,1.3-0.5,2.6-0.6,4c-0.2,4.4,0.8,9,1.9,13.4c0,0.1,0.1,0.3,0.1,0.4c4.4-3.7,8-7.8,9.7-12.6
			c0.8-2.2,1.2-4.4,1.3-6.8c0.6,1,1.3,1.9,2.1,2.8c2.9,3.2,6.9,5.5,11.4,7.2c0-0.1,0-0.2-0.1-0.3c-0.8-3.8-1.8-7.7-3.5-11.1
			c-1.7-3.4-4.2-6-7.3-8.4c-1.9-1.4-2.9-1.8-6.3-3.8l0,0l0,0l0,0c-0.6-3.9-0.6-4.9-1.2-7.2c-1-3.7-2.6-7-5.1-9.9s-5.8-5.2-9-7.4
			c-0.1-0.1-0.2-0.1-0.3-0.2C920.4,973.1,921,977.7,923,981.6z"/>
	</g>
	<g>
		<g>
			<path class="st1" d="M947.9,983.4c0.1,0.2-6.4,5.5-14.7,11.8c-8.2,6.3-15,11.3-15.2,11.1c-0.1-0.2,6.4-5.5,14.7-11.8
				C940.9,988.2,947.7,983.3,947.9,983.4z"/>
		</g>
	</g>
	<g>
		<g>
			<path class="st1" d="M932.1,995.6c0.2,0,0.4,1.8,0.3,4c-0.1,2.2-0.3,3.9-0.6,3.9c-0.2,0-0.4-1.8-0.3-4
				C931.6,997.4,931.9,995.6,932.1,995.6z"/>
		</g>
	</g>
	<g>
		<g>
			<path class="st1" d="M929.2,998.3c-0.1,0.2-1.3-0.2-2.9-0.6c-1.5-0.4-2.8-0.7-2.8-1c0-0.2,1.4-0.3,3,0.2
				C928.1,997.3,929.3,998.1,929.2,998.3z"/>
		</g>
	</g>
</g>
<g>
	<g>
		<path class="st0" d="M186.5,563.9c0.4,0.7,0.8,1.4,1.3,2c-1.4-0.6-2.8-1-4.2-1c-2.3-0.1-4.7,0.4-7,1c-0.1,0-0.2,0.1-0.2,0.1
			c1.9,2.3,4.1,4.2,6.6,5c0.5,0.2,1,0.3,1.6,0.4c-0.4,0.3-0.8,0.6-1.2,0.9c-2.8,2.2-6,6.8-7.5,8.9c4.4-0.2,8.5-1.2,12.3-3.2
			c0.2-0.1,0.5-0.3,0.7-0.4c-0.2,0.7-0.3,1.4-0.3,2.1c-0.1,2.3,0.4,4.7,1,7c0,0.1,0.1,0.2,0.1,0.2c2.3-1.9,4.2-4.1,5-6.6
			c0.4-1.1,0.6-2.3,0.7-3.5c0.3,0.5,0.7,1,1.1,1.5c1.5,1.7,3.6,2.9,5.9,3.7c0-0.1,0-0.1-0.1-0.2c-0.4-2-0.9-4-1.8-5.8
			s-2.2-3.1-3.8-4.4c-1-0.7-1.5-0.9-3.3-2l0,0l0,0l0,0c-0.3-2-0.3-2.5-0.6-3.7c-0.5-1.9-1.4-3.6-2.7-5.1s-3-2.7-4.7-3.8
			c-0.1-0.1-0.1-0.1-0.2-0.1C185.2,559.5,185.5,561.9,186.5,563.9z"/>
	</g>
	<g>
		<g>
			<path class="st1" d="M199.5,564.9c0.1,0.1-3.3,2.9-7.6,6.1c-4.3,3.3-7.8,5.9-7.9,5.8c-0.1-0.1,3.3-2.9,7.6-6.1
				C195.8,567.3,199.3,564.8,199.5,564.9z"/>
		</g>
	</g>
	<g>
		<g>
			<path class="st1" d="M191.2,571.2c0.1,0,0.2,0.9,0.2,2.1c-0.1,1.1-0.2,2-0.3,2c-0.1,0-0.2-0.9-0.2-2.1
				C191,572.1,191.1,571.2,191.2,571.2z"/>
		</g>
	</g>
	<g>
		<g>
			<path class="st1" d="M189.7,572.6c-0.1,0.1-0.7-0.1-1.5-0.3c-0.8-0.2-1.5-0.4-1.5-0.5c0-0.1,0.7-0.2,1.6,0.1
				C189.2,572.1,189.8,572.5,189.7,572.6z"/>
		</g>
	</g>
</g>
<g>
	<g>
		<path class="st2" d="M828.5,1109.5c0,0,21.8,5.4,26.4-18C854.9,1091.5,831.7,1088.1,828.5,1109.5z"/>
	</g>
	<g>
		<g>
			<path class="st1" d="M860.6,1087.2c0.1,0.1-5.2,3.9-11.7,8.4c-6.6,4.5-11.9,8.1-12,8s5.2-3.9,11.7-8.4S860.5,1087.1,860.6,1087.2
				z"/>
		</g>
	</g>
	<g>
		<g>
			<path class="st1" d="M837.7,1098.5c0-0.1,1.3-0.2,2.9-0.1c1.6,0.1,2.9,0.3,2.9,0.4s-1.3,0.2-2.9,0.1S837.7,1098.7,837.7,1098.5z"
				/>
		</g>
	</g>
	<g>
		<g>
			<path class="st1" d="M849.7,1094.6c0.1,0-0.2,1.4-0.7,3s-1,2.9-1.1,2.9s0.2-1.4,0.7-3C849,1095.8,849.5,1094.5,849.7,1094.6z"/>
		</g>
	</g>
</g>
<g>
	<g>
		<path class="st2" d="M1050.5,981.7c0,0,17.4,14.2,31.6-4.9C1082.1,976.8,1062.5,963.8,1050.5,981.7z"/>
	</g>
	<g>
		<g>
			<path class="st1" d="M1089,975.4c0,0.1-6.3,1.3-14.2,2.5c-7.9,1.3-14.2,2.2-14.3,2.1c0-0.1,6.3-1.3,14.2-2.5
				C1082.6,976.2,1089,975.2,1089,975.4z"/>
		</g>
	</g>
	<g>
		<g>
			<path class="st1" d="M1063.5,975.8c0.1-0.1,1.2,0.4,2.6,1.2s2.5,1.5,2.4,1.6s-1.2-0.4-2.6-1.2S1063.4,975.9,1063.5,975.8z"/>
		</g>
	</g>
	<g>
		<g>
			<path class="st1" d="M1076,977.3c0.1,0.1-0.8,1.2-1.9,2.4c-1.2,1.3-2.2,2.2-2.3,2.1c-0.1-0.1,0.8-1.2,1.9-2.4
				C1074.9,978.2,1075.9,977.2,1076,977.3z"/>
		</g>
	</g>
</g>
<g>
	<g>
		<path class="st2" d="M123.9,1020.7c0,0,17.4,14.2,31.6-4.9C155.5,1015.8,136,1002.8,123.9,1020.7z"/>
	</g>
	<g>
		<g>
			<path class="st1" d="M162.5,1014.4c0,0.1-6.3,1.3-14.2,2.5c-7.9,1.3-14.2,2.2-14.3,2.1c0-0.1,6.3-1.3,14.2-2.5
				C156,1015.2,162.4,1014.2,162.5,1014.4z"/>
		</g>
	</g>
	<g>
		<g>
			<path class="st1" d="M136.9,1014.8c0.1-0.1,1.2,0.4,2.6,1.2c1.4,0.8,2.5,1.5,2.4,1.6s-1.2-0.4-2.6-1.2
				C137.9,1015.6,136.9,1014.9,136.9,1014.8z"/>
		</g>
	</g>
	<g>
		<g>
			<path class="st1" d="M149.4,1016.3c0.1,0.1-0.8,1.2-1.9,2.4c-1.2,1.3-2.2,2.2-2.3,2.1c-0.1-0.1,0.8-1.2,1.9-2.4
				C148.3,1017.2,149.3,1016.3,149.4,1016.3z"/>
		</g>
	</g>
</g>
<g>
	<g>
		<path class="st0" d="M337,716.6c0.3-0.4,0.5-0.8,0.7-1.2c0.1,0.8,0.2,1.7,0.6,2.4c0.6,1.2,1.5,2.3,2.4,3.3c0,0,0.1,0.1,0.1,0.1
			c0.7-1.6,1-3.2,0.8-4.7c0-0.3-0.1-0.6-0.2-0.9c0.3,0.1,0.5,0.2,0.8,0.4c1.8,0.8,5,1.2,6.6,1.4c-1.3-2.2-2.9-4-4.9-5.4
			c-0.1-0.1-0.2-0.2-0.4-0.2c0.4-0.1,0.8-0.2,1.1-0.4c1.2-0.6,2.3-1.5,3.3-2.4c0,0,0.1-0.1,0.1-0.1c-1.6-0.7-3.2-1-4.7-0.8
			c-0.7,0.1-1.4,0.3-2,0.6c0.2-0.3,0.3-0.6,0.5-0.9c0.5-1.2,0.5-2.6,0.3-4c0,0-0.1,0.1-0.1,0.1c-0.9,0.8-1.8,1.5-2.5,2.5
			c-0.7,0.9-1,2-1.2,3.1c-0.1,0.7-0.1,1-0.1,2.2l0,0l0,0l0,0c-0.9,0.7-1.2,0.8-1.7,1.3c-0.8,0.8-1.5,1.7-1.9,2.7s-0.6,2.3-0.7,3.4
			c0,0,0,0.1,0,0.1C335.1,718.5,336.3,717.7,337,716.6z"/>
	</g>
	<g>
		<g>
			<path class="st1" d="M334.1,709.7c0-0.1,2.3,0.9,5.2,2.3s5.1,2.4,5.1,2.5c0,0.1-2.3-0.9-5.2-2.3
				C336.3,710.9,334,709.7,334.1,709.7z"/>
		</g>
	</g>
	<g>
		<g>
			<path class="st1" d="M339.5,712.2c0-0.1,0.4-0.3,1-0.6c0.6-0.3,1.1-0.5,1.1-0.4c0,0.1-0.4,0.3-1,0.6
				C340,712.1,339.5,712.2,339.5,712.2z"/>
		</g>
	</g>
	<g>
		<g>
			<path class="st1" d="M340.6,712.6c0.1,0,0.2,0.4,0.2,0.8c0.1,0.5,0.2,0.8,0.1,0.9c-0.1,0-0.3-0.3-0.4-0.8
				C340.5,713,340.6,712.6,340.6,712.6z"/>
		</g>
	</g>
</g>
<g class="st3">
	<g>
		<path class="st0" d="M624.7,1036.3c0.2-0.2,0.3-0.5,0.4-0.7c0,0.5,0.1,1,0.4,1.5c0.3,0.7,0.9,1.4,1.5,2c0,0,0,0,0.1,0.1
			c0.4-1,0.6-2,0.5-2.9c0-0.2-0.1-0.4-0.1-0.6c0.2,0.1,0.3,0.2,0.5,0.2c1.1,0.5,3.1,0.7,4,0.9c-0.8-1.4-1.8-2.5-3-3.4
			c-0.1-0.1-0.2-0.1-0.2-0.2c0.2-0.1,0.5-0.1,0.7-0.3c0.7-0.3,1.4-0.9,2-1.5c0,0,0,0,0.1-0.1c-1-0.4-2-0.6-2.9-0.5
			c-0.4,0.1-0.8,0.2-1.2,0.4c0.1-0.2,0.2-0.4,0.3-0.6c0.3-0.8,0.3-1.6,0.2-2.5c0,0,0,0-0.1,0c-0.6,0.5-1.1,1-1.5,1.5
			c-0.4,0.6-0.6,1.2-0.7,1.9c-0.1,0.4,0,0.6-0.1,1.4l0,0l0,0l0,0c-0.6,0.4-0.8,0.5-1.1,0.8c-0.5,0.5-0.9,1-1.2,1.7s-0.4,1.4-0.4,2.1
			c0,0,0,0,0,0.1C623.6,1037.5,624.3,1037,624.7,1036.3z"/>
	</g>
	<g>
		<g>
			<path class="st1" d="M622.9,1032.1c0,0,1.5,0.6,3.2,1.4s3.2,1.5,3.1,1.5s-1.5-0.6-3.2-1.4
				C624.3,1032.8,622.9,1032.1,622.9,1032.1z"/>
		</g>
	</g>
	<g>
		<g>
			<path class="st1" d="M626.3,1033.6c0,0,0.3-0.2,0.6-0.4c0.4-0.2,0.7-0.3,0.7-0.2c0,0-0.3,0.2-0.6,0.4
				C626.6,1033.5,626.3,1033.6,626.3,1033.6z"/>
		</g>
	</g>
	<g>
		<g>
			<path class="st1" d="M627,1033.9c0,0,0.1,0.2,0.1,0.5c0.1,0.3,0.1,0.5,0.1,0.5s-0.2-0.2-0.2-0.5
				C626.9,1034.1,626.9,1033.9,627,1033.9z"/>
		</g>
	</g>
</g>
<g>
	<g>
		<path class="st0" d="M245.7,892.3c0.2-0.2,0.3-0.5,0.4-0.7c0,0.5,0.1,1,0.4,1.5c0.3,0.7,0.9,1.4,1.5,2c0,0,0,0,0.1,0.1
			c0.4-1,0.6-2,0.5-2.9c0-0.2-0.1-0.4-0.1-0.6c0.2,0.1,0.3,0.2,0.5,0.2c1.1,0.5,3.1,0.7,4,0.9c-0.8-1.4-1.8-2.5-3-3.4
			c-0.1-0.1-0.2-0.1-0.2-0.2c0.2-0.1,0.5-0.1,0.7-0.3c0.7-0.3,1.4-0.9,2-1.5c0,0,0,0,0.1-0.1c-1-0.4-2-0.6-2.9-0.5
			c-0.4,0.1-0.8,0.2-1.2,0.4c0.1-0.2,0.2-0.4,0.3-0.6c0.3-0.8,0.3-1.6,0.2-2.5c0,0,0,0-0.1,0c-0.6,0.5-1.1,1-1.5,1.5
			c-0.4,0.6-0.6,1.2-0.7,1.9c-0.1,0.4,0,0.6-0.1,1.4l0,0l0,0l0,0c-0.6,0.4-0.8,0.5-1.1,0.8c-0.5,0.5-0.9,1-1.2,1.7s-0.4,1.4-0.4,2.1
			c0,0,0,0,0,0.1C244.6,893.5,245.3,893,245.7,892.3z"/>
	</g>
	<g>
		<g>
			<path class="st1" d="M243.9,888.1c0,0,1.5,0.6,3.2,1.4c1.7,0.8,3.2,1.5,3.1,1.5c0,0-1.5-0.6-3.2-1.4
				C245.3,888.8,243.9,888.1,243.9,888.1z"/>
		</g>
	</g>
	<g>
		<g>
			<path class="st1" d="M247.3,889.6c0,0,0.3-0.2,0.6-0.4c0.4-0.2,0.7-0.3,0.7-0.2c0,0-0.3,0.2-0.6,0.4
				C247.6,889.5,247.3,889.6,247.3,889.6z"/>
		</g>
	</g>
	<g>
		<g>
			<path class="st1" d="M248,889.9c0,0,0.1,0.2,0.1,0.5c0.1,0.3,0.1,0.5,0.1,0.5s-0.2-0.2-0.2-0.5
				C247.9,890.1,247.9,889.9,248,889.9z"/>
		</g>
	</g>
</g>
<g>
	<g>
		<path class="st0" d="M875.1,271.1c0.5,0,1-0.1,1.5-0.2c-0.7,0.6-1.3,1.3-1.7,2.1c-0.7,1.3-1.1,2.8-1.4,4.3c0,0,0,0.1,0,0.1
			c1.8-0.4,3.5-1.2,4.7-2.3c0.3-0.2,0.5-0.5,0.7-0.8c0.1,0.3,0.1,0.6,0.2,1c0.5,2.1,2.2,5.2,3,6.7c1.1-2.5,1.7-5.2,1.6-7.9
			c0-0.2,0-0.3,0-0.5c0.3,0.3,0.7,0.5,1.1,0.8c1.3,0.7,2.8,1.1,4.3,1.4c0,0,0.1,0,0.1,0c-0.4-1.8-1.2-3.5-2.3-4.7
			c-0.5-0.6-1.2-1-1.8-1.4c0.4,0,0.8-0.1,1.1-0.2c1.4-0.4,2.6-1.3,3.8-2.3c0,0-0.1,0-0.1,0c-1.3-0.3-2.5-0.6-3.8-0.6s-2.4,0.4-3.5,1
			c-0.7,0.4-1,0.6-2,1.3l0,0l0,0l0,0c-1.2-0.4-1.6-0.5-2.3-0.7c-1.3-0.2-2.4-0.3-3.7,0.1c-1.2,0.3-2.4,1-3.5,1.6c0,0-0.1,0-0.1,0.1
			C872.2,270.7,873.7,271.1,875.1,271.1z"/>
	</g>
	<g>
		<g>
			<path class="st1" d="M879.3,264c0.1,0,0.7,2.7,1.4,6c0.7,3.4,1.2,6.1,1.1,6.1c-0.1,0-0.7-2.7-1.4-6
				C879.7,266.8,879.2,264,879.3,264z"/>
		</g>
	</g>
	<g>
		<g>
			<path class="st1" d="M880.6,270.5c0-0.1,0.6,0.2,1.2,0.5c0.6,0.3,1.1,0.7,1.1,0.7s-0.6-0.2-1.2-0.5
				C881,270.9,880.5,270.5,880.6,270.5z"/>
		</g>
	</g>
	<g>
		<g>
			<path class="st1" d="M881,271.7c0,0.1-0.3,0.4-0.6,0.8c-0.4,0.4-0.6,0.7-0.7,0.7c-0.1,0,0.1-0.5,0.5-0.9
				C880.5,271.9,880.9,271.6,881,271.7z"/>
		</g>
	</g>
</g>
<g>
	<g>
		<path class="st2" d="M462.8,847.6c0,0-5.9-9.8-16-3C446.8,844.6,453.9,854.2,462.8,847.6z"/>
	</g>
	<g>
		<g>
			<path class="st1" d="M443.2,844.1c0-0.1,3.3,0.5,7.2,1.2c4,0.7,7.2,1.4,7.2,1.4c0,0.1-3.3-0.5-7.2-1.2
				C446.4,844.8,443.2,844.2,443.2,844.1z"/>
		</g>
	</g>
	<g>
		<g>
			<path class="st1" d="M455.5,848.3c0,0-0.5-0.4-1.1-1c-0.5-0.6-0.9-1.1-0.9-1.2c0,0,0.5,0.4,1.1,1
				C455.2,847.7,455.6,848.2,455.5,848.3z"/>
		</g>
	</g>
	<g>
		<g>
			<path class="st1" d="M449.8,845.4c0-0.1,0.6-0.4,1.3-0.8s1.4-0.7,1.4-0.6c0,0.1-0.6,0.4-1.3,0.8
				C450.5,845.2,449.8,845.4,449.8,845.4z"/>
		</g>
	</g>
</g>
<g class="st4">
	<g class="st3">
		<path class="st2" d="M576.6,363.4c0,0-8.9-14.7-24-4.6C552.6,358.8,563.3,373.2,576.6,363.4z"/>
	</g>
	<g>
		<g>
			<path class="st5" d="M547.2,358.1c0-0.1,4.9,0.7,10.9,1.8c6,1.1,10.8,2.1,10.8,2.2s-4.9-0.7-10.9-1.8
				C552,359.1,547.2,358.2,547.2,358.1z"/>
		</g>
	</g>
	<g class="st3">
		<g>
			<path class="st1" d="M565.7,364.3c-0.1,0.1-0.8-0.6-1.6-1.5s-1.4-1.7-1.3-1.8c0.1-0.1,0.8,0.6,1.6,1.5
				C565.2,363.5,565.8,364.2,565.7,364.3z"/>
		</g>
	</g>
	<g class="st3">
		<g>
			<path class="st1" d="M557.1,360c0-0.1,0.9-0.7,2-1.3c1.2-0.6,2.1-1,2.2-0.9c0,0.1-0.9,0.7-2,1.3
				C558.1,359.6,557.1,360.1,557.1,360z"/>
		</g>
	</g>
</g>
<g class="st3">
	<g>
		<path class="st2" d="M595.3,398.7c0,0-1.1-11.3-13-9.5C582.3,389.2,584.6,400.8,595.3,398.7z"/>
	</g>
	<g>
		<g>
			<path class="st6" d="M579.3,387.3c0-0.1,2.7,1.8,6,4.2c3.3,2.4,5.9,4.3,5.8,4.4c0,0.1-2.7-1.8-6-4.2
				C581.8,389.3,579.2,387.3,579.3,387.3z"/>
		</g>
	</g>
	<g>
		<g>
			<path class="st1" d="M588.5,396.2c-0.1,0-0.3-0.6-0.5-1.4s-0.4-1.4-0.3-1.4c0.1,0,0.3,0.6,0.5,1.4
				C588.5,395.6,588.6,396.2,588.5,396.2z"/>
		</g>
	</g>
	<g>
		<g>
			<path class="st1" d="M584.6,391.2c0-0.1,0.7-0.1,1.6-0.2c0.9,0,1.6,0,1.6,0.1s-0.7,0.1-1.6,0.2
				C585.3,391.3,584.6,391.3,584.6,391.2z"/>
		</g>
	</g>
</g>
<g>
	<g>
		<path class="st2" d="M519.6,759.4c0,0-8.9-14.7-24-4.6C495.6,754.8,506.3,769.2,519.6,759.4z"/>
	</g>
	<g>
		<g>
			<path class="st1" d="M490.2,754.1c0-0.1,4.9,0.7,10.9,1.8s10.8,2.1,10.8,2.2c0,0.1-4.9-0.7-10.9-1.8
				C495,755.1,490.2,754.2,490.2,754.1z"/>
		</g>
	</g>
	<g>
		<g>
			<path class="st1" d="M508.7,760.3c-0.1,0.1-0.8-0.6-1.6-1.5c-0.8-0.9-1.4-1.7-1.3-1.8s0.8,0.6,1.6,1.5
				C508.2,759.5,508.8,760.2,508.7,760.3z"/>
		</g>
	</g>
	<g>
		<g>
			<path class="st1" d="M500.1,756c0-0.1,0.9-0.7,2-1.3c1.2-0.6,2.1-1,2.2-0.9s-0.9,0.7-2,1.3C501.1,755.6,500.1,756.1,500.1,756z"
				/>
		</g>
	</g>
</g>
<g>
	<g>
		<path class="st2" d="M538.3,794.7c0,0-1.1-11.3-13-9.5C525.3,785.2,527.6,796.8,538.3,794.7z"/>
	</g>
	<g>
		<g>
			<path class="st1" d="M522.3,783.3c0-0.1,2.7,1.8,6,4.2s5.9,4.3,5.8,4.4c0,0.1-2.7-1.8-6-4.2S522.2,783.3,522.3,783.3z"/>
		</g>
	</g>
	<g>
		<g>
			<path class="st1" d="M531.5,792.2c-0.1,0-0.3-0.6-0.5-1.4c-0.2-0.8-0.4-1.4-0.3-1.4c0.1,0,0.3,0.6,0.5,1.4
				C531.5,791.6,531.6,792.2,531.5,792.2z"/>
		</g>
	</g>
	<g>
		<g>
			<path class="st1" d="M527.6,787.2c0-0.1,0.7-0.1,1.6-0.2c0.9,0,1.6,0,1.6,0.1s-0.7,0.1-1.6,0.2
				C528.3,787.3,527.6,787.3,527.6,787.2z"/>
		</g>
	</g>
</g>
<g class="st3">
	<g>
		<path class="st2" d="M629.6,969.9c0,0-0.5-4.6-5.3-3.9C624.2,966.1,625.2,970.8,629.6,969.9z"/>
	</g>
	<g>
		<g>
			<path class="st1" d="M623,965.3c0,0,1.1,0.7,2.4,1.7c1.3,1,2.4,1.8,2.4,1.8s-1.1-0.7-2.4-1.7S623,965.3,623,965.3z"/>
		</g>
	</g>
	<g>
		<g>
			<path class="st1" d="M626.8,968.9c0,0-0.1-0.2-0.2-0.6c-0.1-0.3-0.1-0.6-0.1-0.6s0.1,0.2,0.2,0.6
				C626.8,968.6,626.8,968.9,626.8,968.9z"/>
		</g>
	</g>
	<g>
		<g>
			<path class="st1" d="M625.2,966.9c0,0,0.3-0.1,0.6-0.1c0.4,0,0.6,0,0.6,0s-0.3,0.1-0.6,0.1S625.2,966.9,625.2,966.9z"/>
		</g>
	</g>
</g>
<g>
	<g>
		<path class="st2" d="M914.6,688.9c0,0-0.5-4.6-5.3-3.9C909.2,685.1,910.2,689.8,914.6,688.9z"/>
	</g>
	<g>
		<g>
			<path class="st1" d="M908,684.3c0,0,1.1,0.7,2.4,1.7c1.3,1,2.4,1.8,2.4,1.8s-1.1-0.7-2.4-1.7S908,684.3,908,684.3z"/>
		</g>
	</g>
	<g>
		<g>
			<path class="st1" d="M911.8,687.9c0,0-0.1-0.2-0.2-0.6c-0.1-0.3-0.1-0.6-0.1-0.6s0.1,0.2,0.2,0.6
				C911.8,687.6,911.8,687.9,911.8,687.9z"/>
		</g>
	</g>
	<g>
		<g>
			<path class="st1" d="M910.2,685.9c0,0,0.3-0.1,0.6-0.1c0.4,0,0.6,0,0.6,0s-0.3,0.1-0.6,0.1S910.2,685.9,910.2,685.9z"/>
		</g>
	</g>
</g>
<g>
	<g>
		<path class="st2" d="M277,564.4c0,0-0.7-7-8.1-5.9C268.9,558.5,270.3,565.7,277,564.4z"/>
	</g>
	<g>
		<g>
			<path class="st1" d="M267,557.3c0,0,1.7,1.1,3.7,2.6s3.7,2.7,3.6,2.7c0,0-1.7-1.1-3.7-2.6S267,557.3,267,557.3z"/>
		</g>
	</g>
	<g>
		<g>
			<path class="st1" d="M272.8,562.8c0,0-0.2-0.4-0.3-0.8c-0.1-0.5-0.2-0.9-0.2-0.9s0.2,0.4,0.3,0.8
				C272.8,562.4,272.8,562.8,272.8,562.8z"/>
		</g>
	</g>
	<g>
		<g>
			<path class="st1" d="M270.4,559.7c0,0,0.4-0.1,1-0.1c0.5,0,1,0,1,0s-0.4,0.1-1,0.1C270.8,559.8,270.4,559.7,270.4,559.7z"/>
		</g>
	</g>
</g>
<g>
	<g>
		<path class="st0" d="M118,222.8c-0.5-0.4-1-0.7-1.6-0.9c1.1-0.1,2.2-0.3,3.3-0.8c1.6-0.8,3-2,4.4-3.2l0.1-0.1
			c-2.1-0.9-4.3-1.4-6.3-1.1c-0.4,0.1-0.8,0.1-1.2,0.3c0.2-0.4,0.3-0.7,0.5-1.1c1-2.5,1.6-6.7,1.9-8.7c-2.9,1.7-5.4,3.9-7.3,6.6
			c-0.1,0.2-0.2,0.3-0.3,0.5c-0.1-0.5-0.3-1-0.5-1.5c-0.8-1.6-2-3-3.2-4.4l-0.1-0.1c-0.9,2.1-1.4,4.3-1.1,6.3
			c0.1,0.9,0.4,1.8,0.8,2.6c-0.4-0.2-0.8-0.4-1.3-0.6c-1.6-0.6-3.5-0.7-5.4-0.4l0.1,0.1c1,1.2,2.1,2.4,3.3,3.3
			c1.2,0.9,2.6,1.4,4.1,1.6c0.9,0.2,1.4,0.1,2.9,0.2l0,0l0,0l0,0c0.9,1.3,1.1,1.6,1.8,2.3c1.1,1.1,2.2,2,3.6,2.6
			c1.4,0.5,3,0.8,4.6,0.9h0.1C120.5,225.4,119.4,223.9,118,222.8z"/>
	</g>
	<g>
		<g>
			<path class="st1" d="M108.8,226.8c-0.1,0,1.3-3.1,3-6.9c1.8-3.8,3.2-6.8,3.3-6.8c0.1,0-1.3,3.1-3,6.9
				C110.4,223.8,108.9,226.9,108.8,226.8z"/>
		</g>
	</g>
	<g>
		<g>
			<path class="st1" d="M112.2,219.5c-0.1,0-0.5-0.6-0.8-1.4c-0.4-0.8-0.6-1.5-0.5-1.5s0.5,0.6,0.8,1.4
				C112,218.8,112.2,219.5,112.2,219.5z"/>
		</g>
	</g>
	<g>
		<g>
			<path class="st1" d="M112.7,218c0-0.1,0.5-0.2,1.1-0.3s1.1-0.3,1.2-0.2c0,0.1-0.4,0.4-1.1,0.5C113.3,218.2,112.7,218.1,112.7,218
				z"/>
		</g>
	</g>
</g>
<g>
	<g>
		<path class="st2" d="M162.8,159.7c0,0-11.7,7.1-3.6,19.1C159.2,178.9,170.7,170.3,162.8,159.7z"/>
	</g>
	<g>
		<g>
			<path class="st1" d="M158.6,183.1c-0.1,0,0.6-3.9,1.4-8.6c0.9-4.8,1.7-8.6,1.7-8.6c0.1,0-0.6,3.9-1.4,8.6
				C159.5,179.3,158.7,183.1,158.6,183.1z"/>
		</g>
	</g>
	<g>
		<g>
			<path class="st1" d="M163.6,168.4c0.1,0.1-0.5,0.6-1.2,1.3c-0.7,0.6-1.4,1.1-1.4,1.1c-0.1-0.1,0.5-0.6,1.2-1.3
				C162.9,168.8,163.5,168.3,163.6,168.4z"/>
		</g>
	</g>
	<g>
		<g>
			<path class="st1" d="M160.1,175.3c-0.1,0-0.5-0.7-1-1.6c-0.5-0.9-0.8-1.7-0.7-1.7s0.5,0.7,1,1.6
				C159.9,174.5,160.2,175.2,160.1,175.3z"/>
		</g>
	</g>
</g>
<g>
	<g>
		<path class="st2" d="M191,144.9c0,0-9,0.9-7.6,10.4C183.4,155.2,192.7,153.4,191,144.9z"/>
	</g>
	<g>
		<g>
			<path class="st1" d="M181.9,157.6c0,0,1.4-2.2,3.3-4.7c1.9-2.6,3.4-4.7,3.5-4.6c0,0-1.4,2.2-3.3,4.7
				C183.4,155.6,181.9,157.6,181.9,157.6z"/>
		</g>
	</g>
	<g>
		<g>
			<path class="st1" d="M189,150.2c0,0.1-0.5,0.2-1.1,0.4s-1.1,0.3-1.1,0.2s0.5-0.2,1.1-0.4C188.5,150.3,189,150.2,189,150.2z"/>
		</g>
	</g>
	<g>
		<g>
			<path class="st1" d="M185,153.3c-0.1,0-0.1-0.6-0.1-1.2c0-0.7,0-1.2,0-1.2c0.1,0,0.1,0.6,0.1,1.2
				C185.1,152.8,185,153.3,185,153.3z"/>
		</g>
	</g>
</g>
<g>
	<g>
		<path class="st0" d="M206.2,285.3c0.1,0.6,0.3,1.2,0.5,1.8c-0.9-0.7-1.8-1.3-2.9-1.7c-1.7-0.6-3.5-0.8-5.4-0.9c-0.1,0-0.1,0-0.2,0
			c0.9,2.1,2.1,4,3.7,5.2c0.3,0.3,0.7,0.5,1.1,0.7c-0.4,0.1-0.7,0.3-1.1,0.4c-2.5,1-5.9,3.6-7.5,4.8c3.3,0.9,6.6,1,9.8,0.5
			c0.2,0,0.4-0.1,0.6-0.1c-0.3,0.5-0.5,0.9-0.7,1.5c-0.6,1.7-0.8,3.5-0.9,5.4c0,0.1,0,0.1,0,0.2c2.1-0.9,4-2.1,5.2-3.7
			c0.6-0.7,1-1.6,1.3-2.5c0.1,0.4,0.3,0.9,0.5,1.3c0.7,1.6,2,2.9,3.5,4.1v-0.1c0.1-1.6,0.2-3.2,0-4.7c-0.3-1.5-0.9-2.8-1.8-4.1
			c-0.6-0.8-0.9-1-1.9-2.2l0,0l0,0l0,0c0.2-1.6,0.4-2,0.4-2.9c0.1-1.5-0.1-3-0.8-4.4c-0.6-1.4-1.6-2.7-2.6-3.9l-0.1-0.1
			C206.2,281.7,205.9,283.5,206.2,285.3z"/>
	</g>
	<g>
		<g>
			<path class="st1" d="M215.5,289c0,0.1-3.1,1.3-7,2.8c-3.9,1.4-7.1,2.5-7.1,2.4s3.1-1.3,7-2.8C212.3,290,215.5,288.9,215.5,289z"
				/>
		</g>
	</g>
	<g>
		<g>
			<path class="st1" d="M208,291.7c0.1,0-0.1,0.7-0.4,1.6c-0.3,0.8-0.6,1.5-0.7,1.4c-0.1,0,0.1-0.7,0.4-1.6
				C207.6,292.4,207.9,291.7,208,291.7z"/>
		</g>
	</g>
	<g>
		<g>
			<path class="st1" d="M206.6,292.4c-0.1,0.1-0.5-0.2-1-0.6c-0.5-0.3-1-0.6-0.9-0.7c0-0.1,0.6,0.1,1.1,0.4
				C206.3,291.9,206.6,292.4,206.6,292.4z"/>
		</g>
	</g>
</g>
<g>
	<g>
		<path class="st0" d="M192.9,215.9c0,0.1,0,0.2,0.1,0.3c-0.2-0.1-0.3-0.2-0.5-0.3c-0.3-0.1-0.7-0.1-1-0.2l0,0
			c0.2,0.4,0.4,0.7,0.7,1c0.1,0,0.1,0.1,0.2,0.1c-0.1,0-0.1,0-0.2,0.1c-0.5,0.2-1.1,0.7-1.4,0.9c0.6,0.2,1.2,0.2,1.8,0.1h0.1
			c-0.1,0.1-0.1,0.2-0.1,0.3c-0.1,0.3-0.1,0.7-0.2,1l0,0c0.4-0.2,0.7-0.4,1-0.7c0.1-0.1,0.2-0.3,0.2-0.5c0,0.1,0.1,0.2,0.1,0.2
			c0.1,0.3,0.4,0.5,0.6,0.8l0,0c0-0.3,0-0.6,0-0.9c0-0.3-0.2-0.5-0.3-0.8c-0.1-0.1-0.2-0.2-0.4-0.4l0,0l0,0l0,0
			c0-0.3,0.1-0.4,0.1-0.5c0-0.3,0-0.6-0.1-0.8c-0.1-0.3-0.3-0.5-0.5-0.7l0,0C192.9,215.3,192.8,215.6,192.9,215.9z"/>
	</g>
	<g>
		<g>
			<path class="st1" d="M194.6,216.6c0,0-0.6,0.2-1.3,0.5s-1.3,0.5-1.3,0.5s0.6-0.2,1.3-0.5S194.6,216.6,194.6,216.6z"/>
		</g>
	</g>
	<g>
		<g>
			<path class="st1" d="M193.2,217.1c0,0,0,0.1-0.1,0.3s-0.1,0.3-0.1,0.3s0-0.1,0.1-0.3C193.1,217.2,193.2,217.1,193.2,217.1z"/>
		</g>
	</g>
	<g>
		<g>
			<path class="st1" d="M192.9,217.2c0,0-0.1,0-0.2-0.1c-0.1-0.1-0.2-0.1-0.2-0.1s0.1,0,0.2,0.1
				C192.9,217.2,192.9,217.2,192.9,217.2z"/>
		</g>
	</g>
</g>
<g>
	<g>
		<path class="st2" d="M129.9,298.2c0,0,13.3,3.3,16.1-11C146,287.2,131.8,285.2,129.9,298.2z"/>
	</g>
	<g>
		<g>
			<path class="st1" d="M149.4,284.6c0,0.1-3.2,2.3-7.1,5.1c-4,2.7-7.3,4.9-7.3,4.9c0-0.1,3.1-2.3,7.1-5.1
				C146.1,286.7,149.4,284.6,149.4,284.6z"/>
		</g>
	</g>
	<g>
		<g>
			<path class="st1" d="M135.5,291.5c0-0.1,0.8-0.1,1.8,0s1.7,0.2,1.7,0.2c0,0.1-0.8,0.1-1.8,0C136.3,291.7,135.5,291.6,135.5,291.5
				z"/>
		</g>
	</g>
	<g>
		<g>
			<path class="st1" d="M142.8,289.1c0.1,0-0.1,0.8-0.4,1.8c-0.3,1-0.6,1.8-0.7,1.8s0.1-0.8,0.4-1.8S142.7,289.1,142.8,289.1z"/>
		</g>
	</g>
</g>
<g>
	<g>
		<path class="st2" d="M466.1,459.3c0,0,8.8,2.2,10.6-7.2C476.7,452,467.4,450.7,466.1,459.3z"/>
	</g>
	<g>
		<g>
			<path class="st1" d="M479,450.3c0,0-2.1,1.5-4.7,3.4c-2.6,1.8-4.8,3.2-4.8,3.2s2.1-1.5,4.7-3.4C476.8,451.7,479,450.3,479,450.3z
				"/>
		</g>
	</g>
	<g>
		<g>
			<path class="st1" d="M469.8,454.9c0-0.1,0.5-0.1,1.2,0c0.6,0,1.2,0.1,1.1,0.2c0,0.1-0.5,0.1-1.2,0
				C470.3,455,469.8,454.9,469.8,454.9z"/>
		</g>
	</g>
	<g>
		<g>
			<path class="st1" d="M474.6,453.3c0,0-0.1,0.6-0.3,1.2c-0.2,0.7-0.4,1.2-0.5,1.2c0,0,0.1-0.6,0.3-1.2
				C474.4,453.8,474.6,453.3,474.6,453.3z"/>
		</g>
	</g>
</g>
<g>
	<g>
		<path class="st2" d="M238.7,242c0,0-3.1,8.5,6,11.4C244.7,253.3,247.1,244.2,238.7,242z"/>
	</g>
	<g>
		<g>
			<path class="st1" d="M246.2,255.8c0,0-1.3-2.2-2.8-5.1c-1.5-2.8-2.7-5.1-2.6-5.1c0,0,1.3,2.2,2.8,5.1
				C245,253.5,246.2,255.8,246.2,255.8z"/>
		</g>
	</g>
	<g>
		<g>
			<path class="st1" d="M242.7,246.1c0.1,0,0,0.5-0.1,1.2c-0.1,0.6-0.2,1.1-0.3,1.1s0-0.5,0.1-1.2
				C242.5,246.6,242.6,246.1,242.7,246.1z"/>
		</g>
	</g>
	<g>
		<g>
			<path class="st1" d="M243.7,251.1c0,0-0.5-0.1-1.2-0.4c-0.6-0.3-1.1-0.5-1.1-0.6c0,0,0.5,0.1,1.2,0.4
				C243.2,250.8,243.7,251.1,243.7,251.1z"/>
		</g>
	</g>
</g>
<g>
	<g>
		<path class="st2" d="M99.5,288.8c0,0,7,5.7,12.7-2C112.2,286.8,104.3,281.6,99.5,288.8z"/>
	</g>
	<g>
		<g>
			<path class="st1" d="M114.9,286.3c0,0.1-2.5,0.5-5.7,1s-5.7,0.9-5.7,0.8s2.5-0.5,5.7-1C112.4,286.6,114.9,286.2,114.9,286.3z"/>
		</g>
	</g>
	<g>
		<g>
			<path class="st1" d="M104.7,286.4c0,0,0.5,0.2,1.1,0.5s1,0.6,1,0.6s-0.5-0.2-1.1-0.5C105.1,286.8,104.7,286.5,104.7,286.4z"/>
		</g>
	</g>
	<g>
		<g>
			<path class="st1" d="M109.7,287.1c0,0-0.3,0.5-0.8,1s-0.9,0.9-0.9,0.8c0,0,0.3-0.5,0.8-1C109.3,287.4,109.7,287,109.7,287.1z"/>
		</g>
	</g>
</g>
<g>
	<g>
		<path class="st2" d="M377.8,573.8c0,0,6.7,1.7,8.1-5.5C385.9,568.3,378.8,567.2,377.8,573.8z"/>
	</g>
	<g>
		<g>
			<path class="st1" d="M387.6,566.9c0,0-1.6,1.2-3.6,2.6c-2,1.4-3.7,2.5-3.7,2.5s1.6-1.2,3.6-2.6C386,568,387.6,566.9,387.6,566.9z
				"/>
		</g>
	</g>
	<g>
		<g>
			<path class="st1" d="M380.6,570.4c0,0,0.4,0,0.9,0s0.9,0.1,0.9,0.1s-0.4,0-0.9,0S380.6,570.5,380.6,570.4z"/>
		</g>
	</g>
	<g>
		<g>
			<path class="st1" d="M384.3,569.2c0,0-0.1,0.4-0.2,0.9c-0.2,0.5-0.3,0.9-0.4,0.9s0.1-0.4,0.2-0.9
				C384.1,569.6,384.2,569.2,384.3,569.2z"/>
		</g>
	</g>
</g>
<g>
	<g>
		<path class="st2" d="M243.4,390.1c0,0,3.5,2.9,6.4-1C249.8,389.1,245.9,386.4,243.4,390.1z"/>
	</g>
	<g>
		<g>
			<path class="st6" d="M251.2,388.8c0,0-1.3,0.3-2.9,0.5c-1.6,0.3-2.9,0.4-2.9,0.4s1.3-0.3,2.9-0.5
				C249.9,388.9,251.2,388.7,251.2,388.8z"/>
		</g>
	</g>
	<g>
		<g>
			<path class="st6" d="M246.1,388.9c0,0,0.3,0.1,0.5,0.2c0.3,0.2,0.5,0.3,0.5,0.3s-0.3-0.1-0.5-0.2
				C246.3,389,246,388.9,246.1,388.9z"/>
		</g>
	</g>
	<g>
		<g>
			<path class="st1" d="M248.6,389.2c0,0-0.2,0.2-0.4,0.5s-0.4,0.4-0.5,0.4c0,0,0.2-0.2,0.4-0.5
				C248.4,389.3,248.6,389.2,248.6,389.2z"/>
		</g>
	</g>
</g>
<g>
	<g>
		<path class="st2" d="M152.8,331.5c0,0,6.7,1.7,8.1-5.5C161,325.9,153.8,324.9,152.8,331.5z"/>
	</g>
	<g>
		<g>
			<path class="st1" d="M162.7,324.6c0,0-1.6,1.2-3.6,2.6s-3.7,2.5-3.7,2.5s1.6-1.2,3.6-2.6S162.7,324.6,162.7,324.6z"/>
		</g>
	</g>
	<g>
		<g>
			<path class="st1" d="M155.7,328.1c0,0,0.4,0,0.9,0s0.9,0.1,0.9,0.1s-0.4,0-0.9,0C156.1,328.2,155.7,328.1,155.7,328.1z"/>
		</g>
	</g>
	<g>
		<g>
			<path class="st1" d="M159.3,326.9c0,0-0.1,0.4-0.2,0.9c-0.2,0.5-0.3,0.9-0.4,0.9c0,0,0.1-0.4,0.2-0.9
				C159.2,327.3,159.3,326.9,159.3,326.9z"/>
		</g>
	</g>
</g>
<g>
	<g>
		<path class="st2" d="M137.5,326.7c0,0,3.5,2.9,6.4-1C143.9,325.7,139.9,323.1,137.5,326.7z"/>
	</g>
	<g>
		<g>
			<path class="st1" d="M145.3,325.4c0,0-1.3,0.3-2.9,0.5c-1.6,0.3-2.9,0.4-2.9,0.4s1.3-0.3,2.9-0.5
				C144,325.6,145.3,325.4,145.3,325.4z"/>
		</g>
	</g>
	<g>
		<g>
			<path class="st1" d="M140.1,325.5c0,0,0.3,0.1,0.5,0.2c0.3,0.2,0.5,0.3,0.5,0.3s-0.3-0.1-0.5-0.2
				C140.3,325.7,140.1,325.5,140.1,325.5z"/>
		</g>
	</g>
	<g>
		<g>
			<path class="st1" d="M142.7,325.8c0,0-0.2,0.2-0.4,0.5s-0.4,0.4-0.5,0.4c0,0,0.2-0.2,0.4-0.5C142.4,326,142.6,325.8,142.7,325.8z
				"/>
		</g>
	</g>
</g>
<g>
	<g>
		<path class="st2" d="M61.8,302.9c0,0,1.4,1.2,2.6-0.4C64.4,302.5,62.8,301.4,61.8,302.9z"/>
	</g>
	<g>
		<g>
			<path class="st1" d="M65,302.4c0,0-0.5,0.1-1.2,0.2c-0.6,0.1-1.2,0.2-1.2,0.2s0.5-0.1,1.2-0.2C64.5,302.4,65,302.3,65,302.4z"/>
		</g>
	</g>
	<g>
		<g>
			<path class="st1" d="M62.9,302.4c0,0,0.1,0,0.2,0.1c0.1,0.1,0.2,0.1,0.2,0.1s-0.1,0-0.2-0.1C63,302.5,62.9,302.4,62.9,302.4z"/>
		</g>
	</g>
	<g>
		<g>
			<path class="st1" d="M63.9,302.5c0,0-0.1,0.1-0.2,0.2c-0.1,0.1-0.2,0.2-0.2,0.2s0.1-0.1,0.2-0.2
				C63.8,302.6,63.9,302.5,63.9,302.5z"/>
		</g>
	</g>
</g>
<g class="st7">
	<g>
		<path class="st2" d="M396.1,496.9c0,0,2.2,1.8,4-0.6C400.1,496.3,397.6,494.7,396.1,496.9z"/>
	</g>
	<g>
		<g>
			<path class="st1" d="M401,496.1c0,0-0.8,0.2-1.8,0.3c-1,0.2-1.8,0.3-1.8,0.3s0.8-0.2,1.8-0.3C400.2,496.2,401,496.1,401,496.1z"
				/>
		</g>
	</g>
	<g>
		<g>
			<path class="st1" d="M397.7,496.2c0,0,0.2,0.1,0.3,0.1c0.2,0.1,0.3,0.2,0.3,0.2s-0.2-0.1-0.3-0.1
				C397.9,496.3,397.7,496.2,397.7,496.2z"/>
		</g>
	</g>
	<g>
		<g>
			<path class="st1" d="M399.3,496.4c0,0-0.1,0.1-0.2,0.3c-0.1,0.2-0.3,0.3-0.3,0.3s0.1-0.1,0.2-0.3
				C399.2,496.5,399.3,496.4,399.3,496.4z"/>
		</g>
	</g>
</g>
<g>
	<g>
		<path class="st0" d="M964,466.8c-0.5-0.4-1-0.7-1.6-0.9c1.1-0.1,2.2-0.3,3.3-0.8c1.6-0.8,3-2,4.4-3.2l0.1-0.1
			c-2.1-0.9-4.3-1.4-6.3-1.1c-0.4,0.1-0.8,0.1-1.2,0.3c0.2-0.4,0.3-0.7,0.5-1.1c1-2.5,1.6-6.7,1.9-8.7c-2.9,1.7-5.4,3.9-7.3,6.6
			c-0.1,0.2-0.2,0.3-0.3,0.5c-0.1-0.5-0.3-1-0.5-1.5c-0.8-1.6-2-3-3.2-4.4l-0.1-0.1c-0.9,2.1-1.4,4.3-1.1,6.3
			c0.1,0.9,0.4,1.8,0.8,2.6c-0.4-0.2-0.8-0.4-1.3-0.6c-1.6-0.6-3.5-0.7-5.4-0.4l0.1,0.1c1,1.2,2.1,2.4,3.3,3.3s2.6,1.4,4.1,1.6
			c0.9,0.2,1.4,0.1,2.9,0.2l0,0l0,0l0,0c0.9,1.3,1.1,1.6,1.8,2.3c1.1,1.1,2.2,2,3.6,2.6c1.4,0.5,3,0.8,4.6,0.9h0.1
			C966.5,469.4,965.4,467.9,964,466.8z"/>
	</g>
	<g>
		<g>
			<path class="st1" d="M954.8,470.8c-0.1,0,1.3-3.1,3-6.9c1.8-3.8,3.2-6.8,3.3-6.8s-1.3,3.1-3,6.9
				C956.4,467.8,954.9,470.9,954.8,470.8z"/>
		</g>
	</g>
	<g>
		<g>
			<path class="st1" d="M958.2,463.5c-0.1,0-0.5-0.6-0.8-1.4c-0.4-0.8-0.6-1.5-0.5-1.5s0.5,0.6,0.8,1.4S958.2,463.5,958.2,463.5z"/>
		</g>
	</g>
	<g>
		<g>
			<path class="st1" d="M958.7,462c0-0.1,0.5-0.2,1.1-0.3c0.6-0.1,1.1-0.3,1.2-0.2c0,0.1-0.4,0.4-1.1,0.5
				C959.3,462.2,958.7,462.1,958.7,462z"/>
		</g>
	</g>
</g>
<g>
	<g>
		<path class="st2" d="M1008.8,403.7c0,0-11.7,7.1-3.6,19.1C1005.2,422.9,1016.7,414.3,1008.8,403.7z"/>
	</g>
	<g>
		<g>
			<path class="st1" d="M1004.6,427.1c-0.1,0,0.6-3.9,1.4-8.6c0.9-4.8,1.7-8.6,1.7-8.6c0.1,0-0.6,3.9-1.4,8.6
				C1005.5,423.3,1004.7,427.1,1004.6,427.1z"/>
		</g>
	</g>
	<g>
		<g>
			<path class="st1" d="M1009.6,412.4c0.1,0.1-0.5,0.6-1.2,1.3c-0.7,0.6-1.4,1.1-1.4,1.1c-0.1-0.1,0.5-0.6,1.2-1.3
				C1008.9,412.8,1009.5,412.3,1009.6,412.4z"/>
		</g>
	</g>
	<g>
		<g>
			<path class="st1" d="M1006.1,419.3c-0.1,0-0.5-0.7-1-1.6s-0.8-1.7-0.7-1.7s0.5,0.7,1,1.6C1005.9,418.5,1006.2,419.2,1006.1,419.3
				z"/>
		</g>
	</g>
</g>
<g>
	<g>
		<path class="st8" d="M1037,388.9c0,0-9,0.9-7.6,10.4C1029.4,399.2,1038.7,397.4,1037,388.9z"/>
	</g>
	<g>
		<g>
			<path class="st1" d="M1027.9,401.6c0,0,1.4-2.2,3.3-4.7c1.9-2.6,3.4-4.7,3.5-4.6c0,0-1.4,2.2-3.3,4.7
				C1029.4,399.6,1027.9,401.6,1027.9,401.6z"/>
		</g>
	</g>
	<g>
		<g>
			<path class="st1" d="M1035,394.2c0,0.1-0.5,0.2-1.1,0.4c-0.6,0.2-1.1,0.3-1.1,0.2c0-0.1,0.5-0.2,1.1-0.4
				C1034.5,394.3,1035,394.2,1035,394.2z"/>
		</g>
	</g>
	<g>
		<g>
			<path class="st1" d="M1031,397.3c-0.1,0-0.1-0.6-0.1-1.2c0-0.7,0-1.2,0-1.2c0.1,0,0.1,0.6,0.1,1.2
				C1031.1,396.8,1031,397.3,1031,397.3z"/>
		</g>
	</g>
</g>
<g>
	<g>
		<path class="st0" d="M683.2,580.3c0.1,0.6,0.3,1.2,0.5,1.8c-0.9-0.7-1.8-1.3-2.9-1.7c-1.7-0.6-3.5-0.8-5.4-0.9c-0.1,0-0.1,0-0.2,0
			c0.9,2.1,2.1,4,3.7,5.2c0.3,0.3,0.7,0.5,1.1,0.7c-0.4,0.1-0.7,0.3-1.1,0.4c-2.5,1-5.9,3.6-7.5,4.8c3.3,0.9,6.6,1,9.8,0.5
			c0.2,0,0.4-0.1,0.6-0.1c-0.3,0.5-0.5,0.9-0.7,1.5c-0.6,1.7-0.8,3.5-0.9,5.4c0,0.1,0,0.1,0,0.2c2.1-0.9,4-2.1,5.2-3.7
			c0.6-0.7,1-1.6,1.3-2.5c0.1,0.4,0.3,0.9,0.5,1.3c0.7,1.6,2,2.9,3.5,4.1v-0.1c0.1-1.6,0.2-3.2,0-4.7c-0.3-1.5-0.9-2.8-1.8-4.1
			c-0.6-0.8-0.9-1-1.9-2.2l0,0l0,0l0,0c0.2-1.6,0.4-2,0.4-2.9c0.1-1.5-0.1-3-0.8-4.4c-0.6-1.4-1.6-2.7-2.6-3.9l-0.1-0.1
			C683.2,576.7,682.9,578.5,683.2,580.3z"/>
	</g>
	<g>
		<g>
			<path class="st1" d="M692.5,584c0,0.1-3.1,1.3-7,2.8c-3.9,1.4-7.1,2.5-7.1,2.4s3.1-1.3,7-2.8C689.3,585,692.5,583.9,692.5,584z"
				/>
		</g>
	</g>
	<g>
		<g>
			<path class="st1" d="M685,586.7c0.1,0-0.1,0.7-0.4,1.6c-0.3,0.8-0.6,1.5-0.7,1.4c-0.1,0,0.1-0.7,0.4-1.6
				C684.6,587.4,684.9,586.7,685,586.7z"/>
		</g>
	</g>
	<g>
		<g>
			<path class="st1" d="M683.6,587.4c-0.1,0.1-0.5-0.2-1-0.6c-0.5-0.3-1-0.6-0.9-0.7c0-0.1,0.6,0.1,1.1,0.4
				C683.3,586.9,683.6,587.4,683.6,587.4z"/>
		</g>
	</g>
</g>
<g>
	<g>
		<path class="st0" d="M1038.9,459.9c0,0.1,0,0.2,0.1,0.3c-0.2-0.1-0.3-0.2-0.5-0.3c-0.3-0.1-0.7-0.1-1-0.2l0,0
			c0.2,0.4,0.4,0.7,0.7,1c0.1,0,0.1,0.1,0.2,0.1c-0.1,0-0.1,0-0.2,0.1c-0.5,0.2-1.1,0.7-1.4,0.9c0.6,0.2,1.2,0.2,1.8,0.1h0.1
			c-0.1,0.1-0.1,0.2-0.1,0.3c-0.1,0.3-0.1,0.7-0.2,1l0,0c0.4-0.2,0.7-0.4,1-0.7c0.1-0.1,0.2-0.3,0.2-0.5c0,0.1,0.1,0.2,0.1,0.2
			c0.1,0.3,0.4,0.5,0.6,0.8l0,0c0-0.3,0-0.6,0-0.9s-0.2-0.5-0.3-0.8c-0.1-0.1-0.2-0.2-0.4-0.4l0,0l0,0l0,0c0-0.3,0.1-0.4,0.1-0.5
			c0-0.3,0-0.6-0.1-0.8c-0.1-0.3-0.3-0.5-0.5-0.7l0,0C1038.9,459.3,1038.8,459.6,1038.9,459.9z"/>
	</g>
	<g>
		<g>
			<path class="st1" d="M1040.6,460.6c0,0-0.6,0.2-1.3,0.5c-0.7,0.3-1.3,0.5-1.3,0.5s0.6-0.2,1.3-0.5
				C1040,460.8,1040.6,460.6,1040.6,460.6z"/>
		</g>
	</g>
	<g>
		<g>
			<path class="st1" d="M1039.2,461.1c0,0,0,0.1-0.1,0.3c-0.1,0.2-0.1,0.3-0.1,0.3s0-0.1,0.1-0.3
				C1039.1,461.2,1039.2,461.1,1039.2,461.1z"/>
		</g>
	</g>
	<g>
		<g>
			<path class="st1" d="M1038.9,461.2c0,0-0.1,0-0.2-0.1s-0.2-0.1-0.2-0.1s0.1,0,0.2,0.1C1038.9,461.2,1038.9,461.2,1038.9,461.2z"
				/>
		</g>
	</g>
</g>
<g>
	<g>
		<path class="st2" d="M139.9,857.2c0,0,13.3,3.3,16.1-11C156,846.2,141.8,844.2,139.9,857.2z"/>
	</g>
	<g>
		<g>
			<path class="st1" d="M159.4,843.6c0,0.1-3.2,2.3-7.1,5.1c-4,2.7-7.3,4.9-7.3,4.9c0-0.1,3.1-2.3,7.1-5.1
				C156.1,845.7,159.4,843.6,159.4,843.6z"/>
		</g>
	</g>
	<g>
		<g>
			<path class="st1" d="M145.5,850.5c0-0.1,0.8-0.1,1.8,0s1.7,0.2,1.7,0.2c0,0.1-0.8,0.1-1.8,0C146.3,850.7,145.5,850.6,145.5,850.5
				z"/>
		</g>
	</g>
	<g>
		<g>
			<path class="st1" d="M152.8,848.1c0.1,0-0.1,0.8-0.4,1.8c-0.3,1-0.6,1.8-0.7,1.8s0.1-0.8,0.4-1.8
				C152.4,848.9,152.7,848.1,152.8,848.1z"/>
		</g>
	</g>
</g>
<g>
	<g>
		<path class="st2" d="M948.1,632.3c0,0,8.8,2.2,10.6-7.2C958.7,625,949.4,623.7,948.1,632.3z"/>
	</g>
	<g>
		<g>
			<path class="st1" d="M961,623.3c0,0-2.1,1.5-4.7,3.4c-2.6,1.8-4.8,3.2-4.8,3.2s2.1-1.5,4.7-3.4C958.8,624.7,961,623.3,961,623.3z
				"/>
		</g>
	</g>
	<g>
		<g>
			<path class="st1" d="M951.8,627.9c0-0.1,0.5-0.1,1.2,0c0.6,0,1.2,0.1,1.1,0.2c0,0.1-0.5,0.1-1.2,0
				C952.3,628,951.8,627.9,951.8,627.9z"/>
		</g>
	</g>
	<g>
		<g>
			<path class="st1" d="M956.6,626.3c0,0-0.1,0.6-0.3,1.2c-0.2,0.7-0.4,1.2-0.5,1.2c0,0,0.1-0.6,0.3-1.2
				C956.4,626.8,956.6,626.3,956.6,626.3z"/>
		</g>
	</g>
</g>
<g>
	<g>
		<path class="st2" d="M839.7,594c0,0-3.1,8.5,6,11.4C845.7,605.3,848.1,596.2,839.7,594z"/>
	</g>
	<g>
		<g>
			<path class="st1" d="M847.2,607.8c0,0-1.3-2.2-2.8-5.1c-1.5-2.8-2.7-5.1-2.6-5.1c0,0,1.3,2.2,2.8,5.1
				C846,605.5,847.2,607.8,847.2,607.8z"/>
		</g>
	</g>
	<g>
		<g>
			<path class="st1" d="M843.7,598.1c0.1,0,0,0.5-0.1,1.2c-0.1,0.6-0.2,1.1-0.3,1.1s0-0.5,0.1-1.2
				C843.5,598.6,843.6,598.1,843.7,598.1z"/>
		</g>
	</g>
	<g>
		<g>
			<path class="st1" d="M844.7,603.1c0,0-0.5-0.1-1.2-0.4c-0.6-0.3-1.1-0.5-1.1-0.6c0,0,0.5,0.1,1.2,0.4
				C844.2,602.8,844.7,603.1,844.7,603.1z"/>
		</g>
	</g>
</g>
<g>
	<g>
		<path class="st2" d="M109.5,847.8c0,0,7,5.7,12.7-2C122.2,845.8,114.3,840.6,109.5,847.8z"/>
	</g>
	<g>
		<g>
			<path class="st1" d="M124.9,845.3c0,0.1-2.5,0.5-5.7,1s-5.7,0.9-5.7,0.8c0-0.1,2.5-0.5,5.7-1S124.9,845.2,124.9,845.3z"/>
		</g>
	</g>
	<g>
		<g>
			<path class="st1" d="M114.7,845.4c0,0,0.5,0.2,1.1,0.5s1,0.6,1,0.6s-0.5-0.2-1.1-0.5C115.1,845.8,114.7,845.5,114.7,845.4z"/>
		</g>
	</g>
	<g>
		<g>
			<path class="st1" d="M119.7,846.1c0,0-0.3,0.5-0.8,1s-0.9,0.9-0.9,0.8c0,0,0.3-0.5,0.8-1C119.3,846.4,119.7,846,119.7,846.1z"/>
		</g>
	</g>
</g>
<g>
	<g>
		<path class="st2" d="M735.8,689.8c0,0,6.7,1.7,8.1-5.5C743.9,684.3,736.8,683.2,735.8,689.8z"/>
	</g>
	<g>
		<g>
			<path class="st1" d="M745.6,682.9c0,0-1.6,1.2-3.6,2.6c-2,1.4-3.7,2.5-3.7,2.5s1.6-1.2,3.6-2.6C744,684,745.6,682.9,745.6,682.9z
				"/>
		</g>
	</g>
	<g>
		<g>
			<path class="st1" d="M738.6,686.4c0,0,0.4,0,0.9,0s0.9,0.1,0.9,0.1s-0.4,0-0.9,0S738.6,686.5,738.6,686.4z"/>
		</g>
	</g>
	<g>
		<g>
			<path class="st1" d="M742.3,685.2c0,0-0.1,0.4-0.2,0.9c-0.2,0.5-0.3,0.9-0.4,0.9s0.1-0.4,0.2-0.9
				C742.1,685.6,742.2,685.2,742.3,685.2z"/>
		</g>
	</g>
</g>
<g>
	<g>
		<path class="st2" d="M720.4,685.1c0,0,3.5,2.9,6.4-1C726.8,684.1,722.9,681.4,720.4,685.1z"/>
	</g>
	<g>
		<g>
			<path class="st1" d="M728.2,683.8c0,0-1.3,0.3-2.9,0.5c-1.6,0.3-2.9,0.4-2.9,0.4s1.3-0.3,2.9-0.5
				C726.9,683.9,728.2,683.7,728.2,683.8z"/>
		</g>
	</g>
	<g>
		<g>
			<path class="st1" d="M723.1,683.9c0,0,0.3,0.1,0.5,0.2c0.3,0.2,0.5,0.3,0.5,0.3s-0.3-0.1-0.5-0.2
				C723.3,684,723,683.9,723.1,683.9z"/>
		</g>
	</g>
	<g>
		<g>
			<path class="st1" d="M725.6,684.2c0,0-0.2,0.2-0.4,0.5s-0.4,0.4-0.5,0.4c0,0,0.2-0.2,0.4-0.5
				C725.4,684.3,725.6,684.2,725.6,684.2z"/>
		</g>
	</g>
</g>
<g>
	<g>
		<path class="st2" d="M162.8,890.5c0,0,6.7,1.7,8.1-5.5C171,884.9,163.8,883.9,162.8,890.5z"/>
	</g>
	<g>
		<g>
			<path class="st1" d="M172.7,883.6c0,0-1.6,1.2-3.6,2.6c-2,1.4-3.7,2.5-3.7,2.5s1.6-1.2,3.6-2.6S172.7,883.6,172.7,883.6z"/>
		</g>
	</g>
	<g>
		<g>
			<path class="st1" d="M165.7,887.1c0,0,0.4,0,0.9,0s0.9,0.1,0.9,0.1s-0.4,0-0.9,0C166.1,887.2,165.7,887.1,165.7,887.1z"/>
		</g>
	</g>
	<g>
		<g>
			<path class="st1" d="M169.3,885.9c0,0-0.1,0.4-0.2,0.9c-0.2,0.5-0.3,0.9-0.4,0.9c0,0,0.1-0.4,0.2-0.9
				C169.2,886.3,169.3,885.9,169.3,885.9z"/>
		</g>
	</g>
</g>
<g>
	<g>
		<path class="st2" d="M147.5,885.7c0,0,3.5,2.9,6.4-1C153.9,884.7,149.9,882.1,147.5,885.7z"/>
	</g>
	<g>
		<g>
			<path class="st1" d="M155.3,884.4c0,0-1.3,0.3-2.9,0.5c-1.6,0.3-2.9,0.4-2.9,0.4s1.3-0.3,2.9-0.5
				C154,884.6,155.3,884.4,155.3,884.4z"/>
		</g>
	</g>
	<g>
		<g>
			<path class="st1" d="M150.1,884.5c0,0,0.3,0.1,0.5,0.2c0.3,0.2,0.5,0.3,0.5,0.3s-0.3-0.1-0.5-0.2
				C150.3,884.7,150.1,884.5,150.1,884.5z"/>
		</g>
	</g>
	<g>
		<g>
			<path class="st1" d="M152.7,884.8c0,0-0.2,0.2-0.4,0.5s-0.4,0.4-0.5,0.4c0,0,0.2-0.2,0.4-0.5C152.4,885,152.6,884.8,152.7,884.8z
				"/>
		</g>
	</g>
</g>
<g>
	<g>
		<path class="st2" d="M71.8,861.9c0,0,1.4,1.2,2.6-0.4C74.4,861.5,72.8,860.4,71.8,861.9z"/>
	</g>
	<g>
		<g>
			<path class="st1" d="M75,861.4c0,0-0.5,0.1-1.2,0.2c-0.6,0.1-1.2,0.2-1.2,0.2s0.5-0.1,1.2-0.2C74.5,861.4,75,861.3,75,861.4z"/>
		</g>
	</g>
	<g>
		<g>
			<path class="st1" d="M72.9,861.4c0,0,0.1,0,0.2,0.1s0.2,0.1,0.2,0.1s-0.1,0-0.2-0.1C73,861.5,72.9,861.4,72.9,861.4z"/>
		</g>
	</g>
	<g>
		<g>
			<path class="st1" d="M73.9,861.5c0,0-0.1,0.1-0.2,0.2c-0.1,0.1-0.2,0.2-0.2,0.2s0.1-0.1,0.2-0.2S73.9,861.5,73.9,861.5z"/>
		</g>
	</g>
</g>
<g>
	<g>
		<path class="st2" d="M878.1,669.9c0,0,2.2,1.8,4-0.6C882.1,669.3,879.6,667.7,878.1,669.9z"/>
	</g>
	<g>
		<g>
			<path class="st1" d="M883,669.1c0,0-0.8,0.2-1.8,0.3c-1,0.2-1.8,0.3-1.8,0.3s0.8-0.2,1.8-0.3C882.2,669.2,883,669.1,883,669.1z"
				/>
		</g>
	</g>
	<g>
		<g>
			<path class="st1" d="M879.7,669.2c0,0,0.2,0.1,0.3,0.1c0.2,0.1,0.3,0.2,0.3,0.2s-0.2-0.1-0.3-0.1
				C879.9,669.3,879.7,669.2,879.7,669.2z"/>
		</g>
	</g>
	<g>
		<g>
			<path class="st1" d="M881.3,669.4c0,0-0.1,0.1-0.2,0.3c-0.1,0.2-0.3,0.3-0.3,0.3s0.1-0.1,0.2-0.3
				C881.2,669.5,881.3,669.4,881.3,669.4z"/>
		</g>
	</g>
</g>
<g>
	<g>
		<path class="st2" d="M910.6,866.9c0,0-0.5-4.6-5.3-3.9C905.2,863.1,906.2,867.8,910.6,866.9z"/>
	</g>
	<g>
		<g>
			<path class="st1" d="M904,862.3c0,0,1.1,0.7,2.4,1.7c1.3,1,2.4,1.8,2.4,1.8s-1.1-0.7-2.4-1.7S904,862.3,904,862.3z"/>
		</g>
	</g>
	<g>
		<g>
			<path class="st1" d="M907.8,865.9c0,0-0.1-0.2-0.2-0.6c-0.1-0.3-0.1-0.6-0.1-0.6s0.1,0.2,0.2,0.6
				C907.8,865.6,907.8,865.9,907.8,865.9z"/>
		</g>
	</g>
	<g>
		<g>
			<path class="st1" d="M906.2,863.9c0,0,0.3-0.1,0.6-0.1c0.4,0,0.6,0,0.6,0s-0.3,0.1-0.6,0.1S906.2,863.9,906.2,863.9z"/>
		</g>
	</g>
</g>
<g>
	<g>
		<path class="st2" d="M944.1,810.3c0,0,8.8,2.2,10.6-7.2C954.7,803,945.4,801.7,944.1,810.3z"/>
	</g>
	<g>
		<g>
			<path class="st1" d="M957,801.3c0,0-2.1,1.5-4.7,3.4c-2.6,1.8-4.8,3.2-4.8,3.2s2.1-1.5,4.7-3.4C954.8,802.7,957,801.3,957,801.3z
				"/>
		</g>
	</g>
	<g>
		<g>
			<path class="st1" d="M947.8,805.9c0-0.1,0.5-0.1,1.2,0c0.6,0,1.2,0.1,1.1,0.2c0,0.1-0.5,0.1-1.2,0
				C948.3,806,947.8,805.9,947.8,805.9z"/>
		</g>
	</g>
	<g>
		<g>
			<path class="st1" d="M952.6,804.3c0,0-0.1,0.6-0.3,1.2c-0.2,0.7-0.4,1.2-0.5,1.2c0,0,0.1-0.6,0.3-1.2
				C952.4,804.8,952.6,804.3,952.6,804.3z"/>
		</g>
	</g>
</g>
<g>
	<g>
		<path class="st2" d="M835.7,772c0,0-3.1,8.5,6,11.4C841.7,783.3,844.1,774.2,835.7,772z"/>
	</g>
	<g>
		<g>
			<path class="st1" d="M843.2,785.8c0,0-1.3-2.2-2.8-5.1c-1.5-2.8-2.7-5.1-2.6-5.1c0,0,1.3,2.2,2.8,5.1
				C842,783.5,843.2,785.8,843.2,785.8z"/>
		</g>
	</g>
	<g>
		<g>
			<path class="st1" d="M839.7,776.1c0.1,0,0,0.5-0.1,1.2c-0.1,0.6-0.2,1.1-0.3,1.1s0-0.5,0.1-1.2
				C839.5,776.6,839.6,776.1,839.7,776.1z"/>
		</g>
	</g>
	<g>
		<g>
			<path class="st1" d="M840.7,781.1c0,0-0.5-0.1-1.2-0.4c-0.6-0.3-1.1-0.5-1.1-0.6c0,0,0.5,0.1,1.2,0.4
				C840.2,780.8,840.7,781.1,840.7,781.1z"/>
		</g>
	</g>
</g>
<g>
	<g>
		<path class="st2" d="M731.8,867.8c0,0,6.7,1.7,8.1-5.5C739.9,862.3,732.8,861.2,731.8,867.8z"/>
	</g>
	<g>
		<g>
			<path class="st1" d="M741.6,860.9c0,0-1.6,1.2-3.6,2.6c-2,1.4-3.7,2.5-3.7,2.5s1.6-1.2,3.6-2.6C740,862,741.6,860.9,741.6,860.9z
				"/>
		</g>
	</g>
	<g>
		<g>
			<path class="st1" d="M734.6,864.4c0,0,0.4,0,0.9,0s0.9,0.1,0.9,0.1s-0.4,0-0.9,0S734.6,864.5,734.6,864.4z"/>
		</g>
	</g>
	<g>
		<g>
			<path class="st1" d="M738.3,863.2c0,0-0.1,0.4-0.2,0.9c-0.2,0.5-0.3,0.9-0.4,0.9s0.1-0.4,0.2-0.9
				C738.1,863.6,738.2,863.2,738.3,863.2z"/>
		</g>
	</g>
</g>
<g>
	<g>
		<path class="st2" d="M716.4,863.1c0,0,3.5,2.9,6.4-1C722.8,862.1,718.9,859.4,716.4,863.1z"/>
	</g>
	<g>
		<g>
			<path class="st1" d="M724.2,861.8c0,0-1.3,0.3-2.9,0.5c-1.6,0.3-2.9,0.4-2.9,0.4s1.3-0.3,2.9-0.5
				C722.9,861.9,724.2,861.7,724.2,861.8z"/>
		</g>
	</g>
	<g>
		<g>
			<path class="st1" d="M719.1,861.9c0,0,0.3,0.1,0.5,0.2c0.3,0.2,0.5,0.3,0.5,0.3s-0.3-0.1-0.5-0.2
				C719.3,862,719,861.9,719.1,861.9z"/>
		</g>
	</g>
	<g>
		<g>
			<path class="st1" d="M721.6,862.2c0,0-0.2,0.2-0.4,0.5s-0.4,0.4-0.5,0.4c0,0,0.2-0.2,0.4-0.5
				C721.4,862.3,721.6,862.2,721.6,862.2z"/>
		</g>
	</g>
</g>
<g>
	<g>
		<path class="st2" d="M874.1,847.9c0,0,2.2,1.8,4-0.6C878.1,847.3,875.6,845.7,874.1,847.9z"/>
	</g>
	<g>
		<g>
			<path class="st1" d="M879,847.1c0,0-0.8,0.2-1.8,0.3c-1,0.2-1.8,0.3-1.8,0.3s0.8-0.2,1.8-0.3C878.2,847.2,879,847.1,879,847.1z"
				/>
		</g>
	</g>
	<g>
		<g>
			<path class="st1" d="M875.7,847.2c0,0,0.2,0.1,0.3,0.1c0.2,0.1,0.3,0.2,0.3,0.2s-0.2-0.1-0.3-0.1
				C875.9,847.3,875.7,847.2,875.7,847.2z"/>
		</g>
	</g>
	<g>
		<g>
			<path class="st1" d="M877.3,847.4c0,0-0.1,0.1-0.2,0.3c-0.1,0.2-0.3,0.3-0.3,0.3s0.1-0.1,0.2-0.3
				C877.2,847.5,877.3,847.4,877.3,847.4z"/>
		</g>
	</g>
</g>
<g>
	<g>
		<path class="st9" d="M835.1,915.4c0,0-0.5-4.6-5.3-3.9C829.7,911.6,830.7,916.3,835.1,915.4z"/>
	</g>
</g>
<g>
	<g>
		<path class="st9" d="M656.3,916.3c0,0,6.7,1.7,8.1-5.5C664.4,910.8,657.3,909.7,656.3,916.3z"/>
	</g>
</g>
<g>
	<g>
		<path class="st9" d="M640.9,911.6c0,0,3.5,2.9,6.4-1C647.3,910.6,643.4,907.9,640.9,911.6z"/>
	</g>
</g>
<g>
	<g>
		<path class="st9" d="M798.6,896.4c0,0,2.2,1.8,4-0.6C802.6,895.8,800.1,894.2,798.6,896.4z"/>
	</g>
</g>
<g>
	<g>
		<path class="st9" d="M831.1,1093.4c0,0-0.5-4.6-5.3-3.9C825.7,1089.6,826.7,1094.3,831.1,1093.4z"/>
	</g>
</g>
<g>
	<g>
		<path class="st9" d="M864.6,1036.8c0,0,8.8,2.2,10.6-7.2C875.2,1029.5,865.9,1028.2,864.6,1036.8z"/>
	</g>
</g>
<g>
	<g>
		<path class="st9" d="M756.2,998.5c0,0-3.1,8.5,6,11.4C762.2,1009.8,764.6,1000.7,756.2,998.5z"/>
	</g>
</g>
<g>
	<g>
		<path class="st9" d="M652.3,1094.3c0,0,6.7,1.7,8.1-5.5C660.4,1088.8,653.3,1087.7,652.3,1094.3z"/>
	</g>
</g>
<g>
	<g>
		<path class="st9" d="M636.9,1089.6c0,0,3.5,2.9,6.4-1C643.3,1088.6,639.4,1085.9,636.9,1089.6z"/>
	</g>
</g>
<g>
	<g>
		<path class="st9" d="M794.6,1074.4c0,0,2.2,1.8,4-0.6C798.6,1073.8,796.1,1072.2,794.6,1074.4z"/>
	</g>
	<g>
		<path class="st9" d="M380.3,774.1c0,0-0.5-4.6-5.3-3.9C375,770.3,376,775,380.3,774.1z"/>
	</g>
	<g>
		<path class="st9" d="M201.6,775c0,0,6.7,1.7,8.1-5.5C209.7,769.5,202.6,768.4,201.6,775z"/>
	</g>
	<g>
		<path class="st9" d="M186.2,770.3c0,0,3.5,2.9,6.4-1C192.6,769.3,188.7,766.6,186.2,770.3z"/>
	</g>
	<g>
		<path class="st9" d="M343.8,755.1c0,0,2.2,1.8,4-0.6C347.8,754.5,345.3,752.9,343.8,755.1z"/>
	</g>
	<g>
		<path class="st9" d="M376.3,952.1c0,0-0.5-4.6-5.3-3.9C371,948.3,372,953,376.3,952.1z"/>
	</g>
	<g>
		<path class="st9" d="M409.8,895.5c0,0,8.8,2.2,10.6-7.2C420.5,888.2,411.2,886.9,409.8,895.5z"/>
	</g>
	<g>
		<path class="st9" d="M301.5,857.2c0,0-3.1,8.5,6,11.4C307.5,868.5,309.8,859.4,301.5,857.2z"/>
	</g>
	<g>
		<path class="st9" d="M197.6,953c0,0,6.7,1.7,8.1-5.5C205.7,947.5,198.6,946.4,197.6,953z"/>
	</g>
	<g>
		<path class="st9" d="M182.2,948.3c0,0,3.5,2.9,6.4-1C188.6,947.3,184.7,944.6,182.2,948.3z"/>
	</g>
	<g>
		<path class="st9" d="M339.8,933.1c0,0,2.2,1.8,4-0.6C343.8,932.5,341.3,930.9,339.8,933.1z"/>
	</g>
	<g>
		<path class="st9" d="M480.3,208c0,0-0.5-4.6-5.3-3.9C474.9,204.2,475.9,208.9,480.3,208z"/>
	</g>
	<g>
		<path class="st9" d="M301.5,208.9c0,0,6.7,1.7,8.1-5.5C309.6,203.4,302.5,202.3,301.5,208.9z"/>
	</g>
	<g>
		<path class="st9" d="M286.1,204.2c0,0,3.5,2.9,6.4-1C292.5,203.2,288.6,200.5,286.1,204.2z"/>
	</g>
	<g>
		<path class="st9" d="M443.8,189c0,0,2.2,1.8,4-0.6C447.8,188.4,445.3,186.8,443.8,189z"/>
	</g>
	<g class="st4">
		<path class="st9" d="M476.3,386c0,0-0.5-4.6-5.3-3.9C470.9,382.2,471.9,386.9,476.3,386z"/>
	</g>
	<g>
		<path class="st9" d="M509.8,329.4c0,0,8.8,2.2,10.6-7.2C520.4,322.1,511.1,320.8,509.8,329.4z"/>
	</g>
	<g>
		<path class="st9" d="M401.4,291.1c0,0-3.1,8.5,6,11.4C407.4,302.4,409.8,293.3,401.4,291.1z"/>
	</g>
	<g class="st4">
		<path class="st9" d="M297.5,386.9c0,0,6.7,1.7,8.1-5.5C305.6,381.4,298.5,380.3,297.5,386.9z"/>
	</g>
	<g class="st4">
		<path class="st9" d="M282.1,382.2c0,0,3.5,2.9,6.4-1C288.5,381.2,284.6,378.5,282.1,382.2z"/>
	</g>
	<g class="st4">
		<path class="st9" d="M439.8,367c0,0,2.2,1.8,4-0.6C443.8,366.4,441.3,364.8,439.8,367z"/>
	</g>
	<g>
		<path class="st9" d="M264.8,113.5c0,0-0.5-4.6-5.3-3.9C259.4,109.7,260.4,114.4,264.8,113.5z"/>
	</g>
	<g>
		<path class="st9" d="M298.3,56.9c0,0,8.8,2.2,10.6-7.2C308.9,49.6,299.6,48.3,298.3,56.9z"/>
	</g>
	<g>
		<path class="st9" d="M189.9,18.6c0,0-3.1,8.5,6,11.4C195.9,29.9,198.3,20.8,189.9,18.6z"/>
	</g>
	<g>
		<path class="st9" d="M86,114.4c0,0,6.7,1.7,8.1-5.5C94.1,108.9,87,107.8,86,114.4z"/>
	</g>
	<g>
		<path class="st9" d="M70.6,109.7c0,0,3.5,2.9,6.4-1C77,108.7,73.1,106,70.6,109.7z"/>
	</g>
	<g>
		<path class="st9" d="M228.3,94.5c0,0,2.2,1.8,4-0.6C232.3,93.9,229.8,92.3,228.3,94.5z"/>
	</g>
	<g>
		<path class="st9" d="M1026.6,288.8c0,0-0.5-4.6-5.3-3.9C1021.2,285,1022.2,289.7,1026.6,288.8z"/>
	</g>
	<g>
		<path class="st9" d="M847.8,289.7c0,0,6.7,1.7,8.1-5.5C855.9,284.2,848.8,283.1,847.8,289.7z"/>
	</g>
	<g>
		<path class="st9" d="M832.4,285c0,0,3.5,2.9,6.4-1C838.8,284,834.9,281.3,832.4,285z"/>
	</g>
	<g>
		<path class="st9" d="M990,269.8c0,0,2.2,1.8,4-0.6C994,269.2,991.5,267.6,990,269.8z"/>
	</g>
	<g>
		<path class="st9" d="M1022.5,466.8c0,0-0.5-4.6-5.3-3.9C1017.2,463,1018.2,467.7,1022.5,466.8z"/>
	</g>
	<g>
		<path class="st9" d="M1056.1,410.2c0,0,8.8,2.2,10.6-7.2C1066.7,402.9,1057.4,401.6,1056.1,410.2z"/>
	</g>
	<g class="st4">
		<path class="st9" d="M947.7,371.9c0,0-3.1,8.5,6,11.4C953.7,383.2,956,374.1,947.7,371.9z"/>
	</g>
	<g>
		<path class="st9" d="M843.8,467.7c0,0,6.7,1.7,8.1-5.5C851.9,462.2,844.8,461.1,843.8,467.7z"/>
	</g>
	<g>
		<path class="st9" d="M828.4,463c0,0,3.5,2.9,6.4-1C834.8,462,830.9,459.3,828.4,463z"/>
	</g>
	<g>
		<path class="st9" d="M986,447.8c0,0,2.2,1.8,4-0.6C990,447.2,987.5,445.6,986,447.8z"/>
	</g>
</g>
<g>
	<g>
		<path class="st2" d="M1064.6,132.9c0,0-0.5-4.6-5.3-3.9C1059.2,129.1,1060.2,133.8,1064.6,132.9z"/>
	</g>
	<g>
		<g>
			<path class="st1" d="M1058,128.3c0,0,1.1,0.7,2.4,1.7s2.4,1.8,2.4,1.8s-1.1-0.7-2.4-1.7S1058,128.3,1058,128.3z"/>
		</g>
	</g>
	<g>
		<g>
			<path class="st1" d="M1061.8,131.9c0,0-0.1-0.2-0.2-0.6c-0.1-0.3-0.1-0.6-0.1-0.6s0.1,0.2,0.2,0.6
				C1061.8,131.6,1061.8,131.9,1061.8,131.9z"/>
		</g>
	</g>
	<g>
		<g>
			<path class="st1" d="M1060.2,129.9c0,0,0.3-0.1,0.6-0.1c0.4,0,0.6,0,0.6,0s-0.3,0.1-0.6,0.1S1060.2,129.9,1060.2,129.9z"/>
		</g>
	</g>
</g>
<g>
	<g>
		<path class="st2" d="M1098.1,76.3c0,0,8.8,2.2,10.6-7.2C1108.7,69,1099.4,67.7,1098.1,76.3z"/>
	</g>
	<g>
		<g>
			<path class="st1" d="M1111,67.3c0,0-2.1,1.5-4.7,3.4c-2.6,1.8-4.8,3.2-4.8,3.2s2.1-1.5,4.7-3.4C1108.8,68.7,1111,67.3,1111,67.3z
				"/>
		</g>
	</g>
	<g>
		<g>
			<path class="st1" d="M1101.8,71.9c0-0.1,0.5-0.1,1.2,0c0.6,0,1.2,0.1,1.1,0.2c0,0.1-0.5,0.1-1.2,0
				C1102.3,72,1101.8,71.9,1101.8,71.9z"/>
		</g>
	</g>
	<g>
		<g>
			<path class="st1" d="M1106.6,70.3c0,0-0.1,0.6-0.3,1.2c-0.2,0.7-0.4,1.2-0.5,1.2c0,0,0.1-0.6,0.3-1.2
				C1106.4,70.8,1106.6,70.3,1106.6,70.3z"/>
		</g>
	</g>
</g>
<g>
	<g>
		<path class="st2" d="M989.7,38c0,0-3.1,8.5,6,11.4C995.7,49.3,998.1,40.2,989.7,38z"/>
	</g>
	<g>
		<g>
			<path class="st1" d="M997.2,51.8c0,0-1.3-2.2-2.8-5.1c-1.5-2.8-2.7-5.1-2.6-5.1c0,0,1.3,2.2,2.8,5.1
				C996,49.5,997.2,51.8,997.2,51.8z"/>
		</g>
	</g>
	<g>
		<g>
			<path class="st1" d="M993.7,42.1c0.1,0,0,0.5-0.1,1.2c-0.1,0.6-0.2,1.1-0.3,1.1s0-0.5,0.1-1.2C993.5,42.6,993.6,42.1,993.7,42.1z
				"/>
		</g>
	</g>
	<g>
		<g>
			<path class="st1" d="M994.7,47.1c0,0-0.5-0.1-1.2-0.4c-0.6-0.3-1.1-0.5-1.1-0.6c0,0,0.5,0.1,1.2,0.4
				C994.2,46.8,994.7,47.1,994.7,47.1z"/>
		</g>
	</g>
</g>
<g>
	<g>
		<path class="st2" d="M885.8,133.8c0,0,6.7,1.7,8.1-5.5C893.9,128.3,886.8,127.2,885.8,133.8z"/>
	</g>
	<g>
		<g>
			<path class="st1" d="M895.6,126.9c0,0-1.6,1.2-3.6,2.6s-3.7,2.5-3.7,2.5s1.6-1.2,3.6-2.6C894,128,895.6,126.9,895.6,126.9z"/>
		</g>
	</g>
	<g>
		<g>
			<path class="st1" d="M888.6,130.4c0,0,0.4,0,0.9,0s0.9,0.1,0.9,0.1s-0.4,0-0.9,0S888.6,130.5,888.6,130.4z"/>
		</g>
	</g>
	<g>
		<g>
			<path class="st1" d="M892.3,129.2c0,0-0.1,0.4-0.2,0.9c-0.2,0.5-0.3,0.9-0.4,0.9c0,0,0.1-0.4,0.2-0.9
				C892.1,129.6,892.2,129.2,892.3,129.2z"/>
		</g>
	</g>
</g>
<g>
	<g>
		<path class="st2" d="M870.4,129.1c0,0,3.5,2.9,6.4-1C876.8,128.1,872.9,125.4,870.4,129.1z"/>
	</g>
	<g>
		<g>
			<path class="st1" d="M878.2,127.8c0,0-1.3,0.3-2.9,0.5c-1.6,0.3-2.9,0.4-2.9,0.4s1.3-0.3,2.9-0.5
				C876.9,127.9,878.2,127.7,878.2,127.8z"/>
		</g>
	</g>
	<g>
		<g>
			<path class="st1" d="M873.1,127.9c0,0,0.3,0.1,0.5,0.2c0.3,0.2,0.5,0.3,0.5,0.3s-0.3-0.1-0.5-0.2
				C873.3,128,873,127.9,873.1,127.9z"/>
		</g>
	</g>
	<g>
		<g>
			<path class="st1" d="M875.6,128.2c0,0-0.2,0.2-0.4,0.5s-0.4,0.4-0.5,0.4c0,0,0.2-0.2,0.4-0.5
				C875.4,128.3,875.6,128.2,875.6,128.2z"/>
		</g>
	</g>
</g>
<g>
	<g>
		<path class="st2" d="M1028.1,113.9c0,0,2.2,1.8,4-0.6C1032.1,113.3,1029.6,111.7,1028.1,113.9z"/>
	</g>
	<g>
		<g>
			<path class="st1" d="M1033,113.1c0,0-0.8,0.2-1.8,0.3c-1,0.2-1.8,0.3-1.8,0.3s0.8-0.2,1.8-0.3
				C1032.2,113.2,1033,113.1,1033,113.1z"/>
		</g>
	</g>
	<g>
		<g>
			<path class="st1" d="M1029.7,113.2c0,0,0.2,0.1,0.3,0.1c0.2,0.1,0.3,0.2,0.3,0.2s-0.2-0.1-0.3-0.1
				C1029.9,113.3,1029.7,113.2,1029.7,113.2z"/>
		</g>
	</g>
	<g>
		<g>
			<path class="st1" d="M1031.3,113.4c0,0-0.1,0.1-0.2,0.3c-0.1,0.2-0.3,0.3-0.3,0.3s0.1-0.1,0.2-0.3
				C1031.2,113.5,1031.3,113.4,1031.3,113.4z"/>
		</g>
	</g>
</g>
<g class="st3">
	<g>
		<path class="st0" d="M562.4,103.2c-0.4-0.5-0.8-0.9-1.3-1.3c1.1,0.3,2.2,0.3,3.4,0.2c1.7-0.3,3.5-1,5.2-1.8c0.1,0,0.1,0,0.2-0.1
			c-1.8-1.5-3.7-2.5-5.7-2.9c-0.4-0.1-0.8-0.1-1.3-0.1c0.3-0.3,0.5-0.6,0.8-0.9c1.7-2.1,3.5-6,4.3-7.8c-3.3,0.8-6.3,2.2-8.8,4.2
			c-0.2,0.1-0.3,0.3-0.5,0.4c0-0.5,0-1.1-0.1-1.6c-0.3-1.7-1-3.5-1.8-5.2c0-0.1,0-0.1-0.1-0.2c-1.5,1.8-2.5,3.7-2.9,5.7
			c-0.1,0.9-0.1,1.8,0,2.8c-0.3-0.3-0.7-0.6-1-0.9c-1.4-1-3.2-1.6-5-1.9c0,0,0,0.1,0.1,0.1c0.6,1.4,1.3,2.9,2.2,4.1s2.1,2.1,3.5,2.7
			c0.9,0.4,1.3,0.5,2.8,1l0,0l0,0l0,0c0.5,1.5,0.6,1.9,1,2.8c0.7,1.4,1.6,2.6,2.8,3.5s2.7,1.6,4.1,2.2c0,0,0.1,0,0.1,0.1
			C564.1,106.3,563.5,104.6,562.4,103.2z"/>
	</g>
	<g>
		<g>
			<path class="st1" d="M552.4,104.4c-0.1-0.1,2.1-2.6,4.9-5.8c2.8-3.1,5.1-5.6,5.1-5.5c0.1,0.1-2.1,2.6-4.9,5.8
				C554.8,102,552.5,104.4,552.4,104.4z"/>
		</g>
	</g>
	<g>
		<g>
			<path class="st1" d="M557.7,98.4c-0.1,0-0.3-0.7-0.4-1.5c-0.1-0.9-0.2-1.6-0.1-1.6c0.1,0,0.3,0.7,0.4,1.5
				C557.8,97.6,557.8,98.4,557.7,98.4z"/>
		</g>
	</g>
	<g>
		<g>
			<path class="st1" d="M558.7,97.1c0-0.1,0.5,0,1.2,0c0.6,0.1,1.2,0.1,1.2,0.2s-0.5,0.2-1.2,0.2C559.2,97.4,558.7,97.2,558.7,97.1z
				"/>
		</g>
	</g>
</g>
<g class="st3">
	<g>
		<path class="st2" d="M623.4,55.6c0,0-13.2,3.4-9,17.3C614.5,72.9,627.9,68,623.4,55.6z"/>
	</g>
	<g>
		<g>
			<path class="st1" d="M612.7,76.8c-0.1,0,1.7-3.6,3.9-7.9s4-7.8,4.1-7.7c0.1,0-1.7,3.6-3.9,7.9C614.6,73.4,612.7,76.8,612.7,76.8z
				"/>
		</g>
	</g>
	<g>
		<g>
			<path class="st1" d="M621.6,64.1c0,0.1-0.7,0.5-1.5,0.9c-0.9,0.4-1.6,0.7-1.6,0.6s0.6-0.5,1.5-0.9
				C620.9,64.3,621.6,64,621.6,64.1z"/>
		</g>
	</g>
	<g>
		<g>
			<path class="st1" d="M616.4,69.7c-0.1,0-0.3-0.8-0.5-1.8s-0.3-1.9-0.2-1.9s0.3,0.8,0.5,1.8C616.4,68.8,616.5,69.7,616.4,69.7z"/>
		</g>
	</g>
</g>
<g>
	<g>
		<path class="st2" d="M654.6,49.4c0,0-8.9-1.7-10.2,7.8C644.4,57.2,653.8,58,654.6,49.4z"/>
	</g>
	<g>
		<g>
			<path class="st1" d="M642.2,59c0,0,2-1.7,4.5-3.6c2.5-1.9,4.6-3.5,4.6-3.4c0,0-2,1.7-4.5,3.6C644.3,57.5,642.3,59,642.2,59z"/>
		</g>
	</g>
	<g>
		<g>
			<path class="st1" d="M651.2,54c0,0.1-0.5,0.1-1.2,0.1c-0.6,0-1.2-0.1-1.2-0.1c0-0.1,0.5-0.1,1.2-0.1S651.2,53.9,651.2,54z"/>
		</g>
	</g>
	<g>
		<g>
			<path class="st1" d="M646.4,55.8c-0.1,0,0-0.6,0.2-1.2c0.2-0.7,0.4-1.2,0.4-1.2c0.1,0,0,0.6-0.2,1.2
				C646.7,55.3,646.5,55.8,646.4,55.8z"/>
		</g>
	</g>
</g>
<g>
	<g class="st3">
		<path class="st0" d="M629,188.3c-0.1,0.6-0.1,1.2,0,1.9c-0.6-1-1.3-1.8-2.3-2.5c-1.4-1.1-3.2-1.7-4.9-2.4c-0.1,0-0.1,0-0.2-0.1
			c0.2,2.3,0.8,4.4,2,6c0.2,0.3,0.5,0.7,0.8,1c-0.4,0-0.8,0-1.2,0.1c-2.7,0.3-6.7,1.8-8.6,2.5c2.9,1.8,6,2.9,9.2,3.3
			c0.2,0,0.4,0,0.6,0.1c-0.4,0.4-0.8,0.8-1.1,1.2c-1.1,1.4-1.7,3.2-2.4,4.9c0,0.1,0,0.1-0.1,0.2c2.3-0.2,4.4-0.8,6-2
			c0.7-0.5,1.4-1.2,1.9-2c0,0.5,0,0.9,0.1,1.4c0.2,1.7,1.1,3.4,2.2,4.9c0,0,0-0.1,0.1-0.1c0.6-1.5,1.1-3,1.3-4.5s0-3-0.5-4.4
			c-0.3-0.9-0.6-1.2-1.2-2.7l0,0l0,0l0,0c0.7-1.4,0.9-1.8,1.2-2.7c0.5-1.5,0.7-2.9,0.5-4.4s-0.8-3-1.4-4.5c0,0,0-0.1-0.1-0.1
			C630,184.9,629.2,186.5,629,188.3z"/>
	</g>
	<g>
		<g>
			<path class="st5" d="M636.9,194.5c0,0.1-3.4,0.4-7.5,0.6c-4.2,0.3-7.5,0.4-7.6,0.3c0-0.1,3.4-0.4,7.5-0.6
				C633.5,194.5,636.9,194.4,636.9,194.5z"/>
		</g>
	</g>
	<g class="st3">
		<g>
			<path class="st1" d="M628.9,195c0.1,0.1-0.3,0.7-0.8,1.4s-1,1.2-1.1,1.2c-0.1-0.1,0.3-0.7,0.8-1.4
				C628.3,195.5,628.8,194.9,628.9,195z"/>
		</g>
	</g>
	<g class="st3">
		<g>
			<path class="st1" d="M627.3,195.2c-0.1,0-0.4-0.4-0.8-0.8c-0.4-0.5-0.8-0.9-0.7-0.9c0.1-0.1,0.5,0.2,1,0.7
				C627.2,194.7,627.4,195.2,627.3,195.2z"/>
		</g>
	</g>
</g>
<g>
	<g>
		<path class="st10" d="M636.1,118c0,0.1,0,0.2,0,0.3c-0.1-0.2-0.2-0.3-0.4-0.5c-0.3-0.2-0.6-0.3-0.9-0.4l0,0c0,0.4,0.2,0.8,0.4,1.1
			c0,0.1,0.1,0.1,0.2,0.2c-0.1,0-0.1,0-0.2,0c-0.5,0-1.2,0.3-1.6,0.5c0.5,0.3,1.1,0.5,1.7,0.6h0.1c-0.1,0.1-0.1,0.1-0.2,0.2
			c-0.2,0.3-0.3,0.6-0.4,0.9l0,0c0.4,0,0.8-0.2,1.1-0.4c0.1-0.1,0.3-0.2,0.4-0.4c0,0.1,0,0.2,0,0.3c0,0.3,0.2,0.6,0.4,0.9l0,0
			c0.1-0.3,0.2-0.5,0.2-0.8s0-0.5-0.1-0.8c-0.1-0.2-0.1-0.2-0.2-0.5l0,0l0,0l0,0c0.1-0.3,0.2-0.3,0.2-0.5c0.1-0.3,0.1-0.5,0.1-0.8
			s-0.1-0.6-0.3-0.8l0,0C636.3,117.4,636.1,117.7,636.1,118z"/>
	</g>
	<g>
		<g>
			<path class="st1" d="M637.5,119.2c0,0-0.6,0.1-1.4,0.1c-0.8,0-1.4,0.1-1.4,0.1s0.6-0.1,1.4-0.1
				C636.9,119.2,637.5,119.1,637.5,119.2z"/>
		</g>
	</g>
	<g>
		<g>
			<path class="st1" d="M636.1,119.3c0,0-0.1,0.1-0.1,0.3c-0.1,0.1-0.2,0.2-0.2,0.2s0.1-0.1,0.1-0.3
				C636,119.3,636,119.3,636.1,119.3z"/>
		</g>
	</g>
	<g>
		<g>
			<path class="st1" d="M635.8,119.3c0,0-0.1-0.1-0.2-0.2c-0.1-0.1-0.1-0.2-0.1-0.2s0.1,0,0.2,0.1
				C635.7,119.2,635.8,119.3,635.8,119.3z"/>
		</g>
	</g>
</g>
<g class="st3">
	<g>
		<path class="st2" d="M552.2,178.8c0,0,11.8,7,18.6-5.9C570.7,172.9,557.8,166.9,552.2,178.8z"/>
	</g>
	<g>
		<g>
			<path class="st1" d="M574.8,171.4c0,0.1-3.7,1.3-8.3,2.8s-8.4,2.6-8.4,2.6c0-0.1,3.7-1.3,8.3-2.8
				C571,172.5,574.7,171.3,574.8,171.4z"/>
		</g>
	</g>
	<g>
		<g>
			<path class="st1" d="M559.5,174c0-0.1,0.8,0.1,1.7,0.5c0.9,0.3,1.6,0.7,1.6,0.7c0,0.1-0.8-0.1-1.7-0.5
				C560.1,174.4,559.4,174.1,559.5,174z"/>
		</g>
	</g>
	<g>
		<g>
			<path class="st1" d="M567.1,173.8c0.1,0-0.4,0.8-0.9,1.6c-0.6,0.9-1.1,1.5-1.2,1.5c-0.1,0,0.4-0.8,0.9-1.6
				C566.5,174.4,567.1,173.8,567.1,173.8z"/>
		</g>
	</g>
</g>
<g>
	<g>
		<path class="st2" d="M765.4,223.9c0,0,7.8,4.6,12.2-3.9C777.7,220,769.1,216,765.4,223.9z"/>
	</g>
	<g>
		<g>
			<path class="st1" d="M780.3,219c0,0-2.4,0.9-5.5,1.9c-3,1-5.5,1.7-5.5,1.7s2.4-0.9,5.5-1.9C777.9,219.7,780.3,218.9,780.3,219z"
				/>
		</g>
	</g>
	<g>
		<g>
			<path class="st1" d="M770.2,220.7c0,0,0.5,0.1,1.1,0.3s1.1,0.4,1.1,0.5c0,0-0.5-0.1-1.1-0.3S770.2,220.7,770.2,220.7z"/>
		</g>
	</g>
	<g>
		<g>
			<path class="st1" d="M775.3,220.5c0,0-0.2,0.5-0.6,1.1c-0.4,0.6-0.7,1-0.8,1c0,0,0.2-0.5,0.6-1.1
				C774.9,221,775.3,220.5,775.3,220.5z"/>
		</g>
	</g>
</g>
<g>
	<g>
		<path class="st2" d="M672.5,156.1c0,0-5.4,7.2,2.5,12.6C675,168.7,679.9,160.7,672.5,156.1z"/>
	</g>
	<g>
		<g>
			<path class="st1" d="M675.7,171.5c-0.1,0-0.6-2.5-1.2-5.7c-0.6-3.1-1.1-5.7-1.1-5.7c0.1,0,0.6,2.5,1.2,5.7
				C675.3,168.9,675.8,171.5,675.7,171.5z"/>
		</g>
	</g>
	<g>
		<g>
			<path class="st1" d="M675.1,161.2c0,0-0.1,0.5-0.4,1.1c-0.3,0.6-0.6,1-0.6,1s0.1-0.5,0.4-1.1
				C674.8,161.6,675.1,161.2,675.1,161.2z"/>
		</g>
	</g>
	<g>
		<g>
			<path class="st1" d="M674.7,166.3c0,0-0.5-0.3-1-0.7s-0.9-0.8-0.9-0.9c0,0,0.5,0.3,1,0.7C674.4,165.8,674.8,166.2,674.7,166.3z"
				/>
		</g>
	</g>
</g>
<g>
	<g>
		<path class="st2" d="M525.7,161.1c0,0,5,7.5,12.7,1.7C538.5,162.8,532.4,155.6,525.7,161.1z"/>
	</g>
	<g>
		<g>
			<path class="st1" d="M541.3,163.1c0,0.1-2.6-0.2-5.7-0.7c-3.2-0.4-5.7-0.8-5.7-0.8c0-0.1,2.6,0.2,5.7,0.7
				C538.7,162.7,541.3,163,541.3,163.1z"/>
		</g>
	</g>
	<g>
		<g>
			<path class="st1" d="M531.4,160.3c0,0,0.4,0.3,0.9,0.8c0.4,0.5,0.8,0.9,0.7,0.9c0,0-0.4-0.3-0.9-0.8
				C531.7,160.7,531.4,160.4,531.4,160.3z"/>
		</g>
	</g>
	<g>
		<g>
			<path class="st1" d="M536.1,162.4c0,0-0.4,0.4-1,0.7s-1.1,0.6-1.1,0.6s0.4-0.4,1-0.7C535.5,162.6,536,162.3,536.1,162.4z"/>
		</g>
	</g>
</g>
<g>
	<g>
		<path class="st2" d="M136,642.3c0,0,5.9,3.5,9.4-3C145.4,639.3,138.8,636.3,136,642.3z"/>
	</g>
	<g>
		<g>
			<path class="st1" d="M147.4,638.5c0,0-1.9,0.7-4.2,1.4c-2.3,0.8-4.2,1.3-4.2,1.3s1.9-0.7,4.2-1.4S147.4,638.5,147.4,638.5z"/>
		</g>
	</g>
	<g>
		<g>
			<path class="st1" d="M139.7,639.9c0,0,0.4,0.1,0.9,0.2c0.5,0.2,0.8,0.3,0.8,0.4c0,0-0.4-0.1-0.9-0.2
				C140,640.1,139.7,639.9,139.7,639.9z"/>
		</g>
	</g>
	<g>
		<g>
			<path class="st1" d="M143.6,639.7c0,0-0.2,0.4-0.5,0.8c-0.3,0.4-0.6,0.8-0.6,0.7c0,0,0.2-0.4,0.5-0.8
				C143.3,640.1,143.5,639.7,143.6,639.7z"/>
		</g>
	</g>
</g>
<g>
	<g>
		<path class="st2" d="M122.6,633.3c0,0,2.5,3.8,6.4,0.9C129.1,634.2,126,630.6,122.6,633.3z"/>
	</g>
	<g>
		<g>
			<path class="st1" d="M130.5,634.3c0,0-1.3-0.1-2.9-0.3s-2.9-0.4-2.9-0.4s1.3,0.1,2.9,0.3S130.5,634.3,130.5,634.3z"/>
		</g>
	</g>
	<g>
		<g>
			<path class="st1" d="M125.5,632.9c0,0,0.2,0.2,0.4,0.4c0.2,0.2,0.4,0.4,0.4,0.4s-0.2-0.2-0.4-0.4
				C125.7,633.2,125.5,633,125.5,632.9z"/>
		</g>
	</g>
	<g>
		<g>
			<path class="st1" d="M127.9,634c0,0-0.2,0.2-0.5,0.4s-0.6,0.3-0.6,0.3s0.2-0.2,0.5-0.4C127.6,634.1,127.8,633.9,127.9,634z"/>
		</g>
	</g>
</g>
<g class="st3">
	<g>
		<path class="st2" d="M564.6,217.3c0,0,5.9,3.5,9.4-3C574,214.3,567.5,211.2,564.6,217.3z"/>
	</g>
	<g>
		<g>
			<path class="st1" d="M576,213.5c0,0-1.9,0.7-4.2,1.4c-2.3,0.8-4.2,1.3-4.2,1.3s1.9-0.7,4.2-1.4S576,213.5,576,213.5z"/>
		</g>
	</g>
	<g>
		<g>
			<path class="st1" d="M568.3,214.8c0,0,0.4,0.1,0.9,0.2c0.5,0.2,0.8,0.3,0.8,0.4c0,0-0.4-0.1-0.9-0.2
				C568.7,215,568.3,214.9,568.3,214.8z"/>
		</g>
	</g>
	<g>
		<g>
			<path class="st1" d="M572.2,214.7c0,0-0.2,0.4-0.5,0.8c-0.3,0.4-0.6,0.8-0.6,0.7c0,0,0.2-0.4,0.5-0.8
				C571.9,215,572.2,214.7,572.2,214.7z"/>
		</g>
	</g>
</g>
<g class="st3">
	<g>
		<path class="st2" d="M551.3,208.3c0,0,2.5,3.8,6.4,0.9C557.7,209.2,554.7,205.5,551.3,208.3z"/>
	</g>
	<g>
		<g>
			<path class="st1" d="M559.1,209.3c0,0-1.3-0.1-2.9-0.3c-1.6-0.2-2.9-0.4-2.9-0.4s1.3,0.1,2.9,0.3
				C557.9,209.1,559.1,209.3,559.1,209.3z"/>
		</g>
	</g>
	<g>
		<g>
			<path class="st1" d="M554.2,207.9c0,0,0.2,0.2,0.4,0.4s0.4,0.4,0.4,0.4s-0.2-0.2-0.4-0.4C554.3,208.1,554.1,207.9,554.2,207.9z"
				/>
		</g>
	</g>
	<g>
		<g>
			<path class="st1" d="M556.5,208.9c0,0-0.2,0.2-0.5,0.4s-0.6,0.3-0.6,0.3s0.2-0.2,0.5-0.4S556.5,208.9,556.5,208.9z"/>
		</g>
	</g>
</g>
<g>
	<g>
		<path class="st2" d="M485.6,163.8c0,0,1,1.5,2.6,0.4C488.2,164.2,487,162.7,485.6,163.8z"/>
	</g>
	<g>
		<g>
			<path class="st1" d="M488.8,164.2c0,0-0.5-0.1-1.2-0.1c-0.7-0.1-1.2-0.2-1.2-0.2s0.5,0.1,1.2,0.1
				C488.3,164.1,488.8,164.2,488.8,164.2z"/>
		</g>
	</g>
	<g>
		<g>
			<path class="st1" d="M486.8,163.6c0,0,0.1,0.1,0.2,0.2c0.1,0.1,0.2,0.2,0.2,0.2s-0.1-0.1-0.2-0.2
				C486.8,163.7,486.8,163.6,486.8,163.6z"/>
		</g>
	</g>
	<g>
		<g>
			<path class="st1" d="M487.7,164.1c0,0-0.1,0.1-0.2,0.1c-0.1,0.1-0.2,0.1-0.2,0.1s0.1-0.1,0.2-0.1
				C487.6,164.1,487.7,164.1,487.7,164.1z"/>
		</g>
	</g>
</g>
<g>
	<g>
		<path class="st2" d="M687.6,239.9c0,0,1.6,2.4,4,0.5C691.6,240.4,689.7,238.1,687.6,239.9z"/>
	</g>
	<g>
		<g>
			<path class="st1" d="M692.5,240.5c0,0-0.8-0.1-1.8-0.2c-1-0.1-1.8-0.3-1.8-0.3s0.8,0.1,1.8,0.2
				C691.7,240.4,692.5,240.5,692.5,240.5z"/>
		</g>
	</g>
	<g>
		<g>
			<path class="st1" d="M689.4,239.6c0,0,0.1,0.1,0.3,0.2c0.1,0.1,0.2,0.3,0.2,0.3s-0.1-0.1-0.3-0.2
				C689.5,239.8,689.4,239.6,689.4,239.6z"/>
		</g>
	</g>
	<g>
		<g>
			<path class="st1" d="M690.8,240.3c0,0-0.1,0.1-0.3,0.2c-0.2,0.1-0.3,0.2-0.4,0.2c0,0,0.1-0.1,0.3-0.2
				C690.7,240.3,690.8,240.3,690.8,240.3z"/>
		</g>
	</g>
</g>
</svg>
