<?xml version="1.0" encoding="utf-8"?>
<!-- Generator: Adobe Illustrator 27.1.1, SVG Export Plug-In . SVG Version: 6.00 Build 0)  -->
<svg version="1.1" id="Capa_1" xmlns="http://www.w3.org/2000/svg" xmlns:xlink="http://www.w3.org/1999/xlink" x="0px" y="0px"
	 viewBox="0 0 1125 635" style="enable-background:new 0 0 1125 635;" xml:space="preserve">
<style type="text/css">
	.st0{fill:#8EC760;}
	.st1{fill:#FFFFFF;}
	.st2{opacity:0.33;fill:url(#SVGID_1_);}
	.st3{opacity:0.19;fill:url(#SVGID_00000155825213115507135860000006260694350438565281_);}
	.st4{opacity:0.14;}
	.st5{stroke:#FFFFFF;stroke-width:5;stroke-miterlimit:10;}
	.st6{fill:#FFFFFF;stroke:#000000;stroke-width:15;stroke-miterlimit:10;}
	.st7{fill:none;stroke:#8EC760;stroke-width:2;stroke-miterlimit:10;}
	.st8{fill:#E3EAF7;}
	.st9{fill:#EFF4FF;}
	.st10{fill:#C9D2E2;}
	.st11{fill:#C9EAE9;}
	.st12{fill:#93D0CC;}
	.st13{fill:#FFB5C3;}
	.st14{fill:#FDE3E6;}
	.st15{fill:#FED1D4;}
	.st16{fill:#F1ACA0;}
	.st17{fill:#FFE9DE;}
	.st18{fill:#AFBDD3;}
	.st19{fill:#FFE3C0;}
	.st20{fill:#FDCA9E;}
	.st21{fill:#193562;}
	.st22{fill:#001E4D;}
	.st23{clip-path:url(#SVGID_00000156569870066368637500000014697517397524093855_);}
	.st24{fill:#6CBCB8;}
	.st25{fill:#F38BA8;}
</style>
<g>
	<g>
		<g>
			<path class="st1" d="M902.27,212.18c0,24.16,0.39,48.33-0.09,72.49c-0.73,37.07-17.62,65.04-50.54,81.86
				c-42.7,21.81-83.82,17.24-121.55-12.06c-16.97-13.19-25.95-31.89-30.59-52.77c-4.62-20.81-2.34-41.85-2.56-62.79
				c-0.36-35.12,0.09-70.25-0.23-105.37c-0.06-6.67,2.4-8.57,8.47-8.47c17.44,0.3,34.89,0.5,52.33,0.38
				c5.71-0.04,5.18,3.4,5.18,7.05c0.02,49.89,0.14,99.78,0.03,149.67c-0.03,12.7,4.81,22.57,15.57,29.21
				c13.76,8.49,27.83,9.54,42.05,0.82c11.44-7.01,16.5-16.63,16.35-30.54c-0.54-49.66-0.04-99.33-0.21-148.99
				c-0.02-5.41,1.51-7.91,6.95-7.86c18.11,0.18,36.23,0.35,54.34,0.4c4.86,0.01,4.5,3.22,4.49,6.42
				C902.26,158.49,902.27,185.33,902.27,212.18z"/>
			<path class="st1" d="M428.2,213.69c-0.32,22.62,0.2,46.77-0.69,70.93c-1.82,49.82-36.13,85.62-83.65,93.37
				c-36.28,5.92-69.44-3.04-95.81-29.96c-15.81-16.15-24.85-36.3-25.13-58.98c-0.63-51.9-0.07-103.81-0.35-155.72
				c-0.04-6.77,2.33-8.22,8.47-8.14c16.54,0.22,33.09-0.03,49.64-0.32c5.33-0.09,6.93,2.26,6.9,7.28
				c-0.14,23.04-0.02,46.09-0.03,69.13c-0.01,26.4-0.03,52.8-0.09,79.2c-0.03,13.15,4.42,24,15.96,31.15
				c13.21,8.2,26.4,8.64,40.36,1.07c13.06-7.08,18.64-17.61,18.6-32.06c-0.12-49.22,0.05-98.44-0.17-147.66
				c-0.03-5.75,1.31-7.75,7.38-7.69c17.44,0.18,34.88-0.56,52.33,0.19c4.75,0.2,6.45,1.76,6.4,6.8
				C428.06,158.91,428.2,185.54,428.2,213.69z"/>
			<path class="st1" d="M441.64,271.52c0-12.98-0.01-25.96,0-38.94c0.01-9.84,0.06-9.89,9.54-9.89c11.19-0.01,22.4,0.37,33.56-0.13
				c6.36-0.28,8.32,1.5,8.41,8.09c0.36,25.51,0.71,51.02-0.23,76.51c-0.52,14.17,10.15,22.77,21.47,22.92
				c13.84,0.18,22.23-8.35,22.31-22.73c0.12-25.06,0.05-50.13,0.09-75.19c0.01-9.35,0.09-9.43,9.29-9.46
				c11.64-0.04,23.28,0.14,34.91-0.07c5.06-0.09,7.26,1.64,7.28,6.94c0.08,24.16,0.42,48.33,0.65,72.49
				c0.02,2.01-0.11,4.03-0.09,6.04c0.16,13.91,7.6,21.92,20.44,22.03c13.62,0.11,22.48-8.69,22.48-22.67
				c0.01-22.6-0.09-45.19-0.26-67.79c-0.13-16.97-0.22-16.98,16.85-16.98c9.18,0,18.35,0.15,27.53-0.02c5.33-0.1,7.6,1.87,7.57,7.48
				c-0.18,27.08,0.32,54.17-0.2,81.24c-0.56,29.08-18.27,53.57-46.91,63.52c-24.57,8.53-47.25,5.21-68.93-8.11
				c-3.34-2.05-6.01-2.02-9.25-0.04c-24.54,15.01-50.19,17.68-76.44,5.3c-24.96-11.77-38.46-31.99-39.94-59.58
				C441.04,298.86,441.64,285.17,441.64,271.52z"/>
			<path class="st1" d="M671.21,382.43c8.52,1.49,18.8,1.28,24.27,11.73c0.79,1.52,1.69,2.78,0.12,4.07c-1.57,1.3-4,2.39-5.4,0.92
				c-8.33-8.74-18.55-6.61-28.11-4.33c-13.79,3.29-25.94,9.86-32.32,23.6c-2.94,6.34-1.14,10.64,5.41,13.22
				c6.28,2.47,12.96,3.07,19.69,3.26c12.92,0.36,25.73,1.6,38.32,4.86c5.11,1.32,9.73,3.53,13.56,6.88
				c10.23,8.96,8.5,19.52-0.48,31.59c-11.86,15.93-28.87,23.92-48,27.64c-4.8,0.93-9.57-0.57-13.53-2.94
				c-3.5-2.1-5.32-5.75-3.41-10.37c4.7-11.39,13.68-17.82,24.92-21.37c3.35-1.06,8.46-5.74,10.38-0.27
				c1.96,5.61-5.05,4.47-8.18,5.95c-6.28,2.97-12.64,5.74-17.33,11.08c-1.93,2.19-3.64,4.82-2.13,7.92
				c1.45,2.98,4.51,2.65,7.05,2.44c20.44-1.74,36.36-11.35,47.33-28.57c6.41-10.06,3.28-17.34-8.46-21.62
				c-14.61-5.32-30.03-3.72-45.09-5.08c-6.24-0.56-12.36-1.51-18.2-3.57c-12.85-4.53-17.07-18.51-8.7-30.81
				C634.14,392.16,649.93,383.13,671.21,382.43z"/>
			<path class="st1" d="M782.16,510.13c-9.11-0.09-13.58-4.89-13.09-13.63c0.57-10.12,6.24-17.57,13.53-23.66
				c4.42-3.69,3.74-6.13,0.25-9.64c-3.49-3.5-6.41-6.24-10.81-0.93c-2.83,3.41-5.38,7.05-8.67,10.16
				c-7.4,7.01-14.19,4.56-16.11-5.35c-0.36-1.85,0.76-4.5-1.6-5.39c-2.77-1.04-3.74,1.97-5.19,3.38c-3.65,3.56-6.79,7.58-12.03,9.15
				c-3.92,1.17-6.28,0.42-7.75-3.64c-2.41-6.67-0.65-16.68,4.13-21.02c1.44-1.31,2.85-3.08,5.2-1.58c2.37,1.51,2.29,3.54,1.34,5.83
				c-1.18,2.87-2.22,5.8-3.43,8.66c-0.68,1.61-0.87,3.14,0.75,4.13c1.6,0.97,2.76-0.1,4.1-1.13c5.57-4.29,8.93-10.49,13.72-15.44
				c2.14-2.21,3.88-5.16,7.78-3.57c4.4,1.78,2.23,4.86,1.85,7.83c-0.45,3.53-0.22,7.14-0.27,10.72c-0.02,1.6,0.02,3.29,1.9,3.84
				c1.75,0.51,2.9-0.64,3.99-1.85c5.16-5.74,11.19-10.67,11.8-19.5c0.4-5.72,9.14-11.61,14.92-11.24c2.03,0.13,3.99,0.68,5.27,2.47
				c0.95,1.33,1.58,2.78,0.52,4.32c-1.17,1.7-2.64,1.3-4.09,0.38c-2.97-1.86-6.18-3.52-8.77,0.14c-2.76,3.89-0.68,7.3,2.29,10.02
				c5.62,5.14,11.34,10.19,14,17.62c4.11,11.46,4.97,22.67-3.31,32.9C791.11,508.1,787.09,510.61,782.16,510.13z M789.69,484.2
				c-0.19-1.44-0.3-4.14-0.99-6.67c-0.45-1.64-1.96-3.76-3.73-1.35c-3.97,5.41-7.02,11.4-7.05,18.29c-0.01,1.8,0.25,4.61,3.29,5.12
				c2.62,0.43,4.01-1.05,5.52-2.84C789.56,493.39,789.51,489.4,789.69,484.2z"/>
			<path class="st1" d="M855.62,468.15c-3.17,2.91-5.56,5.53-8.37,7.59c-4.26,3.12-9.4,1.21-10.7-3.98
				c-1.14-4.51-1.74-9.16-2.61-13.74c-0.27-1.44,0.28-3.37-1.75-3.93c-1.78-0.49-3.02,0.83-4,1.95
				c-4.56,5.18-8.73,10.72-11.41,17.09c-1.14,2.72-1.28,6.31-5.04,5.71c-3.82-0.61-6.03-3.62-6.14-7.71
				c-0.09-3.57-0.12-7.15-0.09-10.73c0.2-19.67,1.27-39.22,7.48-58.14c1.16-3.54,2.83-5.88,6.52-4.72c3.57,1.12,2.24,4.28,1.67,6.85
				c-3.61,16.11-5.21,32.48-6.09,48.93c-0.11,2.12-0.85,5.19,1.51,6.08c2.65,1,3.44-2.36,4.64-3.93c2.61-3.4,5.64-6.27,9.04-8.78
				c4.49-3.32,7.78-2.38,9.97,2.79c2.06,4.87,1.29,10.08,1.64,15.15c0.14,2.06,0.34,4.32,2.34,5.22c2.5,1.13,3.36-1.52,4.67-2.85
				c4.72-4.8,8.46-10.34,11.61-16.25c1.15-2.16,2.28-4.23,4.89-3.35c2.36,0.8,2.96,3.29,2.69,5.6c-0.51,4.43-1.37,8.82-1.9,13.25
				c-0.21,1.74-0.33,3.99,1.48,4.83c1.9,0.87,3.14-0.94,4.35-2.25c3.63-3.93,7.29-7.82,10.98-11.7c0.77-0.81,1.8-1.78,2.88-1.04
				c1.37,0.93,1.07,2.58,0.14,3.55c-5.08,5.31-8.82,11.92-14.78,16.33C864.86,480.72,859.21,477.97,855.62,468.15z"/>
		</g>
		<circle class="st1" cx="866.06" cy="439.62" r="4.03"/>
	</g>
</g>
</svg>
