<?xml version="1.0" encoding="utf-8"?>
<!-- Generator: Adobe Illustrator 27.1.1, SVG Export Plug-In . SVG Version: 6.00 Build 0)  -->
<svg version="1.1" id="Capa_1" xmlns="http://www.w3.org/2000/svg" xmlns:xlink="http://www.w3.org/1999/xlink" x="0px" y="0px"
	 viewBox="0 0 1125 1125" enable-background="new 0 0 1125 1125" xml:space="preserve">
<g>
	<path fill-rule="evenodd" clip-rule="evenodd" fill="#8EC760" d="M174.3,183.1c0,0,30.4-22.5-3.4-68.6
		c-16.6-23.9-55.1-42.6-77.2-44.1c18.2,18.8,4.8,58,20.1,82.1C141.1,192.3,165.2,189.8,174.3,183.1z"/>
	<path fill-rule="evenodd" clip-rule="evenodd" fill="#FFFFFF" d="M165.3,134.9c-2.3-4.7-4.7-8.8-7.5-13.1
		c-1.4-2.1-16.3-19.4-16.3-20c4.1-2.4,18.7,13.8,21,16.6c3.4,4.5,6.1,8.7,8.6,13.7c1.6,3.5,5.8,10.7,1,11.3
		C167.9,144.7,167.7,140,165.3,134.9z"/>
	<path fill-rule="evenodd" clip-rule="evenodd" fill="#124F4F" d="M174.5,186.5c0.4-0.2,0.7-0.5,1.1-0.7l0.6-0.4
		c0.1-0.1,32.8-24.2-2.8-72.7l0,0c-8-11.6-20.9-21.9-34.6-29.7C123,74,106.1,68.2,94,67.4c-1.7-0.1-3.1,1.1-3.2,2.8
		c-0.1,0.9,0.3,1.8,0.9,2.4c8.7,9.1,9.5,24,10.3,39.4c0.8,14.8,1.6,30,9.3,42.1l0.1,0.1c1.1,1.5,2.1,3,3,4.3
		c13.2,18,25.8,26.6,36.3,29.8c8,2.5,14.8,1.9,19.9,0.1c3.6,7,7.7,13.7,12.7,20c1.4,1.7,4-0.3,2.9-2.1
		C182.1,199.7,178.2,193.2,174.5,186.5z M165.2,111.9c1.9,7.3,2.3,14.3,0.3,22.2c-1.6,6.3-4.8,12.4-5.5,18.9
		c-3.5-8.6-7.4-17.1-12-25.2c-0.5-0.9-1-1.7-1.5-2.5c-0.5-10.1,4.8-19.9,1.4-29.3C154.4,100.8,160.4,106.1,165.2,111.9z M135.7,88.2
		c3.6,2,7,4.2,10.4,6.6c2.4,5.7,2.7,11.1,1,18c-0.8,3.5-1.7,6.9-1.9,10.4c-4.2-6.9-8.9-13.4-14-19.7c-1-4.4-0.9-8.7-1.1-13.4
		c-0.1-1.8-0.4-3.7-1-5.4C131.3,85.8,133.5,86.9,135.7,88.2z M127.3,83.7c1.6,3.7,1.8,7.4,1.8,11.9c0,1.8,0,3.7,0.2,5.6
		c-1-1.2-2-2.4-3-3.5c-4.6-5.4-9.4-10.7-14.4-15.7c-1.5-1.5-5.7-4.4-9.2-7.1C110.2,76.5,118.7,79.6,127.3,83.7z M103.3,80.3
		c2.5,1.7,4.8,3.2,5.9,4.3c1.8,1.8,3.7,3.6,5.4,5.5c-0.7-0.1-1.3-0.2-1.9-0.3c-2.4-0.3-4.9-0.5-7.1-1.2
		C105.1,85.8,104.3,83,103.3,80.3z M105.9,89.8c1.1,0.4,2.4,0.6,3.7,0.8c1.5,0.2,3.1,0.4,4.6,0.6c0.7,0.1,1.3,0.3,2,0.6
		c8.6,9.2,16.4,19.3,23.2,29.9c-3.3-2.1-6.9-3.7-10.6-5c-7-2.6-14.9-2.6-20.8-7C107.5,102.7,107.1,96,105.9,89.8z M108,111.6
		c0-0.2,0-0.4,0-0.5c3,2.3,7,3.2,10.8,4.1c8.5,2,15.6,5.1,22.7,9.7c0.3,0.5,0.6,1,0.9,1.5c5.6,9,9.8,18.7,13.8,28.4
		c-5.6-4.1-11.9-7-18.7-8.7c-8.2-2-17.6,0.8-25.1-3.5C109.2,133.3,108.6,122.3,108,111.6z M119.2,154.9c-1-1.4-2-2.8-2.9-4.1
		c-1.4-2.2-2.5-4.5-3.4-6.9c3.9,2.1,8.8,2.3,13.3,2.6c12.2,0.7,20.6,4.7,30.8,10.4c2.5,6.1,4.9,12.2,7.4,18.2
		c-3.7-1.1-8.2-0.7-11.5-0.5c-3.6,0.2-8.8,1.5-13.4,1.3C133.3,171.4,126.4,164.7,119.2,154.9z M152.5,182.6c-3.6-1.1-7.5-3-11.6-5.7
		c1.3-0.1,2.5-0.2,3.3-0.2c7-0.4,14.8-2,21.3,0.8c0.8,1.9,1.6,3.7,2.5,5.5C164,184.2,158.7,184.5,152.5,182.6z M164.8,165.4
		c-1.3-3.6-2.7-7.2-4.1-10.7c2-9.4,6.1-18.2,7.4-27.7c0.6-4.2,0.2-8.4-0.8-12.5c0.4,0.6,0.8,1.1,1.2,1.7l0.1,0.1
		c8.2,11.2,12.5,20.8,14.3,29c-2.2,7.3-6.8,13.3-10.8,20.1c-1.3,2.3-3.1,5.4-3.8,8.4C167,171.1,165.8,168.3,164.8,165.4z
		 M172.5,180.7l-0.3,0.2c-0.2,0.1-0.3,0.2-0.5,0.3c-1-2-2-4.1-3-6.2c0.8-6.4,6.6-13.4,9.7-17.9c1.9-2.8,3.7-5.7,4.9-8.8
		C186.8,170.1,172.6,180.6,172.5,180.7z"/>
</g>
<g>
	<path fill-rule="evenodd" clip-rule="evenodd" fill="#8EC760" d="M163.5,522.2c0,0,22.5,30.4,68.6-3.4
		c23.9-16.6,42.6-55.1,44.1-77.2c-18.8,18.2-58,4.8-82.1,20.1C154.3,489,156.8,513.1,163.5,522.2z"/>
	<path fill-rule="evenodd" clip-rule="evenodd" fill="#FFFFFF" d="M211.7,513.1c4.7-2.3,8.8-4.7,13.1-7.5c2.1-1.4,19.4-16.3,20-16.3
		c2.4,4.1-13.8,18.7-16.6,21c-4.5,3.4-8.7,6.1-13.7,8.6c-3.5,1.6-10.7,5.8-11.3,1C201.9,515.8,206.6,515.5,211.7,513.1z"/>
	<path fill-rule="evenodd" clip-rule="evenodd" fill="#124F4F" d="M160,522.4c0.2,0.4,0.5,0.7,0.7,1.1l0.4,0.6
		c0.1,0.1,24.2,32.8,72.7-2.8l0,0c11.6-8,21.9-20.9,29.7-34.6c8.9-15.7,14.7-32.6,15.6-44.7c0.1-1.7-1.1-3.1-2.8-3.2
		c-0.9-0.1-1.8,0.3-2.4,0.9c-9.1,8.7-24,9.5-39.4,10.3c-14.8,0.8-30,1.6-42.1,9.3l-0.1,0.1c-1.5,1.1-3,2.1-4.3,3
		c-18,13.2-26.6,25.8-29.8,36.3c-2.5,8-1.9,14.8-0.1,19.9c-7,3.6-13.7,7.7-20,12.7c-1.7,1.4,0.3,4,2.1,2.9
		C146.8,530,153.3,526,160,522.4z M234.7,513c-7.3,1.9-14.3,2.3-22.2,0.3c-6.3-1.6-12.4-4.8-18.9-5.5c8.6-3.5,17.1-7.4,25.2-12
		c0.9-0.5,1.7-1,2.5-1.5c10.1-0.5,19.9,4.8,29.3,1.4C245.8,502.3,240.4,508.3,234.7,513z M258.4,483.6c-2,3.6-4.2,7-6.6,10.4
		c-5.7,2.4-11.1,2.7-18,1c-3.5-0.8-6.9-1.7-10.4-1.9c6.9-4.2,13.4-8.9,19.7-14c4.4-1,8.7-0.9,13.4-1.1c1.8-0.1,3.7-0.4,5.4-1
		C260.8,479.1,259.6,481.4,258.4,483.6z M262.8,475.1c-3.7,1.6-7.4,1.8-11.9,1.8c-1.8,0-3.7,0-5.6,0.2c1.2-1,2.4-2,3.5-3
		c5.4-4.6,10.7-9.4,15.7-14.4c1.5-1.5,4.4-5.7,7.1-9.2C270,458.1,267,466.6,262.8,475.1z M266.2,451.2c-1.7,2.5-3.2,4.8-4.3,5.9
		c-1.8,1.8-3.6,3.7-5.5,5.4c0.1-0.7,0.2-1.3,0.3-1.9c0.3-2.4,0.5-4.9,1.2-7.1C260.8,452.9,263.6,452.2,266.2,451.2z M256.8,453.7
		c-0.4,1.1-0.6,2.4-0.8,3.7c-0.2,1.5-0.4,3.1-0.6,4.6c-0.1,0.7-0.3,1.3-0.6,2c-9.2,8.6-19.3,16.4-29.9,23.2c2.1-3.3,3.7-6.9,5-10.6
		c2.6-7,2.6-14.9,7-20.8C243.8,455.4,250.5,454.9,256.8,453.7z M234.9,455.9c0.2,0,0.4,0,0.5,0c-2.3,3-3.2,7-4.1,10.8
		c-2,8.5-5.1,15.6-9.7,22.7c-0.5,0.3-1,0.6-1.5,0.9c-9,5.6-18.7,9.8-28.4,13.8c4.1-5.6,7-11.9,8.7-18.7c2-8.2-0.8-17.6,3.5-25.1
		C213.3,457,224.2,456.4,234.9,455.9z M191.6,467.1c1.4-1,2.8-2,4.1-2.9c2.2-1.4,4.5-2.5,6.9-3.4c-2.1,3.9-2.3,8.8-2.6,13.3
		c-0.7,12.2-4.7,20.6-10.4,30.8c-6.1,2.5-12.2,4.9-18.2,7.4c1.1-3.7,0.7-8.2,0.5-11.5c-0.2-3.6-1.5-8.8-1.3-13.4
		C175.2,481.1,181.9,474.3,191.6,467.1z M164,500.3c1.1-3.6,3-7.5,5.7-11.6c0.1,1.3,0.2,2.5,0.2,3.3c0.4,7,2,14.8-0.8,21.3
		c-1.9,0.8-3.7,1.6-5.5,2.5C162.3,511.9,162,506.6,164,500.3z M181.1,512.6c3.6-1.3,7.2-2.7,10.7-4.1c9.4,2,18.2,6.1,27.7,7.4
		c4.2,0.6,8.4,0.2,12.5-0.8c-0.6,0.4-1.1,0.8-1.7,1.2l-0.1,0.1c-11.2,8.2-20.8,12.5-29,14.3c-7.3-2.2-13.3-6.8-20.1-10.8
		c-2.3-1.3-5.4-3.1-8.4-3.8C175.5,514.8,178.3,513.7,181.1,512.6z M165.9,520.4l-0.2-0.3c-0.1-0.2-0.2-0.3-0.3-0.5c2-1,4.1-2,6.2-3
		c6.4,0.8,13.4,6.6,17.9,9.7c2.8,1.9,5.7,3.7,8.8,4.9C176.4,534.7,165.9,520.4,165.9,520.4z"/>
</g>
<g>
	<path fill-rule="evenodd" clip-rule="evenodd" fill="#8EC760" d="M495.1,135.9c0,0,5.6-37.4-50.9-46.1
		c-28.6-5.2-69.1,8.8-85.7,23.4c26.2,0.5,44.4,37.6,72.2,43.8C478.1,165.9,493.4,147.1,495.1,135.9z"/>
	<path fill-rule="evenodd" clip-rule="evenodd" fill="#FFFFFF" d="M454.6,108.2c-4.9-1.7-9.5-2.9-14.6-4c-2.5-0.5-25.2-2.2-25.7-2.6
		c1.2-4.6,23-3.5,26.6-3.1c5.6,0.7,10.5,1.8,15.8,3.6c3.6,1.4,11.6,3.5,8.7,7.3C463.4,113.3,459.9,110.1,454.6,108.2z"/>
	<path fill-rule="evenodd" clip-rule="evenodd" fill="#124F4F" d="M497.7,138.2c0.1-0.4,0.2-0.8,0.3-1.3l0.1-0.7
		c0-0.1,6-40.3-53.4-49.5l0,0c-13.8-2.5-30.2-0.7-45.5,3.5c-17.4,4.7-33.5,12.6-42.6,20.6c-1.2,1.1-1.4,3-0.3,4.2
		c0.6,0.7,1.5,1,2.3,1c12.6,0.3,23.7,10.3,35.2,20.6c11,9.9,22.4,20.1,36.3,23.2l0.1,0c1.8,0.3,3.6,0.6,5.2,0.9
		c22.1,3.4,37,0.5,46.7-4.6c7.4-3.9,11.8-9.1,14.2-14.1c7.5,2.4,15.1,4.3,23.1,5.2c2.2,0.2,2.7-3,0.6-3.5
		C512.4,142.2,505,140.4,497.7,138.2z M438.3,92c6.5,3.8,11.8,8.5,15.9,15.5c3.3,5.6,5.4,12.2,9.4,17.3c-8.6-3.6-17.3-6.8-26.3-9.3
		c-0.9-0.3-1.9-0.5-2.8-0.7c-7.5-6.8-10.7-17.5-19.7-21.7C422.9,91.8,430.9,91.3,438.3,92z M400.7,96.1c4-1.1,8-2,12-2.7
		c5.7,2.4,9.8,6,13.5,12c1.9,3,3.7,6.1,6,8.7c-7.8-1.9-15.8-3.1-23.8-4c-3.8-2.4-6.8-5.5-10.3-8.7c-1.4-1.2-2.9-2.3-4.5-3.1
		C395.9,97.5,398.3,96.8,400.7,96.1z M391.6,98.9c3.7,1.4,6.5,3.9,9.7,7.1c1.3,1.3,2.6,2.6,4.1,3.8c-1.5-0.1-3.1-0.3-4.6-0.4
		c-7.1-0.5-14.2-0.9-21.3-0.9c-2.1,0-7.1,0.9-11.6,1.5C374.4,105.9,382.6,102,391.6,98.9z M372.3,113.5c2.9-0.5,5.6-1.1,7.2-1.1
		c2.6,0,5.2,0,7.7,0.1c-0.5,0.4-1.1,0.8-1.5,1.1c-1.9,1.5-3.8,3.1-5.9,4.2C377.3,116.1,374.8,114.6,372.3,113.5z M380.7,118.3
		c1.1-0.5,2.1-1.3,3.1-2c1.2-0.9,2.4-1.9,3.7-2.8c0.6-0.4,1.2-0.7,1.8-1c12.6,0.5,25.2,2.1,37.5,4.7c-3.8,0.8-7.5,2.3-11.1,4
		c-6.8,3.2-12.4,8.7-19.7,9.8C391.1,126.3,386,121.9,380.7,118.3z M397.7,132.3c-0.1-0.1-0.3-0.2-0.4-0.4c3.7-0.5,7.2-2.7,10.5-4.8
		c7.4-4.6,14.7-7.4,22.9-9.2c0.6,0.1,1.1,0.2,1.7,0.4c10.3,2.4,20.2,6.2,29.9,10.3c-6.8,1.1-13.3,3.4-19.3,7
		c-7.2,4.3-11.9,13-20.2,15.3C413.8,146.7,405.7,139.5,397.7,132.3z M436.2,154.9c-1.7-0.3-3.3-0.5-5-0.9c-2.5-0.6-4.9-1.4-7.3-2.5
		c4.3-1.2,7.9-4.6,11.2-7.6c9.1-8.1,17.9-11.3,29.2-14.4c6.1,2.6,12.1,5.2,18.2,7.6c-3.4,1.8-6.3,5.3-8.5,7.8
		c-2.4,2.7-5.2,7.3-8.6,10.4C457.8,156.7,448.2,156.8,436.2,154.9z M479.3,151c-3.3,1.7-7.4,3.2-12.2,4.1c0.9-1,1.6-1.9,2.1-2.5
		c4.7-5.3,9-11.9,15.7-14.5c1.9,0.7,3.8,1.5,5.7,2.1C488.6,144,485.1,148,479.3,151z M475.9,130.2c-3.5-1.6-7-3.1-10.5-4.6
		c-5.2-8.1-8.5-17.2-14.4-24.9c-2.6-3.4-5.9-6.1-9.5-8.3c0.7,0.1,1.4,0.2,2.1,0.3l0.1,0c13.7,2.1,23.5,5.9,30.6,10.4
		c3.6,6.7,4.6,14.2,6.6,21.8c0.7,2.6,1.6,6,3.3,8.7C481.4,132.6,478.6,131.5,475.9,130.2z M492.2,135.5l-0.1,0.4
		c0,0.2-0.1,0.4-0.1,0.6c-2.2-0.7-4.3-1.5-6.5-2.3c-3.9-5.1-4.7-14.1-5.9-19.5c-0.7-3.3-1.4-6.7-2.8-9.7
		C494.8,117.9,492.2,135.4,492.2,135.5z"/>
</g>
<g>
	<path fill-rule="evenodd" clip-rule="evenodd" fill="#8EC760" d="M754.1,319c0,0,5.6-37.4-50.9-46.1c-28.6-5.2-69.1,8.8-85.7,23.4
		c26.2,0.5,44.4,37.6,72.2,43.8C737.1,349.1,752.4,330.2,754.1,319z"/>
	<path fill-rule="evenodd" clip-rule="evenodd" fill="#FFFFFF" d="M713.6,291.4c-4.9-1.7-9.5-2.9-14.6-4c-2.5-0.5-25.2-2.2-25.7-2.6
		c1.2-4.6,23-3.5,26.6-3.1c5.6,0.7,10.5,1.8,15.8,3.6c3.6,1.4,11.6,3.5,8.7,7.3C722.4,296.4,718.9,293.3,713.6,291.4z"/>
	<path fill-rule="evenodd" clip-rule="evenodd" fill="#124F4F" d="M756.7,321.4c0.1-0.4,0.2-0.8,0.3-1.3l0.1-0.7
		c0-0.1,6-40.3-53.4-49.5l0,0c-13.8-2.5-30.2-0.7-45.5,3.5c-17.4,4.7-33.5,12.6-42.6,20.6c-1.2,1.1-1.4,3-0.3,4.2
		c0.6,0.7,1.5,1,2.3,1c12.6,0.3,23.7,10.3,35.2,20.6c11,9.9,22.4,20.1,36.3,23.2l0.1,0c1.8,0.3,3.6,0.6,5.2,0.9
		c22.1,3.4,37,0.5,46.7-4.6c7.4-3.9,11.8-9.1,14.2-14.1c7.5,2.4,15.1,4.3,23.1,5.2c2.2,0.2,2.7-3,0.6-3.5
		C771.4,325.3,764,323.5,756.7,321.4z M697.3,275.2c6.5,3.8,11.8,8.5,15.9,15.5c3.3,5.6,5.4,12.2,9.4,17.3
		c-8.6-3.6-17.3-6.8-26.3-9.3c-0.9-0.3-1.9-0.5-2.8-0.7c-7.5-6.8-10.7-17.5-19.7-21.7C681.9,274.9,689.9,274.5,697.3,275.2z
		 M659.7,279.3c4-1.1,8-2,12-2.7c5.7,2.4,9.8,6,13.5,12c1.9,3,3.7,6.1,6,8.7c-7.8-1.9-15.8-3.1-23.8-4c-3.8-2.4-6.8-5.5-10.3-8.7
		c-1.4-1.2-2.9-2.3-4.5-3.1C654.9,280.7,657.3,279.9,659.7,279.3z M650.6,282.1c3.7,1.4,6.5,3.9,9.7,7.1c1.3,1.3,2.6,2.6,4.1,3.8
		c-1.5-0.1-3.1-0.3-4.6-0.4c-7.1-0.5-14.2-0.9-21.3-0.9c-2.1,0-7.1,0.9-11.6,1.5C633.4,289,641.6,285.2,650.6,282.1z M631.3,296.6
		c2.9-0.5,5.6-1.1,7.2-1.1c2.6,0,5.2,0,7.7,0.1c-0.5,0.4-1.1,0.8-1.5,1.1c-1.9,1.5-3.8,3.1-5.9,4.2
		C636.3,299.2,633.8,297.8,631.3,296.6z M639.7,301.5c1.1-0.5,2.1-1.3,3.1-2c1.2-0.9,2.4-1.9,3.7-2.8c0.6-0.4,1.2-0.7,1.8-1
		c12.6,0.5,25.2,2.1,37.5,4.7c-3.8,0.8-7.5,2.3-11.1,4c-6.8,3.2-12.4,8.7-19.7,9.8C650.1,309.5,645,305.1,639.7,301.5z M656.7,315.4
		c-0.1-0.1-0.3-0.2-0.4-0.4c3.7-0.5,7.2-2.7,10.5-4.8c7.4-4.6,14.7-7.4,22.9-9.2c0.6,0.1,1.1,0.2,1.7,0.4
		c10.3,2.4,20.2,6.2,29.9,10.3c-6.8,1.1-13.3,3.4-19.3,7c-7.2,4.3-11.9,13-20.2,15.3C672.8,329.9,664.7,322.6,656.7,315.4z
		 M695.2,338.1c-1.7-0.3-3.3-0.5-5-0.9c-2.5-0.6-4.9-1.4-7.3-2.5c4.3-1.2,7.9-4.6,11.2-7.6c9.1-8.1,17.9-11.3,29.2-14.4
		c6.1,2.6,12.1,5.2,18.2,7.6c-3.4,1.8-6.3,5.3-8.5,7.8c-2.4,2.7-5.2,7.3-8.6,10.4C716.8,339.8,707.2,339.9,695.2,338.1z
		 M738.3,334.2c-3.3,1.7-7.4,3.2-12.2,4.1c0.9-1,1.6-1.9,2.1-2.5c4.7-5.3,9-11.9,15.7-14.5c1.9,0.7,3.8,1.5,5.7,2.1
		C747.6,327.2,744.1,331.1,738.3,334.2z M734.9,313.3c-3.5-1.6-7-3.1-10.5-4.6c-5.2-8.1-8.5-17.2-14.4-24.9
		c-2.6-3.4-5.9-6.1-9.5-8.3c0.7,0.1,1.4,0.2,2.1,0.3l0.1,0c13.7,2.1,23.5,5.9,30.6,10.4c3.6,6.7,4.6,14.2,6.6,21.8
		c0.7,2.6,1.6,6,3.3,8.7C740.4,315.7,737.6,314.6,734.9,313.3z M751.2,318.6l-0.1,0.4c0,0.2-0.1,0.4-0.1,0.6
		c-2.2-0.7-4.3-1.5-6.5-2.3c-3.9-5.1-4.7-14.1-5.9-19.5c-0.7-3.3-1.4-6.7-2.8-9.7C753.8,301.1,751.2,318.6,751.2,318.6z"/>
</g>
<g>
	<path fill-rule="evenodd" clip-rule="evenodd" fill="#8EC760" d="M1025.1,199c0,0,5.6-37.4-50.9-46.1c-28.6-5.2-69.1,8.8-85.7,23.4
		c26.2,0.5,44.4,37.6,72.2,43.8C1008.1,229.1,1023.4,210.2,1025.1,199z"/>
	<path fill-rule="evenodd" clip-rule="evenodd" fill="#FFFFFF" d="M984.6,171.4c-4.9-1.7-9.5-2.9-14.6-4c-2.5-0.5-25.2-2.2-25.7-2.6
		c1.2-4.6,23-3.5,26.6-3.1c5.6,0.7,10.5,1.8,15.8,3.6c3.6,1.4,11.6,3.5,8.7,7.3C993.4,176.4,989.9,173.3,984.6,171.4z"/>
	<path fill-rule="evenodd" clip-rule="evenodd" fill="#124F4F" d="M1027.7,201.4c0.1-0.4,0.2-0.8,0.3-1.3l0.1-0.7
		c0-0.1,6-40.3-53.4-49.5l0,0c-13.8-2.5-30.2-0.7-45.5,3.5c-17.4,4.7-33.5,12.6-42.6,20.6c-1.2,1.1-1.4,3-0.3,4.2
		c0.6,0.7,1.5,1,2.3,1c12.6,0.3,23.7,10.3,35.2,20.6c11,9.9,22.4,20.1,36.3,23.2l0.1,0c1.8,0.3,3.6,0.6,5.2,0.9
		c22.1,3.4,37,0.5,46.7-4.6c7.4-3.9,11.8-9.1,14.2-14.1c7.5,2.4,15.1,4.3,23.1,5.2c2.2,0.2,2.7-3,0.6-3.5
		C1042.4,205.3,1035,203.5,1027.7,201.4z M968.3,155.2c6.5,3.8,11.8,8.5,15.9,15.5c3.3,5.6,5.4,12.2,9.4,17.3
		c-8.6-3.6-17.3-6.8-26.3-9.3c-0.9-0.3-1.9-0.5-2.8-0.7c-7.5-6.8-10.7-17.5-19.7-21.7C952.9,154.9,960.9,154.5,968.3,155.2z
		 M930.7,159.3c4-1.1,8-2,12-2.7c5.7,2.4,9.8,6,13.5,12c1.9,3,3.7,6.1,6,8.7c-7.8-1.9-15.8-3.1-23.8-4c-3.8-2.4-6.8-5.5-10.3-8.7
		c-1.4-1.2-2.9-2.3-4.5-3.1C925.9,160.7,928.3,159.9,930.7,159.3z M921.6,162.1c3.7,1.4,6.5,3.9,9.7,7.1c1.3,1.3,2.6,2.6,4.1,3.8
		c-1.5-0.1-3.1-0.3-4.6-0.4c-7.1-0.5-14.2-0.9-21.3-0.9c-2.1,0-7.1,0.9-11.6,1.5C904.4,169,912.6,165.2,921.6,162.1z M902.3,176.6
		c2.9-0.5,5.6-1.1,7.2-1.1c2.6,0,5.2,0,7.7,0.1c-0.5,0.4-1.1,0.8-1.5,1.1c-1.9,1.5-3.8,3.1-5.9,4.2
		C907.3,179.2,904.8,177.8,902.3,176.6z M910.7,181.5c1.1-0.5,2.1-1.3,3.1-2c1.2-0.9,2.4-1.9,3.7-2.8c0.6-0.4,1.2-0.7,1.8-1
		c12.6,0.5,25.2,2.1,37.5,4.7c-3.8,0.8-7.5,2.3-11.1,4c-6.8,3.2-12.4,8.7-19.7,9.8C921.1,189.5,916,185.1,910.7,181.5z M927.7,195.4
		c-0.1-0.1-0.3-0.2-0.4-0.4c3.7-0.5,7.2-2.7,10.5-4.8c7.4-4.6,14.7-7.4,22.9-9.2c0.6,0.1,1.1,0.2,1.7,0.4
		c10.3,2.4,20.2,6.2,29.9,10.3c-6.8,1.1-13.3,3.4-19.3,7c-7.2,4.3-11.9,13-20.2,15.3C943.8,209.9,935.7,202.6,927.7,195.4z
		 M966.2,218.1c-1.7-0.3-3.3-0.5-5-0.9c-2.5-0.6-4.9-1.4-7.3-2.5c4.3-1.2,7.9-4.6,11.2-7.6c9.1-8.1,17.9-11.3,29.2-14.4
		c6.1,2.6,12.1,5.2,18.2,7.6c-3.4,1.8-6.3,5.3-8.5,7.8c-2.4,2.7-5.2,7.3-8.6,10.4C987.8,219.8,978.2,219.9,966.2,218.1z
		 M1009.3,214.2c-3.3,1.7-7.4,3.2-12.2,4.1c0.9-1,1.6-1.9,2.1-2.5c4.7-5.3,9-11.9,15.7-14.5c1.9,0.7,3.8,1.5,5.7,2.1
		C1018.6,207.2,1015.1,211.1,1009.3,214.2z M1005.9,193.3c-3.5-1.6-7-3.1-10.5-4.6c-5.2-8.1-8.5-17.2-14.4-24.9
		c-2.6-3.4-5.9-6.1-9.5-8.3c0.7,0.1,1.4,0.2,2.1,0.3l0.1,0c13.7,2.1,23.5,5.9,30.6,10.4c3.6,6.7,4.6,14.2,6.6,21.8
		c0.7,2.6,1.6,6,3.3,8.7C1011.4,195.7,1008.6,194.6,1005.9,193.3z M1022.2,198.6l-0.1,0.4c0,0.2-0.1,0.4-0.1,0.6
		c-2.2-0.7-4.3-1.5-6.5-2.3c-3.9-5.1-4.7-14.1-5.9-19.5c-0.7-3.3-1.4-6.7-2.8-9.7C1024.8,181.1,1022.2,198.6,1022.2,198.6z"/>
</g>
<g>
	<path fill-rule="evenodd" clip-rule="evenodd" fill="#8EC760" d="M916.1,662c0,0,5.6-37.4-50.9-46.1c-28.6-5.2-69.1,8.8-85.7,23.4
		c26.2,0.5,44.4,37.6,72.2,43.8C899.1,692.1,914.4,673.2,916.1,662z"/>
	<path fill-rule="evenodd" clip-rule="evenodd" fill="#FFFFFF" d="M875.6,634.4c-4.9-1.7-9.5-2.9-14.6-4c-2.5-0.5-25.2-2.2-25.7-2.6
		c1.2-4.6,23-3.5,26.6-3.1c5.6,0.7,10.5,1.8,15.8,3.6c3.6,1.4,11.6,3.5,8.7,7.3C884.4,639.4,880.9,636.3,875.6,634.4z"/>
	<path fill-rule="evenodd" clip-rule="evenodd" fill="#124F4F" d="M918.7,664.4c0.1-0.4,0.2-0.8,0.3-1.3l0.1-0.7
		c0-0.1,6-40.3-53.4-49.5l0,0c-13.8-2.5-30.2-0.7-45.5,3.5c-17.4,4.7-33.5,12.6-42.6,20.6c-1.2,1.1-1.4,3-0.3,4.2
		c0.6,0.7,1.5,1,2.3,1c12.6,0.3,23.7,10.3,35.2,20.6c11,9.9,22.4,20.1,36.3,23.2l0.1,0c1.8,0.3,3.6,0.6,5.2,0.9
		c22.1,3.4,37,0.5,46.7-4.6c7.4-3.9,11.8-9.1,14.2-14.1c7.5,2.4,15.1,4.3,23.1,5.2c2.2,0.2,2.7-3,0.6-3.5
		C933.4,668.3,926,666.5,918.7,664.4z M859.3,618.2c6.5,3.8,11.8,8.5,15.9,15.5c3.3,5.6,5.4,12.2,9.4,17.3
		c-8.6-3.6-17.3-6.8-26.3-9.3c-0.9-0.3-1.9-0.5-2.8-0.7c-7.5-6.8-10.7-17.5-19.7-21.7C843.9,617.9,851.9,617.5,859.3,618.2z
		 M821.7,622.3c4-1.1,8-2,12-2.7c5.7,2.4,9.8,6,13.5,12c1.9,3,3.7,6.1,6,8.7c-7.8-1.9-15.8-3.1-23.8-4c-3.8-2.4-6.8-5.5-10.3-8.7
		c-1.4-1.2-2.9-2.3-4.5-3.1C816.9,623.7,819.3,622.9,821.7,622.3z M812.6,625.1c3.7,1.4,6.5,3.9,9.7,7.1c1.3,1.3,2.6,2.6,4.1,3.8
		c-1.5-0.1-3.1-0.3-4.6-0.4c-7.1-0.5-14.2-0.9-21.3-0.9c-2.1,0-7.1,0.9-11.6,1.5C795.4,632,803.6,628.2,812.6,625.1z M793.3,639.6
		c2.9-0.5,5.6-1.1,7.2-1.1c2.6,0,5.2,0,7.7,0.1c-0.5,0.4-1.1,0.8-1.5,1.1c-1.9,1.5-3.8,3.1-5.9,4.2
		C798.3,642.2,795.8,640.8,793.3,639.6z M801.7,644.5c1.1-0.5,2.1-1.3,3.1-2c1.2-0.9,2.4-1.9,3.7-2.8c0.6-0.4,1.2-0.7,1.8-1
		c12.6,0.5,25.2,2.1,37.5,4.7c-3.8,0.8-7.5,2.3-11.1,4c-6.8,3.2-12.4,8.7-19.7,9.8C812.1,652.5,807,648.1,801.7,644.5z M818.7,658.4
		c-0.1-0.1-0.3-0.2-0.4-0.4c3.7-0.5,7.2-2.7,10.5-4.8c7.4-4.6,14.7-7.4,22.9-9.2c0.6,0.1,1.1,0.2,1.7,0.4
		c10.3,2.4,20.2,6.2,29.9,10.3c-6.8,1.1-13.3,3.4-19.3,7c-7.2,4.3-11.9,13-20.2,15.3C834.8,672.9,826.7,665.6,818.7,658.4z
		 M857.2,681.1c-1.7-0.3-3.3-0.5-5-0.9c-2.5-0.6-4.9-1.4-7.3-2.5c4.3-1.2,7.9-4.6,11.2-7.6c9.1-8.1,17.9-11.3,29.2-14.4
		c6.1,2.6,12.1,5.2,18.2,7.6c-3.4,1.8-6.3,5.3-8.5,7.8c-2.4,2.7-5.2,7.3-8.6,10.4C878.8,682.8,869.2,682.9,857.2,681.1z
		 M900.3,677.2c-3.3,1.7-7.4,3.2-12.2,4.1c0.9-1,1.6-1.9,2.1-2.5c4.7-5.3,9-11.9,15.7-14.5c1.9,0.7,3.8,1.5,5.7,2.1
		C909.6,670.2,906.1,674.1,900.3,677.2z M896.9,656.3c-3.5-1.6-7-3.1-10.5-4.6c-5.2-8.1-8.5-17.2-14.4-24.9
		c-2.6-3.4-5.9-6.1-9.5-8.3c0.7,0.1,1.4,0.2,2.1,0.3l0.1,0c13.7,2.1,23.5,5.9,30.6,10.4c3.6,6.7,4.6,14.2,6.6,21.8
		c0.7,2.6,1.6,6,3.3,8.7C902.4,658.7,899.6,657.6,896.9,656.3z M913.2,661.6l-0.1,0.4c0,0.2-0.1,0.4-0.1,0.6
		c-2.2-0.7-4.3-1.5-6.5-2.3c-3.9-5.1-4.7-14.1-5.9-19.5c-0.7-3.3-1.4-6.7-2.8-9.7C915.8,644.1,913.2,661.6,913.2,661.6z"/>
</g>
<g>
	<path fill-rule="evenodd" clip-rule="evenodd" fill="#8EC760" d="M963.1,991c0,0,5.6-37.4-50.9-46.1c-28.6-5.2-69.1,8.8-85.7,23.4
		c26.2,0.5,44.4,37.6,72.2,43.8C946.1,1021.1,961.4,1002.2,963.1,991z"/>
	<path fill-rule="evenodd" clip-rule="evenodd" fill="#FFFFFF" d="M922.6,963.4c-4.9-1.7-9.5-2.9-14.6-4c-2.5-0.5-25.2-2.2-25.7-2.6
		c1.2-4.6,23-3.5,26.6-3.1c5.6,0.7,10.5,1.8,15.8,3.6c3.6,1.4,11.6,3.5,8.7,7.3C931.4,968.4,927.9,965.3,922.6,963.4z"/>
	<path fill-rule="evenodd" clip-rule="evenodd" fill="#124F4F" d="M965.7,993.4c0.1-0.4,0.2-0.8,0.3-1.3l0.1-0.7
		c0-0.1,6-40.3-53.4-49.5l0,0c-13.8-2.5-30.2-0.7-45.5,3.5c-17.4,4.7-33.5,12.6-42.6,20.6c-1.2,1.1-1.4,3-0.3,4.2
		c0.6,0.7,1.5,1,2.3,1c12.6,0.3,23.7,10.3,35.2,20.6c11,9.9,22.4,20.1,36.3,23.2l0.1,0c1.8,0.3,3.6,0.6,5.2,0.9
		c22.1,3.4,37,0.5,46.7-4.6c7.4-3.9,11.8-9.1,14.2-14.1c7.5,2.4,15.1,4.3,23.1,5.2c2.2,0.2,2.7-3,0.6-3.5
		C980.4,997.3,973,995.5,965.7,993.4z M906.3,947.2c6.5,3.8,11.8,8.5,15.9,15.5c3.3,5.6,5.4,12.2,9.4,17.3
		c-8.6-3.6-17.3-6.8-26.3-9.3c-0.9-0.3-1.9-0.5-2.8-0.7c-7.5-6.8-10.7-17.5-19.7-21.7C890.9,946.9,898.9,946.5,906.3,947.2z
		 M868.7,951.3c4-1.1,8-2,12-2.7c5.7,2.4,9.8,6,13.5,12c1.9,3,3.7,6.1,6,8.7c-7.8-1.9-15.8-3.1-23.8-4c-3.8-2.4-6.8-5.5-10.3-8.7
		c-1.4-1.2-2.9-2.3-4.5-3.1C863.9,952.7,866.3,951.9,868.7,951.3z M859.6,954.1c3.7,1.4,6.5,3.9,9.7,7.1c1.3,1.3,2.6,2.6,4.1,3.8
		c-1.5-0.1-3.1-0.3-4.6-0.4c-7.1-0.5-14.2-0.9-21.3-0.9c-2.1,0-7.1,0.9-11.6,1.5C842.4,961,850.6,957.2,859.6,954.1z M840.3,968.6
		c2.9-0.5,5.6-1.1,7.2-1.1c2.6,0,5.2,0,7.7,0.1c-0.5,0.4-1.1,0.8-1.5,1.1c-1.9,1.5-3.8,3.1-5.9,4.2
		C845.3,971.2,842.8,969.8,840.3,968.6z M848.7,973.5c1.1-0.5,2.1-1.3,3.1-2c1.2-0.9,2.4-1.9,3.7-2.8c0.6-0.4,1.2-0.7,1.8-1
		c12.6,0.5,25.2,2.1,37.5,4.7c-3.8,0.8-7.5,2.3-11.1,4c-6.8,3.2-12.4,8.7-19.7,9.8C859.1,981.5,854,977.1,848.7,973.5z M865.7,987.4
		c-0.1-0.1-0.3-0.2-0.4-0.4c3.7-0.5,7.2-2.7,10.5-4.8c7.4-4.6,14.7-7.4,22.9-9.2c0.6,0.1,1.1,0.2,1.7,0.4
		c10.3,2.4,20.2,6.2,29.9,10.3c-6.8,1.1-13.3,3.4-19.3,7c-7.2,4.3-11.9,13-20.2,15.3C881.8,1001.9,873.7,994.6,865.7,987.4z
		 M904.2,1010.1c-1.7-0.3-3.3-0.5-5-0.9c-2.5-0.6-4.9-1.4-7.3-2.5c4.3-1.2,7.9-4.6,11.2-7.6c9.1-8.1,17.9-11.3,29.2-14.4
		c6.1,2.6,12.1,5.2,18.2,7.6c-3.4,1.8-6.3,5.3-8.5,7.8c-2.4,2.7-5.2,7.3-8.6,10.4C925.8,1011.8,916.2,1011.9,904.2,1010.1z
		 M947.3,1006.2c-3.3,1.7-7.4,3.2-12.2,4.1c0.9-1,1.6-1.9,2.1-2.5c4.7-5.3,9-11.9,15.7-14.5c1.9,0.7,3.8,1.5,5.7,2.1
		C956.6,999.2,953.1,1003.1,947.3,1006.2z M943.9,985.3c-3.5-1.6-7-3.1-10.5-4.6c-5.2-8.1-8.5-17.2-14.4-24.9
		c-2.6-3.4-5.9-6.1-9.5-8.3c0.7,0.1,1.4,0.2,2.1,0.3l0.1,0c13.7,2.1,23.5,5.9,30.6,10.4c3.6,6.7,4.6,14.2,6.6,21.8
		c0.7,2.6,1.6,6,3.3,8.7C949.4,987.7,946.6,986.6,943.9,985.3z M960.2,990.6l-0.1,0.4c0,0.2-0.1,0.4-0.1,0.6
		c-2.2-0.7-4.3-1.5-6.5-2.3c-3.9-5.1-4.7-14.1-5.9-19.5c-0.7-3.3-1.4-6.7-2.8-9.7C962.8,973.1,960.2,990.6,960.2,990.6z"/>
</g>
<g>
	<path fill-rule="evenodd" clip-rule="evenodd" fill="#8EC760" d="M619.1,1035c0,0,5.6-37.4-50.9-46.1c-28.6-5.2-69.1,8.8-85.7,23.4
		c26.2,0.5,44.4,37.6,72.2,43.8C602.1,1065.1,617.4,1046.2,619.1,1035z"/>
	<path fill-rule="evenodd" clip-rule="evenodd" fill="#FFFFFF" d="M578.6,1007.4c-4.9-1.7-9.5-2.9-14.6-4
		c-2.5-0.5-25.2-2.2-25.7-2.6c1.2-4.6,23-3.5,26.6-3.1c5.6,0.7,10.5,1.8,15.8,3.6c3.6,1.4,11.6,3.5,8.7,7.3
		C587.4,1012.4,583.9,1009.3,578.6,1007.4z"/>
	<path fill-rule="evenodd" clip-rule="evenodd" fill="#124F4F" d="M621.7,1037.4c0.1-0.4,0.2-0.8,0.3-1.3l0.1-0.7
		c0-0.1,6-40.3-53.4-49.5l0,0c-13.8-2.5-30.2-0.7-45.5,3.5c-17.4,4.7-33.5,12.6-42.6,20.6c-1.2,1.1-1.4,3-0.3,4.2
		c0.6,0.7,1.5,1,2.3,1c12.6,0.3,23.7,10.3,35.2,20.6c11,9.9,22.4,20.1,36.3,23.2l0.1,0c1.8,0.3,3.6,0.6,5.2,0.9
		c22.1,3.4,37,0.5,46.7-4.6c7.4-3.9,11.8-9.1,14.2-14.1c7.5,2.4,15.1,4.3,23.1,5.2c2.2,0.2,2.7-3,0.6-3.5
		C636.4,1041.3,629,1039.5,621.7,1037.4z M562.3,991.2c6.5,3.8,11.8,8.5,15.9,15.5c3.3,5.6,5.4,12.2,9.4,17.3
		c-8.6-3.6-17.3-6.8-26.3-9.3c-0.9-0.3-1.9-0.5-2.8-0.7c-7.5-6.8-10.7-17.5-19.7-21.7C546.9,990.9,554.9,990.5,562.3,991.2z
		 M524.7,995.3c4-1.1,8-2,12-2.7c5.7,2.4,9.8,6,13.5,12c1.9,3,3.7,6.1,6,8.7c-7.8-1.9-15.8-3.1-23.8-4c-3.8-2.4-6.8-5.5-10.3-8.7
		c-1.4-1.2-2.9-2.3-4.5-3.1C519.9,996.7,522.3,995.9,524.7,995.3z M515.6,998.1c3.7,1.4,6.5,3.9,9.7,7.1c1.3,1.3,2.6,2.6,4.1,3.8
		c-1.5-0.1-3.1-0.3-4.6-0.4c-7.1-0.5-14.2-0.9-21.3-0.9c-2.1,0-7.1,0.9-11.6,1.5C498.4,1005,506.6,1001.2,515.6,998.1z
		 M496.3,1012.6c2.9-0.5,5.6-1.1,7.2-1.1c2.6,0,5.2,0,7.7,0.1c-0.5,0.4-1.1,0.8-1.5,1.1c-1.9,1.5-3.8,3.1-5.9,4.2
		C501.3,1015.2,498.8,1013.8,496.3,1012.6z M504.7,1017.5c1.1-0.5,2.1-1.3,3.1-2c1.2-0.9,2.4-1.9,3.7-2.8c0.6-0.4,1.2-0.7,1.8-1
		c12.6,0.5,25.2,2.1,37.5,4.7c-3.8,0.8-7.5,2.3-11.1,4c-6.8,3.2-12.4,8.7-19.7,9.8C515.1,1025.5,510,1021.1,504.7,1017.5z
		 M521.7,1031.4c-0.1-0.1-0.3-0.2-0.4-0.4c3.7-0.5,7.2-2.7,10.5-4.8c7.4-4.6,14.7-7.4,22.9-9.2c0.6,0.1,1.1,0.2,1.7,0.4
		c10.3,2.4,20.2,6.2,29.9,10.3c-6.8,1.1-13.3,3.4-19.3,7c-7.2,4.3-11.9,13-20.2,15.3C537.8,1045.9,529.7,1038.6,521.7,1031.4z
		 M560.2,1054.1c-1.7-0.3-3.3-0.5-5-0.9c-2.5-0.6-4.9-1.4-7.3-2.5c4.3-1.2,7.9-4.6,11.2-7.6c9.1-8.1,17.9-11.3,29.2-14.4
		c6.1,2.6,12.1,5.2,18.2,7.6c-3.4,1.8-6.3,5.3-8.5,7.8c-2.4,2.7-5.2,7.3-8.6,10.4C581.8,1055.8,572.2,1055.9,560.2,1054.1z
		 M603.3,1050.2c-3.3,1.7-7.4,3.2-12.2,4.1c0.9-1,1.6-1.9,2.1-2.5c4.7-5.3,9-11.9,15.7-14.5c1.9,0.7,3.8,1.5,5.7,2.1
		C612.6,1043.2,609.1,1047.1,603.3,1050.2z M599.9,1029.3c-3.5-1.6-7-3.1-10.5-4.6c-5.2-8.1-8.5-17.2-14.4-24.9
		c-2.6-3.4-5.9-6.1-9.5-8.3c0.7,0.1,1.4,0.2,2.1,0.3l0.1,0c13.7,2.1,23.5,5.9,30.6,10.4c3.6,6.7,4.6,14.2,6.6,21.8
		c0.7,2.6,1.6,6,3.3,8.7C605.4,1031.7,602.6,1030.6,599.9,1029.3z M616.2,1034.6l-0.1,0.4c0,0.2-0.1,0.4-0.1,0.6
		c-2.2-0.7-4.3-1.5-6.5-2.3c-3.9-5.1-4.7-14.1-5.9-19.5c-0.7-3.3-1.4-6.7-2.8-9.7C618.8,1017.1,616.2,1034.6,616.2,1034.6z"/>
</g>
<g>
	<path fill-rule="evenodd" clip-rule="evenodd" fill="#8EC760" d="M458.1,697c0,0,5.6-37.4-50.9-46.1c-28.6-5.2-69.1,8.8-85.7,23.4
		c26.2,0.5,44.4,37.6,72.2,43.8C441.1,727.1,456.4,708.2,458.1,697z"/>
	<path fill-rule="evenodd" clip-rule="evenodd" fill="#FFFFFF" d="M417.6,669.4c-4.9-1.7-9.5-2.9-14.6-4c-2.5-0.5-25.2-2.2-25.7-2.6
		c1.2-4.6,23-3.5,26.6-3.1c5.6,0.7,10.5,1.8,15.8,3.6c3.6,1.4,11.6,3.5,8.7,7.3C426.4,674.4,422.9,671.3,417.6,669.4z"/>
	<path fill-rule="evenodd" clip-rule="evenodd" fill="#124F4F" d="M460.7,699.4c0.1-0.4,0.2-0.8,0.3-1.3l0.1-0.7
		c0-0.1,6-40.3-53.4-49.5l0,0c-13.8-2.5-30.2-0.7-45.5,3.5c-17.4,4.7-33.5,12.6-42.6,20.6c-1.2,1.1-1.4,3-0.3,4.2
		c0.6,0.7,1.5,1,2.3,1c12.6,0.3,23.7,10.3,35.2,20.6c11,9.9,22.4,20.1,36.3,23.2l0.1,0c1.8,0.3,3.6,0.6,5.2,0.9
		c22.1,3.4,37,0.5,46.7-4.6c7.4-3.9,11.8-9.1,14.2-14.1c7.5,2.4,15.1,4.3,23.1,5.2c2.2,0.2,2.7-3,0.6-3.5
		C475.4,703.3,468,701.5,460.7,699.4z M401.3,653.2c6.5,3.8,11.8,8.5,15.9,15.5c3.3,5.6,5.4,12.2,9.4,17.3
		c-8.6-3.6-17.3-6.8-26.3-9.3c-0.9-0.3-1.9-0.5-2.8-0.7c-7.5-6.8-10.7-17.5-19.7-21.7C385.9,652.9,393.9,652.5,401.3,653.2z
		 M363.7,657.3c4-1.1,8-2,12-2.7c5.7,2.4,9.8,6,13.5,12c1.9,3,3.7,6.1,6,8.7c-7.8-1.9-15.8-3.1-23.8-4c-3.8-2.4-6.8-5.5-10.3-8.7
		c-1.4-1.2-2.9-2.3-4.5-3.1C358.9,658.7,361.3,657.9,363.7,657.3z M354.6,660.1c3.7,1.4,6.5,3.9,9.7,7.1c1.3,1.3,2.6,2.6,4.1,3.8
		c-1.5-0.1-3.1-0.3-4.6-0.4c-7.1-0.5-14.2-0.9-21.3-0.9c-2.1,0-7.1,0.9-11.6,1.5C337.4,667,345.6,663.2,354.6,660.1z M335.3,674.6
		c2.9-0.5,5.6-1.1,7.2-1.1c2.6,0,5.2,0,7.7,0.1c-0.5,0.4-1.1,0.8-1.5,1.1c-1.9,1.5-3.8,3.1-5.9,4.2
		C340.3,677.2,337.8,675.8,335.3,674.6z M343.7,679.5c1.1-0.5,2.1-1.3,3.1-2c1.2-0.9,2.4-1.9,3.7-2.8c0.6-0.4,1.2-0.7,1.8-1
		c12.6,0.5,25.2,2.1,37.5,4.7c-3.8,0.8-7.5,2.3-11.1,4c-6.8,3.2-12.4,8.7-19.7,9.8C354.1,687.5,349,683.1,343.7,679.5z M360.7,693.4
		c-0.1-0.1-0.3-0.2-0.4-0.4c3.7-0.5,7.2-2.7,10.5-4.8c7.4-4.6,14.7-7.4,22.9-9.2c0.6,0.1,1.1,0.2,1.7,0.4
		c10.3,2.4,20.2,6.2,29.9,10.3c-6.8,1.1-13.3,3.4-19.3,7c-7.2,4.3-11.9,13-20.2,15.3C376.8,707.9,368.7,700.6,360.7,693.4z
		 M399.2,716.1c-1.7-0.3-3.3-0.5-5-0.9c-2.5-0.6-4.9-1.4-7.3-2.5c4.3-1.2,7.9-4.6,11.2-7.6c9.1-8.1,17.9-11.3,29.2-14.4
		c6.1,2.6,12.1,5.2,18.2,7.6c-3.4,1.8-6.3,5.3-8.5,7.8c-2.4,2.7-5.2,7.3-8.6,10.4C420.8,717.8,411.2,717.9,399.2,716.1z
		 M442.3,712.2c-3.3,1.7-7.4,3.2-12.2,4.1c0.9-1,1.6-1.9,2.1-2.5c4.7-5.3,9-11.9,15.7-14.5c1.9,0.7,3.8,1.5,5.7,2.1
		C451.6,705.2,448.1,709.1,442.3,712.2z M438.9,691.3c-3.5-1.6-7-3.1-10.5-4.6c-5.2-8.1-8.5-17.2-14.4-24.9
		c-2.6-3.4-5.9-6.1-9.5-8.3c0.7,0.1,1.4,0.2,2.1,0.3l0.1,0c13.7,2.1,23.5,5.9,30.6,10.4c3.6,6.7,4.6,14.2,6.6,21.8
		c0.7,2.6,1.6,6,3.3,8.7C444.4,693.7,441.6,692.6,438.9,691.3z M455.2,696.6l-0.1,0.4c0,0.2-0.1,0.4-0.1,0.6
		c-2.2-0.7-4.3-1.5-6.5-2.3c-3.9-5.1-4.7-14.1-5.9-19.5c-0.7-3.3-1.4-6.7-2.8-9.7C457.8,679.1,455.2,696.6,455.2,696.6z"/>
</g>
<g>
	<path fill-rule="evenodd" clip-rule="evenodd" fill="#8EC760" d="M179.2,1039.1c0,0,36.7-9.2,22.9-64.7
		c-6.2-28.4-34.7-60.4-54.6-70.1c9.6,24.3-17.6,55.4-12.7,83.5C145,1035,168.3,1041.9,179.2,1039.1z"/>
	<path fill-rule="evenodd" clip-rule="evenodd" fill="#FFFFFF" d="M189.2,991.1c-0.3-5.2-1-9.9-2-15c-0.5-2.5-7.7-24.1-7.5-24.7
		c4.7-0.6,12,19.9,13.1,23.3c1.5,5.4,2.4,10.3,2.8,16c0.1,3.9,1.3,12.1-3.4,10.8C187.9,1001.2,189.5,996.7,189.2,991.1z"/>
	<path fill-rule="evenodd" clip-rule="evenodd" fill="#124F4F" d="M178.1,1042.4c0.4-0.1,0.9-0.1,1.3-0.2l0.7-0.2
		c0.1,0,39.5-9.9,25.1-68.3l0,0c-3-13.7-11-28.2-20.7-40.7c-11.1-14.2-24.5-26-35.4-31.4c-1.5-0.7-3.3-0.1-4,1.4
		c-0.4,0.8-0.4,1.8,0,2.5c4.6,11.7-0.4,25.8-5.4,40.4c-4.9,14-9.9,28.4-7.4,42.4l0,0.1c0.4,1.8,0.8,3.5,1.2,5.1
		c5.4,21.7,13.8,34.4,22.2,41.4c6.4,5.3,13,7.4,18.4,7.7c0.6,7.8,1.9,15.6,4.1,23.3c0.6,2.1,3.8,1.3,3.5-0.8
		C180.1,1057.5,178.9,1050,178.1,1042.4z M197.9,969.8c-1,7.4-3.3,14.1-8.2,20.7c-3.9,5.2-9.1,9.7-12.3,15.4
		c0-9.3-0.4-18.6-1.5-27.9c-0.1-1-0.3-1.9-0.4-2.9c3.4-9.5,12-16.6,12.4-26.5C192.2,955.5,195.7,962.7,197.9,969.8z M179.6,936.7
		c2.5,3.2,4.9,6.6,7.1,10c0,6.2-1.8,11.3-5.9,17.1c-2.1,2.9-4.2,5.7-5.7,8.9c-1.3-8-3.2-15.8-5.5-23.5c0.8-4.5,2.5-8.4,4.1-12.9
		c0.6-1.7,1-3.6,1.1-5.4C176.5,932.8,178.1,934.7,179.6,936.7z M173.5,929.4c0.1,4-1.1,7.5-2.8,11.7c-0.7,1.6-1.4,3.4-1.9,5.2
		c-0.5-1.5-0.9-3-1.4-4.4c-2.2-6.7-4.6-13.4-7.3-20c-0.8-1.9-3.6-6.3-5.8-10.1C160.5,916.2,167.2,922.3,173.5,929.4z M152.7,917.1
		c1.6,2.5,3.2,4.7,3.8,6.2c1,2.4,2,4.8,2.9,7.2c-0.6-0.4-1.1-0.7-1.6-1c-2.1-1.2-4.3-2.3-6.1-3.9
		C152.2,922.8,152.6,919.9,152.7,917.1z M151.4,926.8c0.9,0.8,2,1.5,3.1,2.1c1.4,0.8,2.7,1.5,4,2.3c0.6,0.4,1.1,0.8,1.6,1.3
		c4.4,11.8,7.8,24.1,10.1,36.5c-2.2-3.2-5-6-7.9-8.7c-5.5-5.1-12.8-8.1-16.6-14.4C148,939.4,150.2,933,151.4,926.8z M145.1,947.8
		c0.1-0.2,0.1-0.3,0.2-0.5c1.9,3.2,5.2,5.6,8.4,7.9c7.1,5.1,12.5,10.7,17.3,17.6c0.1,0.6,0.2,1.1,0.3,1.7c1.7,10.5,2,21,2,31.6
		c-3.7-5.9-8.3-11-13.9-15.1c-6.8-5-16.6-6-21.9-12.7C137.9,968.3,141.5,957.9,145.1,947.8z M139,992.1c-0.4-1.6-0.8-3.3-1.1-4.9
		c-0.4-2.5-0.6-5.1-0.5-7.6c2.8,3.5,7.2,5.5,11.3,7.4c11,5.3,17.3,12.2,24.5,21.4c0,6.6-0.1,13.1-0.1,19.7c-3-2.4-7.3-3.8-10.4-4.8
		c-3.5-1.2-8.7-2-12.9-3.9C145.7,1012.7,141.9,1003.9,139,992.1z M159.2,1030.3c-2.9-2.4-5.8-5.6-8.5-9.7c1.2,0.4,2.4,0.8,3.1,1
		c6.7,2.3,14.4,3.7,19.4,8.9c0,2,0.1,4,0.2,6.1C169.3,1036.3,164.3,1034.5,159.2,1030.3z M177.1,1019.2c0.1-3.8,0.2-7.6,0.2-11.5
		c5.5-7.9,12.6-14.5,17.4-22.8c2.1-3.7,3.4-7.7,4-11.9c0.2,0.7,0.3,1.4,0.5,2l0,0.1c3.3,13.4,3.6,24,2.2,32.2
		c-4.8,5.9-11.4,9.7-17.6,14.5c-2.1,1.6-4.9,3.8-6.7,6.4C177,1025.2,177,1022.2,177.1,1019.2z M178.5,1036.2l-0.4,0.1
		c-0.2,0-0.4,0.1-0.6,0.1c-0.2-2.3-0.3-4.6-0.4-6.8c3.2-5.6,11.2-9.8,15.8-12.9c2.8-1.9,5.6-3.9,7.9-6.3
		C195.7,1031.9,178.6,1036.2,178.5,1036.2z"/>
</g>
</svg>
